%TF.GenerationSoftware,KiCad,Pcbnew,5.1.12-84ad8e8a86~92~ubuntu18.04.1*%
%TF.CreationDate,2023-04-20T21:37:03+02:00*%
%TF.ProjectId,transient-dc-protection,7472616e-7369-4656-9e74-2d64632d7072,rev?*%
%TF.SameCoordinates,Original*%
%TF.FileFunction,Legend,Top*%
%TF.FilePolarity,Positive*%
%FSLAX46Y46*%
G04 Gerber Fmt 4.6, Leading zero omitted, Abs format (unit mm)*
G04 Created by KiCad (PCBNEW 5.1.12-84ad8e8a86~92~ubuntu18.04.1) date 2023-04-20 21:37:03*
%MOMM*%
%LPD*%
G01*
G04 APERTURE LIST*
%ADD10C,0.150000*%
%ADD11C,0.304800*%
%ADD12C,0.120000*%
%ADD13C,0.152400*%
%ADD14C,0.381000*%
G04 APERTURE END LIST*
D10*
X29537142Y-5246666D02*
X30013333Y-5246666D01*
X29441904Y-5532380D02*
X29775238Y-4532380D01*
X30108571Y-5532380D01*
X30441904Y-5532380D02*
X30441904Y-4532380D01*
X30441904Y-4913333D02*
X30537142Y-4865714D01*
X30727619Y-4865714D01*
X30822857Y-4913333D01*
X30870476Y-4960952D01*
X30918095Y-5056190D01*
X30918095Y-5341904D01*
X30870476Y-5437142D01*
X30822857Y-5484761D01*
X30727619Y-5532380D01*
X30537142Y-5532380D01*
X30441904Y-5484761D01*
X31299047Y-5484761D02*
X31394285Y-5532380D01*
X31584761Y-5532380D01*
X31679999Y-5484761D01*
X31727619Y-5389523D01*
X31727619Y-5341904D01*
X31679999Y-5246666D01*
X31584761Y-5199047D01*
X31441904Y-5199047D01*
X31346666Y-5151428D01*
X31299047Y-5056190D01*
X31299047Y-5008571D01*
X31346666Y-4913333D01*
X31441904Y-4865714D01*
X31584761Y-4865714D01*
X31679999Y-4913333D01*
X32299047Y-5532380D02*
X32203809Y-5484761D01*
X32156190Y-5437142D01*
X32108571Y-5341904D01*
X32108571Y-5056190D01*
X32156190Y-4960952D01*
X32203809Y-4913333D01*
X32299047Y-4865714D01*
X32441904Y-4865714D01*
X32537142Y-4913333D01*
X32584761Y-4960952D01*
X32632380Y-5056190D01*
X32632380Y-5341904D01*
X32584761Y-5437142D01*
X32537142Y-5484761D01*
X32441904Y-5532380D01*
X32299047Y-5532380D01*
X33203809Y-5532380D02*
X33108571Y-5484761D01*
X33060952Y-5389523D01*
X33060952Y-4532380D01*
X34013333Y-4865714D02*
X34013333Y-5532380D01*
X33584761Y-4865714D02*
X33584761Y-5389523D01*
X33632380Y-5484761D01*
X33727619Y-5532380D01*
X33870476Y-5532380D01*
X33965714Y-5484761D01*
X34013333Y-5437142D01*
X34346666Y-4865714D02*
X34727619Y-4865714D01*
X34489523Y-4532380D02*
X34489523Y-5389523D01*
X34537142Y-5484761D01*
X34632380Y-5532380D01*
X34727619Y-5532380D01*
X35441904Y-5484761D02*
X35346666Y-5532380D01*
X35156190Y-5532380D01*
X35060952Y-5484761D01*
X35013333Y-5389523D01*
X35013333Y-5008571D01*
X35060952Y-4913333D01*
X35156190Y-4865714D01*
X35346666Y-4865714D01*
X35441904Y-4913333D01*
X35489523Y-5008571D01*
X35489523Y-5103809D01*
X35013333Y-5199047D01*
X36680000Y-5532380D02*
X36680000Y-4865714D01*
X36680000Y-4960952D02*
X36727619Y-4913333D01*
X36822857Y-4865714D01*
X36965714Y-4865714D01*
X37060952Y-4913333D01*
X37108571Y-5008571D01*
X37108571Y-5532380D01*
X37108571Y-5008571D02*
X37156190Y-4913333D01*
X37251428Y-4865714D01*
X37394285Y-4865714D01*
X37489523Y-4913333D01*
X37537142Y-5008571D01*
X37537142Y-5532380D01*
X38441904Y-5532380D02*
X38441904Y-5008571D01*
X38394285Y-4913333D01*
X38299047Y-4865714D01*
X38108571Y-4865714D01*
X38013333Y-4913333D01*
X38441904Y-5484761D02*
X38346666Y-5532380D01*
X38108571Y-5532380D01*
X38013333Y-5484761D01*
X37965714Y-5389523D01*
X37965714Y-5294285D01*
X38013333Y-5199047D01*
X38108571Y-5151428D01*
X38346666Y-5151428D01*
X38441904Y-5103809D01*
X38822857Y-5532380D02*
X39346666Y-4865714D01*
X38822857Y-4865714D02*
X39346666Y-5532380D01*
X39727619Y-5532380D02*
X39727619Y-4865714D01*
X39727619Y-4532380D02*
X39680000Y-4580000D01*
X39727619Y-4627619D01*
X39775238Y-4580000D01*
X39727619Y-4532380D01*
X39727619Y-4627619D01*
X40203809Y-5532380D02*
X40203809Y-4865714D01*
X40203809Y-4960952D02*
X40251428Y-4913333D01*
X40346666Y-4865714D01*
X40489523Y-4865714D01*
X40584761Y-4913333D01*
X40632380Y-5008571D01*
X40632380Y-5532380D01*
X40632380Y-5008571D02*
X40680000Y-4913333D01*
X40775238Y-4865714D01*
X40918095Y-4865714D01*
X41013333Y-4913333D01*
X41060952Y-5008571D01*
X41060952Y-5532380D01*
X41965714Y-4865714D02*
X41965714Y-5532380D01*
X41537142Y-4865714D02*
X41537142Y-5389523D01*
X41584761Y-5484761D01*
X41680000Y-5532380D01*
X41822857Y-5532380D01*
X41918095Y-5484761D01*
X41965714Y-5437142D01*
X42441904Y-5532380D02*
X42441904Y-4865714D01*
X42441904Y-4960952D02*
X42489523Y-4913333D01*
X42584761Y-4865714D01*
X42727619Y-4865714D01*
X42822857Y-4913333D01*
X42870476Y-5008571D01*
X42870476Y-5532380D01*
X42870476Y-5008571D02*
X42918095Y-4913333D01*
X43013333Y-4865714D01*
X43156190Y-4865714D01*
X43251428Y-4913333D01*
X43299047Y-5008571D01*
X43299047Y-5532380D01*
X44537142Y-5532380D02*
X44537142Y-4865714D01*
X44537142Y-5056190D02*
X44584761Y-4960952D01*
X44632380Y-4913333D01*
X44727619Y-4865714D01*
X44822857Y-4865714D01*
X45584761Y-5532380D02*
X45584761Y-5008571D01*
X45537142Y-4913333D01*
X45441904Y-4865714D01*
X45251428Y-4865714D01*
X45156190Y-4913333D01*
X45584761Y-5484761D02*
X45489523Y-5532380D01*
X45251428Y-5532380D01*
X45156190Y-5484761D01*
X45108571Y-5389523D01*
X45108571Y-5294285D01*
X45156190Y-5199047D01*
X45251428Y-5151428D01*
X45489523Y-5151428D01*
X45584761Y-5103809D01*
X45918095Y-4865714D02*
X46299047Y-4865714D01*
X46060952Y-4532380D02*
X46060952Y-5389523D01*
X46108571Y-5484761D01*
X46203809Y-5532380D01*
X46299047Y-5532380D01*
X46632380Y-5532380D02*
X46632380Y-4865714D01*
X46632380Y-4532380D02*
X46584761Y-4580000D01*
X46632380Y-4627619D01*
X46680000Y-4580000D01*
X46632380Y-4532380D01*
X46632380Y-4627619D01*
X47108571Y-4865714D02*
X47108571Y-5532380D01*
X47108571Y-4960952D02*
X47156190Y-4913333D01*
X47251428Y-4865714D01*
X47394285Y-4865714D01*
X47489523Y-4913333D01*
X47537142Y-5008571D01*
X47537142Y-5532380D01*
X48441904Y-4865714D02*
X48441904Y-5675238D01*
X48394285Y-5770476D01*
X48346666Y-5818095D01*
X48251428Y-5865714D01*
X48108571Y-5865714D01*
X48013333Y-5818095D01*
X48441904Y-5484761D02*
X48346666Y-5532380D01*
X48156190Y-5532380D01*
X48060952Y-5484761D01*
X48013333Y-5437142D01*
X47965714Y-5341904D01*
X47965714Y-5056190D01*
X48013333Y-4960952D01*
X48060952Y-4913333D01*
X48156190Y-4865714D01*
X48346666Y-4865714D01*
X48441904Y-4913333D01*
X48870476Y-5484761D02*
X48965714Y-5532380D01*
X49156190Y-5532380D01*
X49251428Y-5484761D01*
X49299047Y-5389523D01*
X49299047Y-5341904D01*
X49251428Y-5246666D01*
X49156190Y-5199047D01*
X49013333Y-5199047D01*
X48918095Y-5151428D01*
X48870476Y-5056190D01*
X48870476Y-5008571D01*
X48918095Y-4913333D01*
X49013333Y-4865714D01*
X49156190Y-4865714D01*
X49251428Y-4913333D01*
X49727619Y-5437142D02*
X49775238Y-5484761D01*
X49727619Y-5532380D01*
X49680000Y-5484761D01*
X49727619Y-5437142D01*
X49727619Y-5532380D01*
X49727619Y-4913333D02*
X49775238Y-4960952D01*
X49727619Y-5008571D01*
X49680000Y-4960952D01*
X49727619Y-4913333D01*
X49727619Y-5008571D01*
X51489523Y-5532380D02*
X50918095Y-5532380D01*
X51203809Y-5532380D02*
X51203809Y-4532380D01*
X51108571Y-4675238D01*
X51013333Y-4770476D01*
X50918095Y-4818095D01*
X51870476Y-4627619D02*
X51918095Y-4580000D01*
X52013333Y-4532380D01*
X52251428Y-4532380D01*
X52346666Y-4580000D01*
X52394285Y-4627619D01*
X52441904Y-4722857D01*
X52441904Y-4818095D01*
X52394285Y-4960952D01*
X51822857Y-5532380D01*
X52441904Y-5532380D01*
X52727619Y-4532380D02*
X53060952Y-5532380D01*
X53394285Y-4532380D01*
X55013333Y-5532380D02*
X54441904Y-5532380D01*
X54727619Y-5532380D02*
X54727619Y-4532380D01*
X54632380Y-4675238D01*
X54537142Y-4770476D01*
X54441904Y-4818095D01*
X55632380Y-4532380D02*
X55727619Y-4532380D01*
X55822857Y-4580000D01*
X55870476Y-4627619D01*
X55918095Y-4722857D01*
X55965714Y-4913333D01*
X55965714Y-5151428D01*
X55918095Y-5341904D01*
X55870476Y-5437142D01*
X55822857Y-5484761D01*
X55727619Y-5532380D01*
X55632380Y-5532380D01*
X55537142Y-5484761D01*
X55489523Y-5437142D01*
X55441904Y-5341904D01*
X55394285Y-5151428D01*
X55394285Y-4913333D01*
X55441904Y-4722857D01*
X55489523Y-4627619D01*
X55537142Y-4580000D01*
X55632380Y-4532380D01*
X56346666Y-5246666D02*
X56822857Y-5246666D01*
X56251428Y-5532380D02*
X56584761Y-4532380D01*
X56918095Y-5532380D01*
D11*
X29609142Y-2213428D02*
X30480000Y-2213428D01*
X30044571Y-3737428D02*
X30044571Y-2213428D01*
X30988000Y-3737428D02*
X30988000Y-2721428D01*
X30988000Y-3011714D02*
X31060571Y-2866571D01*
X31133142Y-2794000D01*
X31278285Y-2721428D01*
X31423428Y-2721428D01*
X32584571Y-3737428D02*
X32584571Y-2939142D01*
X32512000Y-2794000D01*
X32366857Y-2721428D01*
X32076571Y-2721428D01*
X31931428Y-2794000D01*
X32584571Y-3664857D02*
X32439428Y-3737428D01*
X32076571Y-3737428D01*
X31931428Y-3664857D01*
X31858857Y-3519714D01*
X31858857Y-3374571D01*
X31931428Y-3229428D01*
X32076571Y-3156857D01*
X32439428Y-3156857D01*
X32584571Y-3084285D01*
X33310285Y-2721428D02*
X33310285Y-3737428D01*
X33310285Y-2866571D02*
X33382857Y-2794000D01*
X33528000Y-2721428D01*
X33745714Y-2721428D01*
X33890857Y-2794000D01*
X33963428Y-2939142D01*
X33963428Y-3737428D01*
X34616571Y-3664857D02*
X34761714Y-3737428D01*
X35052000Y-3737428D01*
X35197142Y-3664857D01*
X35269714Y-3519714D01*
X35269714Y-3447142D01*
X35197142Y-3302000D01*
X35052000Y-3229428D01*
X34834285Y-3229428D01*
X34689142Y-3156857D01*
X34616571Y-3011714D01*
X34616571Y-2939142D01*
X34689142Y-2794000D01*
X34834285Y-2721428D01*
X35052000Y-2721428D01*
X35197142Y-2794000D01*
X35922857Y-3737428D02*
X35922857Y-2721428D01*
X35922857Y-2213428D02*
X35850285Y-2286000D01*
X35922857Y-2358571D01*
X35995428Y-2286000D01*
X35922857Y-2213428D01*
X35922857Y-2358571D01*
X37229142Y-3664857D02*
X37084000Y-3737428D01*
X36793714Y-3737428D01*
X36648571Y-3664857D01*
X36576000Y-3519714D01*
X36576000Y-2939142D01*
X36648571Y-2794000D01*
X36793714Y-2721428D01*
X37084000Y-2721428D01*
X37229142Y-2794000D01*
X37301714Y-2939142D01*
X37301714Y-3084285D01*
X36576000Y-3229428D01*
X37954857Y-2721428D02*
X37954857Y-3737428D01*
X37954857Y-2866571D02*
X38027428Y-2794000D01*
X38172571Y-2721428D01*
X38390285Y-2721428D01*
X38535428Y-2794000D01*
X38608000Y-2939142D01*
X38608000Y-3737428D01*
X39116000Y-2721428D02*
X39696571Y-2721428D01*
X39333714Y-2213428D02*
X39333714Y-3519714D01*
X39406285Y-3664857D01*
X39551428Y-3737428D01*
X39696571Y-3737428D01*
X41365714Y-3737428D02*
X41365714Y-2213428D01*
X41728571Y-2213428D01*
X41946285Y-2286000D01*
X42091428Y-2431142D01*
X42164000Y-2576285D01*
X42236571Y-2866571D01*
X42236571Y-3084285D01*
X42164000Y-3374571D01*
X42091428Y-3519714D01*
X41946285Y-3664857D01*
X41728571Y-3737428D01*
X41365714Y-3737428D01*
X43760571Y-3592285D02*
X43688000Y-3664857D01*
X43470285Y-3737428D01*
X43325142Y-3737428D01*
X43107428Y-3664857D01*
X42962285Y-3519714D01*
X42889714Y-3374571D01*
X42817142Y-3084285D01*
X42817142Y-2866571D01*
X42889714Y-2576285D01*
X42962285Y-2431142D01*
X43107428Y-2286000D01*
X43325142Y-2213428D01*
X43470285Y-2213428D01*
X43688000Y-2286000D01*
X43760571Y-2358571D01*
X45574857Y-3737428D02*
X45574857Y-2213428D01*
X46155428Y-2213428D01*
X46300571Y-2286000D01*
X46373142Y-2358571D01*
X46445714Y-2503714D01*
X46445714Y-2721428D01*
X46373142Y-2866571D01*
X46300571Y-2939142D01*
X46155428Y-3011714D01*
X45574857Y-3011714D01*
X47098857Y-3737428D02*
X47098857Y-2721428D01*
X47098857Y-3011714D02*
X47171428Y-2866571D01*
X47244000Y-2794000D01*
X47389142Y-2721428D01*
X47534285Y-2721428D01*
X48260000Y-3737428D02*
X48114857Y-3664857D01*
X48042285Y-3592285D01*
X47969714Y-3447142D01*
X47969714Y-3011714D01*
X48042285Y-2866571D01*
X48114857Y-2794000D01*
X48260000Y-2721428D01*
X48477714Y-2721428D01*
X48622857Y-2794000D01*
X48695428Y-2866571D01*
X48768000Y-3011714D01*
X48768000Y-3447142D01*
X48695428Y-3592285D01*
X48622857Y-3664857D01*
X48477714Y-3737428D01*
X48260000Y-3737428D01*
X49203428Y-2721428D02*
X49784000Y-2721428D01*
X49421142Y-2213428D02*
X49421142Y-3519714D01*
X49493714Y-3664857D01*
X49638857Y-3737428D01*
X49784000Y-3737428D01*
X50872571Y-3664857D02*
X50727428Y-3737428D01*
X50437142Y-3737428D01*
X50291999Y-3664857D01*
X50219428Y-3519714D01*
X50219428Y-2939142D01*
X50291999Y-2794000D01*
X50437142Y-2721428D01*
X50727428Y-2721428D01*
X50872571Y-2794000D01*
X50945142Y-2939142D01*
X50945142Y-3084285D01*
X50219428Y-3229428D01*
X52251428Y-3664857D02*
X52106285Y-3737428D01*
X51815999Y-3737428D01*
X51670857Y-3664857D01*
X51598285Y-3592285D01*
X51525714Y-3447142D01*
X51525714Y-3011714D01*
X51598285Y-2866571D01*
X51670857Y-2794000D01*
X51815999Y-2721428D01*
X52106285Y-2721428D01*
X52251428Y-2794000D01*
X52686857Y-2721428D02*
X53267428Y-2721428D01*
X52904571Y-2213428D02*
X52904571Y-3519714D01*
X52977142Y-3664857D01*
X53122285Y-3737428D01*
X53267428Y-3737428D01*
X53775428Y-3737428D02*
X53775428Y-2721428D01*
X53775428Y-2213428D02*
X53702857Y-2286000D01*
X53775428Y-2358571D01*
X53847999Y-2286000D01*
X53775428Y-2213428D01*
X53775428Y-2358571D01*
X54718857Y-3737428D02*
X54573714Y-3664857D01*
X54501142Y-3592285D01*
X54428571Y-3447142D01*
X54428571Y-3011714D01*
X54501142Y-2866571D01*
X54573714Y-2794000D01*
X54718857Y-2721428D01*
X54936571Y-2721428D01*
X55081714Y-2794000D01*
X55154285Y-2866571D01*
X55226857Y-3011714D01*
X55226857Y-3447142D01*
X55154285Y-3592285D01*
X55081714Y-3664857D01*
X54936571Y-3737428D01*
X54718857Y-3737428D01*
X55879999Y-2721428D02*
X55879999Y-3737428D01*
X55879999Y-2866571D02*
X55952571Y-2794000D01*
X56097714Y-2721428D01*
X56315428Y-2721428D01*
X56460571Y-2794000D01*
X56533142Y-2939142D01*
X56533142Y-3737428D01*
D12*
X33909000Y-21717000D02*
G75*
G03*
X33909000Y-21717000I-254000J0D01*
G01*
X50673000Y-21717000D02*
G75*
G03*
X50673000Y-21717000I-254000J0D01*
G01*
D13*
X87581619Y-21336000D02*
X87581619Y-21142476D01*
X87630000Y-21045714D01*
X87726761Y-20948952D01*
X87920285Y-20900571D01*
X88258952Y-20900571D01*
X88452476Y-20948952D01*
X88549238Y-21045714D01*
X88597619Y-21142476D01*
X88597619Y-21336000D01*
X88549238Y-21432761D01*
X88452476Y-21529523D01*
X88258952Y-21577904D01*
X87920285Y-21577904D01*
X87726761Y-21529523D01*
X87630000Y-21432761D01*
X87581619Y-21336000D01*
X87581619Y-20465142D02*
X88404095Y-20465142D01*
X88500857Y-20416761D01*
X88549238Y-20368380D01*
X88597619Y-20271619D01*
X88597619Y-20078095D01*
X88549238Y-19981333D01*
X88500857Y-19932952D01*
X88404095Y-19884571D01*
X87581619Y-19884571D01*
X87581619Y-19545904D02*
X87581619Y-18965333D01*
X88597619Y-19255619D02*
X87581619Y-19255619D01*
D14*
X88283142Y-26174095D02*
X88283142Y-24625904D01*
X88283142Y-16014095D02*
X88283142Y-14465904D01*
X89057238Y-15240000D02*
X87509047Y-15240000D01*
D13*
X1064380Y-12929809D02*
X2080380Y-12929809D01*
X1064380Y-13413619D02*
X2080380Y-13413619D01*
X1064380Y-13994190D01*
X2080380Y-13994190D01*
D14*
X1378857Y-10147904D02*
X1378857Y-11696095D01*
X749904Y-16147142D02*
X2298095Y-16147142D01*
X1524000Y-16921238D02*
X1524000Y-15373047D01*
D10*
%TO.C,L1*%
X23622000Y-10414000D02*
G75*
G03*
X23622000Y-10414000I-254000J0D01*
G01*
X23932000Y-10862000D02*
X23932000Y-10462000D01*
X30932000Y-10862000D02*
X30932000Y-10462000D01*
X30932000Y-16462000D02*
X30932000Y-16062000D01*
X23932000Y-16462000D02*
X23932000Y-16062000D01*
X23932000Y-10462000D02*
X30932000Y-10462000D01*
X30932000Y-12812000D02*
X30932000Y-14112000D01*
X30932000Y-16462000D02*
X23932000Y-16462000D01*
X23932000Y-14112000D02*
X23932000Y-12812000D01*
%TO.C,J2*%
X81280000Y-28702000D02*
X81280000Y-22098000D01*
X81280000Y-22098000D02*
X86868000Y-22098000D01*
X86868000Y-22098000D02*
X86868000Y-28702000D01*
X86868000Y-28702000D02*
X81280000Y-28702000D01*
X81280000Y-18542000D02*
X86868000Y-18542000D01*
X86868000Y-18542000D02*
X86868000Y-11938000D01*
X86868000Y-11938000D02*
X81280000Y-11938000D01*
X81280000Y-11938000D02*
X81280000Y-18542000D01*
D12*
%TO.C,C1*%
X31523000Y-19550748D02*
X31523000Y-20073252D01*
X32993000Y-19550748D02*
X32993000Y-20073252D01*
%TO.C,C2*%
X39597000Y-19550748D02*
X39597000Y-20073252D01*
X38127000Y-19550748D02*
X38127000Y-20073252D01*
%TO.C,C3*%
X79268000Y-13422000D02*
G75*
G03*
X79268000Y-13422000I-6370000J0D01*
G01*
X79228000Y-13422000D02*
X66568000Y-13422000D01*
X79228000Y-13462000D02*
X66568000Y-13462000D01*
X79228000Y-13502000D02*
X66568000Y-13502000D01*
X79227000Y-13542000D02*
X66569000Y-13542000D01*
X79226000Y-13582000D02*
X66570000Y-13582000D01*
X79225000Y-13622000D02*
X66571000Y-13622000D01*
X79224000Y-13662000D02*
X66572000Y-13662000D01*
X79222000Y-13702000D02*
X66574000Y-13702000D01*
X79220000Y-13742000D02*
X66576000Y-13742000D01*
X79218000Y-13782000D02*
X66578000Y-13782000D01*
X79216000Y-13822000D02*
X66580000Y-13822000D01*
X79213000Y-13862000D02*
X66583000Y-13862000D01*
X79210000Y-13902000D02*
X66586000Y-13902000D01*
X79207000Y-13942000D02*
X66589000Y-13942000D01*
X79204000Y-13982000D02*
X66592000Y-13982000D01*
X79200000Y-14022000D02*
X66596000Y-14022000D01*
X79196000Y-14062000D02*
X66600000Y-14062000D01*
X79192000Y-14102000D02*
X66604000Y-14102000D01*
X79188000Y-14143000D02*
X66608000Y-14143000D01*
X79183000Y-14183000D02*
X66613000Y-14183000D01*
X79178000Y-14223000D02*
X66618000Y-14223000D01*
X79173000Y-14263000D02*
X66623000Y-14263000D01*
X79167000Y-14303000D02*
X66629000Y-14303000D01*
X79162000Y-14343000D02*
X66634000Y-14343000D01*
X79156000Y-14383000D02*
X66640000Y-14383000D01*
X79150000Y-14423000D02*
X66646000Y-14423000D01*
X79143000Y-14463000D02*
X66653000Y-14463000D01*
X79136000Y-14503000D02*
X74338000Y-14503000D01*
X71458000Y-14503000D02*
X66660000Y-14503000D01*
X79129000Y-14543000D02*
X74338000Y-14543000D01*
X71458000Y-14543000D02*
X66667000Y-14543000D01*
X79122000Y-14583000D02*
X74338000Y-14583000D01*
X71458000Y-14583000D02*
X66674000Y-14583000D01*
X79114000Y-14623000D02*
X74338000Y-14623000D01*
X71458000Y-14623000D02*
X66682000Y-14623000D01*
X79107000Y-14663000D02*
X74338000Y-14663000D01*
X71458000Y-14663000D02*
X66689000Y-14663000D01*
X79099000Y-14703000D02*
X74338000Y-14703000D01*
X71458000Y-14703000D02*
X66697000Y-14703000D01*
X79090000Y-14743000D02*
X74338000Y-14743000D01*
X71458000Y-14743000D02*
X66706000Y-14743000D01*
X79082000Y-14783000D02*
X74338000Y-14783000D01*
X71458000Y-14783000D02*
X66714000Y-14783000D01*
X79073000Y-14823000D02*
X74338000Y-14823000D01*
X71458000Y-14823000D02*
X66723000Y-14823000D01*
X79064000Y-14863000D02*
X74338000Y-14863000D01*
X71458000Y-14863000D02*
X66732000Y-14863000D01*
X79054000Y-14903000D02*
X74338000Y-14903000D01*
X71458000Y-14903000D02*
X66742000Y-14903000D01*
X79044000Y-14943000D02*
X74338000Y-14943000D01*
X71458000Y-14943000D02*
X66752000Y-14943000D01*
X79035000Y-14983000D02*
X74338000Y-14983000D01*
X71458000Y-14983000D02*
X66761000Y-14983000D01*
X79024000Y-15023000D02*
X74338000Y-15023000D01*
X71458000Y-15023000D02*
X66772000Y-15023000D01*
X79014000Y-15063000D02*
X74338000Y-15063000D01*
X71458000Y-15063000D02*
X66782000Y-15063000D01*
X79003000Y-15103000D02*
X74338000Y-15103000D01*
X71458000Y-15103000D02*
X66793000Y-15103000D01*
X78992000Y-15143000D02*
X74338000Y-15143000D01*
X71458000Y-15143000D02*
X66804000Y-15143000D01*
X78981000Y-15183000D02*
X74338000Y-15183000D01*
X71458000Y-15183000D02*
X66815000Y-15183000D01*
X78969000Y-15223000D02*
X74338000Y-15223000D01*
X71458000Y-15223000D02*
X66827000Y-15223000D01*
X78957000Y-15263000D02*
X74338000Y-15263000D01*
X71458000Y-15263000D02*
X66839000Y-15263000D01*
X78945000Y-15303000D02*
X74338000Y-15303000D01*
X71458000Y-15303000D02*
X66851000Y-15303000D01*
X78932000Y-15343000D02*
X74338000Y-15343000D01*
X71458000Y-15343000D02*
X66864000Y-15343000D01*
X78919000Y-15383000D02*
X74338000Y-15383000D01*
X71458000Y-15383000D02*
X66877000Y-15383000D01*
X78906000Y-15423000D02*
X74338000Y-15423000D01*
X71458000Y-15423000D02*
X66890000Y-15423000D01*
X78893000Y-15463000D02*
X74338000Y-15463000D01*
X71458000Y-15463000D02*
X66903000Y-15463000D01*
X78879000Y-15503000D02*
X74338000Y-15503000D01*
X71458000Y-15503000D02*
X66917000Y-15503000D01*
X78865000Y-15543000D02*
X74338000Y-15543000D01*
X71458000Y-15543000D02*
X66931000Y-15543000D01*
X78851000Y-15583000D02*
X74338000Y-15583000D01*
X71458000Y-15583000D02*
X66945000Y-15583000D01*
X78837000Y-15623000D02*
X74338000Y-15623000D01*
X71458000Y-15623000D02*
X66959000Y-15623000D01*
X78822000Y-15663000D02*
X74338000Y-15663000D01*
X71458000Y-15663000D02*
X66974000Y-15663000D01*
X78806000Y-15703000D02*
X74338000Y-15703000D01*
X71458000Y-15703000D02*
X66990000Y-15703000D01*
X78791000Y-15743000D02*
X74338000Y-15743000D01*
X71458000Y-15743000D02*
X67005000Y-15743000D01*
X78775000Y-15783000D02*
X74338000Y-15783000D01*
X71458000Y-15783000D02*
X67021000Y-15783000D01*
X78759000Y-15823000D02*
X74338000Y-15823000D01*
X71458000Y-15823000D02*
X67037000Y-15823000D01*
X78743000Y-15863000D02*
X74338000Y-15863000D01*
X71458000Y-15863000D02*
X67053000Y-15863000D01*
X78726000Y-15903000D02*
X74338000Y-15903000D01*
X71458000Y-15903000D02*
X67070000Y-15903000D01*
X78709000Y-15943000D02*
X74338000Y-15943000D01*
X71458000Y-15943000D02*
X67087000Y-15943000D01*
X78691000Y-15983000D02*
X74338000Y-15983000D01*
X71458000Y-15983000D02*
X67105000Y-15983000D01*
X78674000Y-16023000D02*
X74338000Y-16023000D01*
X71458000Y-16023000D02*
X67122000Y-16023000D01*
X78656000Y-16063000D02*
X74338000Y-16063000D01*
X71458000Y-16063000D02*
X67140000Y-16063000D01*
X78637000Y-16103000D02*
X74338000Y-16103000D01*
X71458000Y-16103000D02*
X67159000Y-16103000D01*
X78619000Y-16143000D02*
X74338000Y-16143000D01*
X71458000Y-16143000D02*
X67177000Y-16143000D01*
X78600000Y-16183000D02*
X74338000Y-16183000D01*
X71458000Y-16183000D02*
X67196000Y-16183000D01*
X78580000Y-16223000D02*
X74338000Y-16223000D01*
X71458000Y-16223000D02*
X67216000Y-16223000D01*
X78560000Y-16263000D02*
X74338000Y-16263000D01*
X71458000Y-16263000D02*
X67236000Y-16263000D01*
X78540000Y-16303000D02*
X74338000Y-16303000D01*
X71458000Y-16303000D02*
X67256000Y-16303000D01*
X78520000Y-16343000D02*
X74338000Y-16343000D01*
X71458000Y-16343000D02*
X67276000Y-16343000D01*
X78499000Y-16383000D02*
X74338000Y-16383000D01*
X71458000Y-16383000D02*
X67297000Y-16383000D01*
X78478000Y-16423000D02*
X74338000Y-16423000D01*
X71458000Y-16423000D02*
X67318000Y-16423000D01*
X78456000Y-16463000D02*
X74338000Y-16463000D01*
X71458000Y-16463000D02*
X67340000Y-16463000D01*
X78434000Y-16503000D02*
X74338000Y-16503000D01*
X71458000Y-16503000D02*
X67362000Y-16503000D01*
X78412000Y-16543000D02*
X74338000Y-16543000D01*
X71458000Y-16543000D02*
X67384000Y-16543000D01*
X78389000Y-16583000D02*
X74338000Y-16583000D01*
X71458000Y-16583000D02*
X67407000Y-16583000D01*
X78366000Y-16623000D02*
X74338000Y-16623000D01*
X71458000Y-16623000D02*
X67430000Y-16623000D01*
X78343000Y-16663000D02*
X74338000Y-16663000D01*
X71458000Y-16663000D02*
X67453000Y-16663000D01*
X78319000Y-16703000D02*
X74338000Y-16703000D01*
X71458000Y-16703000D02*
X67477000Y-16703000D01*
X78295000Y-16743000D02*
X74338000Y-16743000D01*
X71458000Y-16743000D02*
X67501000Y-16743000D01*
X78270000Y-16783000D02*
X74338000Y-16783000D01*
X71458000Y-16783000D02*
X67526000Y-16783000D01*
X78245000Y-16823000D02*
X74338000Y-16823000D01*
X71458000Y-16823000D02*
X67551000Y-16823000D01*
X78220000Y-16863000D02*
X74338000Y-16863000D01*
X71458000Y-16863000D02*
X67576000Y-16863000D01*
X78194000Y-16903000D02*
X74338000Y-16903000D01*
X71458000Y-16903000D02*
X67602000Y-16903000D01*
X78168000Y-16943000D02*
X74338000Y-16943000D01*
X71458000Y-16943000D02*
X67628000Y-16943000D01*
X78141000Y-16983000D02*
X74338000Y-16983000D01*
X71458000Y-16983000D02*
X67655000Y-16983000D01*
X78114000Y-17023000D02*
X74338000Y-17023000D01*
X71458000Y-17023000D02*
X67682000Y-17023000D01*
X78086000Y-17063000D02*
X74338000Y-17063000D01*
X71458000Y-17063000D02*
X67710000Y-17063000D01*
X78058000Y-17103000D02*
X74338000Y-17103000D01*
X71458000Y-17103000D02*
X67738000Y-17103000D01*
X78029000Y-17143000D02*
X74338000Y-17143000D01*
X71458000Y-17143000D02*
X67767000Y-17143000D01*
X78000000Y-17183000D02*
X74338000Y-17183000D01*
X71458000Y-17183000D02*
X67796000Y-17183000D01*
X77971000Y-17223000D02*
X74338000Y-17223000D01*
X71458000Y-17223000D02*
X67825000Y-17223000D01*
X77941000Y-17263000D02*
X74338000Y-17263000D01*
X71458000Y-17263000D02*
X67855000Y-17263000D01*
X77910000Y-17303000D02*
X74338000Y-17303000D01*
X71458000Y-17303000D02*
X67886000Y-17303000D01*
X77880000Y-17343000D02*
X74338000Y-17343000D01*
X71458000Y-17343000D02*
X67916000Y-17343000D01*
X77848000Y-17383000D02*
X67948000Y-17383000D01*
X77816000Y-17423000D02*
X67980000Y-17423000D01*
X77783000Y-17463000D02*
X68013000Y-17463000D01*
X77750000Y-17503000D02*
X68046000Y-17503000D01*
X77717000Y-17543000D02*
X68079000Y-17543000D01*
X77683000Y-17583000D02*
X68113000Y-17583000D01*
X77648000Y-17623000D02*
X68148000Y-17623000D01*
X77612000Y-17663000D02*
X68184000Y-17663000D01*
X77576000Y-17703000D02*
X68220000Y-17703000D01*
X77540000Y-17743000D02*
X68256000Y-17743000D01*
X77503000Y-17783000D02*
X68293000Y-17783000D01*
X77465000Y-17823000D02*
X68331000Y-17823000D01*
X77426000Y-17863000D02*
X68370000Y-17863000D01*
X77387000Y-17903000D02*
X68409000Y-17903000D01*
X77347000Y-17943000D02*
X68449000Y-17943000D01*
X77306000Y-17983000D02*
X68490000Y-17983000D01*
X77265000Y-18023000D02*
X68531000Y-18023000D01*
X77223000Y-18063000D02*
X68573000Y-18063000D01*
X77180000Y-18103000D02*
X68616000Y-18103000D01*
X77136000Y-18143000D02*
X68660000Y-18143000D01*
X77092000Y-18183000D02*
X68704000Y-18183000D01*
X77046000Y-18223000D02*
X68750000Y-18223000D01*
X77000000Y-18263000D02*
X68796000Y-18263000D01*
X76953000Y-18303000D02*
X68843000Y-18303000D01*
X76905000Y-18343000D02*
X68891000Y-18343000D01*
X76855000Y-18383000D02*
X68941000Y-18383000D01*
X76805000Y-18423000D02*
X68991000Y-18423000D01*
X76754000Y-18463000D02*
X69042000Y-18463000D01*
X76702000Y-18503000D02*
X69094000Y-18503000D01*
X76648000Y-18543000D02*
X69148000Y-18543000D01*
X76594000Y-18583000D02*
X69202000Y-18583000D01*
X76538000Y-18623000D02*
X69258000Y-18623000D01*
X76481000Y-18663000D02*
X69315000Y-18663000D01*
X76422000Y-18703000D02*
X69374000Y-18703000D01*
X76362000Y-18743000D02*
X69434000Y-18743000D01*
X76300000Y-18783000D02*
X69496000Y-18783000D01*
X76237000Y-18823000D02*
X69559000Y-18823000D01*
X76173000Y-18863000D02*
X69623000Y-18863000D01*
X76106000Y-18903000D02*
X69690000Y-18903000D01*
X76038000Y-18943000D02*
X69758000Y-18943000D01*
X75967000Y-18983000D02*
X69829000Y-18983000D01*
X75894000Y-19023000D02*
X69902000Y-19023000D01*
X75819000Y-19063000D02*
X69977000Y-19063000D01*
X75742000Y-19103000D02*
X70054000Y-19103000D01*
X75662000Y-19143000D02*
X70134000Y-19143000D01*
X75579000Y-19183000D02*
X70217000Y-19183000D01*
X75492000Y-19223000D02*
X70304000Y-19223000D01*
X75402000Y-19263000D02*
X70394000Y-19263000D01*
X75308000Y-19303000D02*
X70488000Y-19303000D01*
X75210000Y-19343000D02*
X70586000Y-19343000D01*
X75107000Y-19383000D02*
X70689000Y-19383000D01*
X74998000Y-19423000D02*
X70798000Y-19423000D01*
X74882000Y-19463000D02*
X70914000Y-19463000D01*
X74759000Y-19503000D02*
X71037000Y-19503000D01*
X74626000Y-19543000D02*
X71170000Y-19543000D01*
X74481000Y-19583000D02*
X71315000Y-19583000D01*
X74320000Y-19623000D02*
X71476000Y-19623000D01*
X74139000Y-19663000D02*
X71657000Y-19663000D01*
X73926000Y-19703000D02*
X71870000Y-19703000D01*
X73655000Y-19743000D02*
X72141000Y-19743000D01*
X73215000Y-19783000D02*
X72581000Y-19783000D01*
X76473000Y-6604918D02*
X76473000Y-7854918D01*
X77098000Y-7229918D02*
X75848000Y-7229918D01*
%TO.C,C4*%
X37076748Y-22379000D02*
X37599252Y-22379000D01*
X37076748Y-23849000D02*
X37599252Y-23849000D01*
%TO.C,C5*%
X48287000Y-19550748D02*
X48287000Y-20073252D01*
X49757000Y-19550748D02*
X49757000Y-20073252D01*
%TO.C,C6*%
X56361000Y-19550748D02*
X56361000Y-20073252D01*
X54891000Y-19550748D02*
X54891000Y-20073252D01*
%TO.C,C7*%
X53840748Y-23849000D02*
X54363252Y-23849000D01*
X53840748Y-22379000D02*
X54363252Y-22379000D01*
%TO.C,D1*%
X15376000Y-17012000D02*
X19676000Y-17012000D01*
X19676000Y-17012000D02*
X19676000Y-11312000D01*
X15376000Y-17012000D02*
X15376000Y-11312000D01*
%TO.C,D2*%
X12156000Y-23816000D02*
X12156000Y-27676000D01*
X15276000Y-23816000D02*
X15276000Y-27676000D01*
X12156000Y-23816000D02*
X15276000Y-23816000D01*
X15676000Y-23816000D02*
X15676000Y-24936000D01*
X15676000Y-24936000D02*
X15276000Y-24936000D01*
X15276000Y-24936000D02*
X15276000Y-23816000D01*
X15276000Y-23816000D02*
X15676000Y-23816000D01*
X12446000Y-23686000D02*
X12446000Y-23816000D01*
X12446000Y-23816000D02*
X12446000Y-23816000D01*
X12446000Y-23816000D02*
X12446000Y-23686000D01*
X12446000Y-23686000D02*
X12446000Y-23686000D01*
X14986000Y-23686000D02*
X14986000Y-23816000D01*
X14986000Y-23816000D02*
X14986000Y-23816000D01*
X14986000Y-23816000D02*
X14986000Y-23686000D01*
X14986000Y-23686000D02*
X14986000Y-23686000D01*
X15276000Y-27676000D02*
G75*
G02*
X12156000Y-27676000I-1560000J0D01*
G01*
%TO.C,J1*%
X10562000Y-10922000D02*
G75*
G03*
X10562000Y-10922000I-2180000J0D01*
G01*
X10562000Y-16002000D02*
G75*
G03*
X10562000Y-16002000I-2180000J0D01*
G01*
X3582000Y-8322000D02*
X3582000Y-18602000D01*
X6082000Y-8322000D02*
X6082000Y-18602000D01*
X12282000Y-8322000D02*
X12282000Y-18602000D01*
X14342000Y-8322000D02*
X14342000Y-18602000D01*
X3022000Y-8322000D02*
X3022000Y-18602000D01*
X14342000Y-8322000D02*
X3022000Y-8322000D01*
X14342000Y-18602000D02*
X3022000Y-18602000D01*
X9770000Y-12576000D02*
X9663000Y-12469000D01*
X6835000Y-9640000D02*
X6728000Y-9534000D01*
X10036000Y-12310000D02*
X9929000Y-12203000D01*
X7101000Y-9374000D02*
X6994000Y-9268000D01*
X9770000Y-17656000D02*
X9374000Y-17261000D01*
X7108000Y-14995000D02*
X6728000Y-14615000D01*
X10036000Y-17390000D02*
X9656000Y-17010000D01*
X7390000Y-14744000D02*
X6994000Y-14349000D01*
X3522000Y-8082000D02*
X2782000Y-8082000D01*
X2782000Y-8082000D02*
X2782000Y-8582000D01*
%TO.C,R1*%
X29237000Y-19584936D02*
X29237000Y-20039064D01*
X30707000Y-19584936D02*
X30707000Y-20039064D01*
%TO.C,R2*%
X37565064Y-26389000D02*
X37110936Y-26389000D01*
X37565064Y-24919000D02*
X37110936Y-24919000D01*
%TO.C,R3*%
X32792936Y-22379000D02*
X33247064Y-22379000D01*
X32792936Y-23849000D02*
X33247064Y-23849000D01*
%TO.C,R4*%
X29437064Y-23849000D02*
X28982936Y-23849000D01*
X29437064Y-22379000D02*
X28982936Y-22379000D01*
%TO.C,R5*%
X47471000Y-19584936D02*
X47471000Y-20039064D01*
X46001000Y-19584936D02*
X46001000Y-20039064D01*
%TO.C,R6*%
X54329064Y-24919000D02*
X53874936Y-24919000D01*
X54329064Y-26389000D02*
X53874936Y-26389000D01*
%TO.C,R7*%
X49556936Y-23849000D02*
X50011064Y-23849000D01*
X49556936Y-22379000D02*
X50011064Y-22379000D01*
D10*
%TO.C,RV1*%
X61358000Y-7402000D02*
X61358000Y-19402000D01*
X65258000Y-7402000D02*
X65258000Y-19402000D01*
X65258000Y-19402000D02*
X61358000Y-19402000D01*
X65258000Y-7402000D02*
X61358000Y-7402000D01*
D12*
%TO.C,SW1*%
X24712000Y-25700000D02*
X24712000Y-25470000D01*
X25232000Y-29370000D02*
X17512000Y-29370000D01*
X17512000Y-29370000D02*
X17512000Y-25470000D01*
X25232000Y-22360000D02*
X24712000Y-22360000D01*
X25232000Y-29370000D02*
X25232000Y-25470000D01*
X18032000Y-25700000D02*
X18032000Y-25470000D01*
X24712000Y-22870000D02*
X24712000Y-22360000D01*
X25232000Y-22870000D02*
X25232000Y-22360000D01*
X18572000Y-25700000D02*
X18032000Y-25700000D01*
X18032000Y-22870000D02*
X18032000Y-22360000D01*
X18032000Y-22360000D02*
X17512000Y-22360000D01*
X17512000Y-22870000D02*
X17512000Y-22360000D01*
X24712000Y-25700000D02*
X24172000Y-25700000D01*
X23072000Y-25700000D02*
X19672000Y-25700000D01*
%TO.C,SW2*%
X4018000Y-26120000D02*
X4018000Y-22720000D01*
X4018000Y-27760000D02*
X4018000Y-27220000D01*
X6848000Y-20560000D02*
X7358000Y-20560000D01*
X7358000Y-21080000D02*
X7358000Y-20560000D01*
X6848000Y-21080000D02*
X7358000Y-21080000D01*
X4018000Y-21620000D02*
X4018000Y-21080000D01*
X6848000Y-28280000D02*
X7358000Y-28280000D01*
X6848000Y-27760000D02*
X7358000Y-27760000D01*
X4018000Y-21080000D02*
X4248000Y-21080000D01*
X348000Y-28280000D02*
X4248000Y-28280000D01*
X7358000Y-28280000D02*
X7358000Y-27760000D01*
X348000Y-20560000D02*
X4248000Y-20560000D01*
X348000Y-28280000D02*
X348000Y-20560000D01*
X4018000Y-27760000D02*
X4248000Y-27760000D01*
%TO.C,U1*%
X37170000Y-20712000D02*
X37170000Y-18912000D01*
X33950000Y-18912000D02*
X33950000Y-21362000D01*
%TO.C,U2*%
X50714000Y-18912000D02*
X50714000Y-21362000D01*
X53934000Y-20712000D02*
X53934000Y-18912000D01*
%TO.C,L1*%
D13*
X24502533Y-10019695D02*
X24115485Y-10019695D01*
X24115485Y-9206895D01*
X25199219Y-10019695D02*
X24734761Y-10019695D01*
X24966990Y-10019695D02*
X24966990Y-9206895D01*
X24889580Y-9323009D01*
X24812171Y-9400419D01*
X24734761Y-9439123D01*
%TO.C,J2*%
X79818895Y-28210933D02*
X80399466Y-28210933D01*
X80515580Y-28249638D01*
X80592990Y-28327047D01*
X80631695Y-28443161D01*
X80631695Y-28520571D01*
X79896304Y-27862590D02*
X79857600Y-27823885D01*
X79818895Y-27746476D01*
X79818895Y-27552952D01*
X79857600Y-27475542D01*
X79896304Y-27436838D01*
X79973714Y-27398133D01*
X80051123Y-27398133D01*
X80167238Y-27436838D01*
X80631695Y-27901295D01*
X80631695Y-27398133D01*
%TO.C,C1*%
X32548285Y-17407466D02*
X32586990Y-17446171D01*
X32625695Y-17562285D01*
X32625695Y-17639695D01*
X32586990Y-17755809D01*
X32509580Y-17833219D01*
X32432171Y-17871923D01*
X32277352Y-17910628D01*
X32161238Y-17910628D01*
X32006419Y-17871923D01*
X31929009Y-17833219D01*
X31851600Y-17755809D01*
X31812895Y-17639695D01*
X31812895Y-17562285D01*
X31851600Y-17446171D01*
X31890304Y-17407466D01*
X32625695Y-16633371D02*
X32625695Y-17097828D01*
X32625695Y-16865600D02*
X31812895Y-16865600D01*
X31929009Y-16943009D01*
X32006419Y-17020419D01*
X32045123Y-17097828D01*
%TO.C,C2*%
X40832285Y-19947466D02*
X40870990Y-19986171D01*
X40909695Y-20102285D01*
X40909695Y-20179695D01*
X40870990Y-20295809D01*
X40793580Y-20373219D01*
X40716171Y-20411923D01*
X40561352Y-20450628D01*
X40445238Y-20450628D01*
X40290419Y-20411923D01*
X40213009Y-20373219D01*
X40135600Y-20295809D01*
X40096895Y-20179695D01*
X40096895Y-20102285D01*
X40135600Y-19986171D01*
X40174304Y-19947466D01*
X40174304Y-19637828D02*
X40135600Y-19599123D01*
X40096895Y-19521714D01*
X40096895Y-19328190D01*
X40135600Y-19250780D01*
X40174304Y-19212076D01*
X40251714Y-19173371D01*
X40329123Y-19173371D01*
X40445238Y-19212076D01*
X40909695Y-19676533D01*
X40909695Y-19173371D01*
%TO.C,C3*%
X68616285Y-7247466D02*
X68654990Y-7286171D01*
X68693695Y-7402285D01*
X68693695Y-7479695D01*
X68654990Y-7595809D01*
X68577580Y-7673219D01*
X68500171Y-7711923D01*
X68345352Y-7750628D01*
X68229238Y-7750628D01*
X68074419Y-7711923D01*
X67997009Y-7673219D01*
X67919600Y-7595809D01*
X67880895Y-7479695D01*
X67880895Y-7402285D01*
X67919600Y-7286171D01*
X67958304Y-7247466D01*
X67880895Y-6976533D02*
X67880895Y-6473371D01*
X68190533Y-6744304D01*
X68190533Y-6628190D01*
X68229238Y-6550780D01*
X68267942Y-6512076D01*
X68345352Y-6473371D01*
X68538876Y-6473371D01*
X68616285Y-6512076D01*
X68654990Y-6550780D01*
X68693695Y-6628190D01*
X68693695Y-6860419D01*
X68654990Y-6937828D01*
X68616285Y-6976533D01*
%TO.C,C4*%
X39742533Y-23404285D02*
X39703828Y-23442990D01*
X39587714Y-23481695D01*
X39510304Y-23481695D01*
X39394190Y-23442990D01*
X39316780Y-23365580D01*
X39278076Y-23288171D01*
X39239371Y-23133352D01*
X39239371Y-23017238D01*
X39278076Y-22862419D01*
X39316780Y-22785009D01*
X39394190Y-22707600D01*
X39510304Y-22668895D01*
X39587714Y-22668895D01*
X39703828Y-22707600D01*
X39742533Y-22746304D01*
X40439219Y-22939828D02*
X40439219Y-23481695D01*
X40245695Y-22630190D02*
X40052171Y-23210761D01*
X40555333Y-23210761D01*
%TO.C,C5*%
X49312285Y-17407466D02*
X49350990Y-17446171D01*
X49389695Y-17562285D01*
X49389695Y-17639695D01*
X49350990Y-17755809D01*
X49273580Y-17833219D01*
X49196171Y-17871923D01*
X49041352Y-17910628D01*
X48925238Y-17910628D01*
X48770419Y-17871923D01*
X48693009Y-17833219D01*
X48615600Y-17755809D01*
X48576895Y-17639695D01*
X48576895Y-17562285D01*
X48615600Y-17446171D01*
X48654304Y-17407466D01*
X48576895Y-16672076D02*
X48576895Y-17059123D01*
X48963942Y-17097828D01*
X48925238Y-17059123D01*
X48886533Y-16981714D01*
X48886533Y-16788190D01*
X48925238Y-16710780D01*
X48963942Y-16672076D01*
X49041352Y-16633371D01*
X49234876Y-16633371D01*
X49312285Y-16672076D01*
X49350990Y-16710780D01*
X49389695Y-16788190D01*
X49389695Y-16981714D01*
X49350990Y-17059123D01*
X49312285Y-17097828D01*
%TO.C,C6*%
X57596285Y-19947466D02*
X57634990Y-19986171D01*
X57673695Y-20102285D01*
X57673695Y-20179695D01*
X57634990Y-20295809D01*
X57557580Y-20373219D01*
X57480171Y-20411923D01*
X57325352Y-20450628D01*
X57209238Y-20450628D01*
X57054419Y-20411923D01*
X56977009Y-20373219D01*
X56899600Y-20295809D01*
X56860895Y-20179695D01*
X56860895Y-20102285D01*
X56899600Y-19986171D01*
X56938304Y-19947466D01*
X56860895Y-19250780D02*
X56860895Y-19405600D01*
X56899600Y-19483009D01*
X56938304Y-19521714D01*
X57054419Y-19599123D01*
X57209238Y-19637828D01*
X57518876Y-19637828D01*
X57596285Y-19599123D01*
X57634990Y-19560419D01*
X57673695Y-19483009D01*
X57673695Y-19328190D01*
X57634990Y-19250780D01*
X57596285Y-19212076D01*
X57518876Y-19173371D01*
X57325352Y-19173371D01*
X57247942Y-19212076D01*
X57209238Y-19250780D01*
X57170533Y-19328190D01*
X57170533Y-19483009D01*
X57209238Y-19560419D01*
X57247942Y-19599123D01*
X57325352Y-19637828D01*
%TO.C,C7*%
X56506533Y-23404285D02*
X56467828Y-23442990D01*
X56351714Y-23481695D01*
X56274304Y-23481695D01*
X56158190Y-23442990D01*
X56080780Y-23365580D01*
X56042076Y-23288171D01*
X56003371Y-23133352D01*
X56003371Y-23017238D01*
X56042076Y-22862419D01*
X56080780Y-22785009D01*
X56158190Y-22707600D01*
X56274304Y-22668895D01*
X56351714Y-22668895D01*
X56467828Y-22707600D01*
X56506533Y-22746304D01*
X56777466Y-22668895D02*
X57319333Y-22668895D01*
X56970990Y-23481695D01*
%TO.C,D1*%
X20941695Y-17109923D02*
X20128895Y-17109923D01*
X20128895Y-16916400D01*
X20167600Y-16800285D01*
X20245009Y-16722876D01*
X20322419Y-16684171D01*
X20477238Y-16645466D01*
X20593352Y-16645466D01*
X20748171Y-16684171D01*
X20825580Y-16722876D01*
X20902990Y-16800285D01*
X20941695Y-16916400D01*
X20941695Y-17109923D01*
X20941695Y-15871371D02*
X20941695Y-16335828D01*
X20941695Y-16103600D02*
X20128895Y-16103600D01*
X20245009Y-16181009D01*
X20322419Y-16258419D01*
X20361123Y-16335828D01*
%TO.C,D2*%
X13116076Y-21013695D02*
X13116076Y-20200895D01*
X13309600Y-20200895D01*
X13425714Y-20239600D01*
X13503123Y-20317009D01*
X13541828Y-20394419D01*
X13580533Y-20549238D01*
X13580533Y-20665352D01*
X13541828Y-20820171D01*
X13503123Y-20897580D01*
X13425714Y-20974990D01*
X13309600Y-21013695D01*
X13116076Y-21013695D01*
X13890171Y-20278304D02*
X13928876Y-20239600D01*
X14006285Y-20200895D01*
X14199809Y-20200895D01*
X14277219Y-20239600D01*
X14315923Y-20278304D01*
X14354628Y-20355714D01*
X14354628Y-20433123D01*
X14315923Y-20549238D01*
X13851466Y-21013695D01*
X14354628Y-21013695D01*
%TO.C,J1*%
X3110895Y-19828933D02*
X3691466Y-19828933D01*
X3807580Y-19867638D01*
X3884990Y-19945047D01*
X3923695Y-20061161D01*
X3923695Y-20138571D01*
X3923695Y-19016133D02*
X3923695Y-19480590D01*
X3923695Y-19248361D02*
X3110895Y-19248361D01*
X3227009Y-19325771D01*
X3304419Y-19403180D01*
X3343123Y-19480590D01*
%TO.C,R1*%
X30339695Y-17407466D02*
X29952647Y-17678400D01*
X30339695Y-17871923D02*
X29526895Y-17871923D01*
X29526895Y-17562285D01*
X29565600Y-17484876D01*
X29604304Y-17446171D01*
X29681714Y-17407466D01*
X29797828Y-17407466D01*
X29875238Y-17446171D01*
X29913942Y-17484876D01*
X29952647Y-17562285D01*
X29952647Y-17871923D01*
X30339695Y-16633371D02*
X30339695Y-17097828D01*
X30339695Y-16865600D02*
X29526895Y-16865600D01*
X29643009Y-16943009D01*
X29720419Y-17020419D01*
X29759123Y-17097828D01*
%TO.C,R2*%
X39742533Y-26021695D02*
X39471600Y-25634647D01*
X39278076Y-26021695D02*
X39278076Y-25208895D01*
X39587714Y-25208895D01*
X39665123Y-25247600D01*
X39703828Y-25286304D01*
X39742533Y-25363714D01*
X39742533Y-25479828D01*
X39703828Y-25557238D01*
X39665123Y-25595942D01*
X39587714Y-25634647D01*
X39278076Y-25634647D01*
X40052171Y-25286304D02*
X40090876Y-25247600D01*
X40168285Y-25208895D01*
X40361809Y-25208895D01*
X40439219Y-25247600D01*
X40477923Y-25286304D01*
X40516628Y-25363714D01*
X40516628Y-25441123D01*
X40477923Y-25557238D01*
X40013466Y-26021695D01*
X40516628Y-26021695D01*
%TO.C,R3*%
X32884533Y-25005695D02*
X32613600Y-24618647D01*
X32420076Y-25005695D02*
X32420076Y-24192895D01*
X32729714Y-24192895D01*
X32807123Y-24231600D01*
X32845828Y-24270304D01*
X32884533Y-24347714D01*
X32884533Y-24463828D01*
X32845828Y-24541238D01*
X32807123Y-24579942D01*
X32729714Y-24618647D01*
X32420076Y-24618647D01*
X33155466Y-24192895D02*
X33658628Y-24192895D01*
X33387695Y-24502533D01*
X33503809Y-24502533D01*
X33581219Y-24541238D01*
X33619923Y-24579942D01*
X33658628Y-24657352D01*
X33658628Y-24850876D01*
X33619923Y-24928285D01*
X33581219Y-24966990D01*
X33503809Y-25005695D01*
X33271580Y-25005695D01*
X33194171Y-24966990D01*
X33155466Y-24928285D01*
%TO.C,R4*%
X29074533Y-25005695D02*
X28803600Y-24618647D01*
X28610076Y-25005695D02*
X28610076Y-24192895D01*
X28919714Y-24192895D01*
X28997123Y-24231600D01*
X29035828Y-24270304D01*
X29074533Y-24347714D01*
X29074533Y-24463828D01*
X29035828Y-24541238D01*
X28997123Y-24579942D01*
X28919714Y-24618647D01*
X28610076Y-24618647D01*
X29771219Y-24463828D02*
X29771219Y-25005695D01*
X29577695Y-24154190D02*
X29384171Y-24734761D01*
X29887333Y-24734761D01*
%TO.C,R5*%
X47103695Y-17407466D02*
X46716647Y-17678400D01*
X47103695Y-17871923D02*
X46290895Y-17871923D01*
X46290895Y-17562285D01*
X46329600Y-17484876D01*
X46368304Y-17446171D01*
X46445714Y-17407466D01*
X46561828Y-17407466D01*
X46639238Y-17446171D01*
X46677942Y-17484876D01*
X46716647Y-17562285D01*
X46716647Y-17871923D01*
X46290895Y-16672076D02*
X46290895Y-17059123D01*
X46677942Y-17097828D01*
X46639238Y-17059123D01*
X46600533Y-16981714D01*
X46600533Y-16788190D01*
X46639238Y-16710780D01*
X46677942Y-16672076D01*
X46755352Y-16633371D01*
X46948876Y-16633371D01*
X47026285Y-16672076D01*
X47064990Y-16710780D01*
X47103695Y-16788190D01*
X47103695Y-16981714D01*
X47064990Y-17059123D01*
X47026285Y-17097828D01*
%TO.C,R6*%
X56506533Y-26021695D02*
X56235600Y-25634647D01*
X56042076Y-26021695D02*
X56042076Y-25208895D01*
X56351714Y-25208895D01*
X56429123Y-25247600D01*
X56467828Y-25286304D01*
X56506533Y-25363714D01*
X56506533Y-25479828D01*
X56467828Y-25557238D01*
X56429123Y-25595942D01*
X56351714Y-25634647D01*
X56042076Y-25634647D01*
X57203219Y-25208895D02*
X57048400Y-25208895D01*
X56970990Y-25247600D01*
X56932285Y-25286304D01*
X56854876Y-25402419D01*
X56816171Y-25557238D01*
X56816171Y-25866876D01*
X56854876Y-25944285D01*
X56893580Y-25982990D01*
X56970990Y-26021695D01*
X57125809Y-26021695D01*
X57203219Y-25982990D01*
X57241923Y-25944285D01*
X57280628Y-25866876D01*
X57280628Y-25673352D01*
X57241923Y-25595942D01*
X57203219Y-25557238D01*
X57125809Y-25518533D01*
X56970990Y-25518533D01*
X56893580Y-25557238D01*
X56854876Y-25595942D01*
X56816171Y-25673352D01*
%TO.C,R7*%
X49648533Y-25005695D02*
X49377600Y-24618647D01*
X49184076Y-25005695D02*
X49184076Y-24192895D01*
X49493714Y-24192895D01*
X49571123Y-24231600D01*
X49609828Y-24270304D01*
X49648533Y-24347714D01*
X49648533Y-24463828D01*
X49609828Y-24541238D01*
X49571123Y-24579942D01*
X49493714Y-24618647D01*
X49184076Y-24618647D01*
X49919466Y-24192895D02*
X50461333Y-24192895D01*
X50112990Y-25005695D01*
%TO.C,RV1*%
X60819695Y-7341809D02*
X60432647Y-7612742D01*
X60819695Y-7806266D02*
X60006895Y-7806266D01*
X60006895Y-7496628D01*
X60045600Y-7419219D01*
X60084304Y-7380514D01*
X60161714Y-7341809D01*
X60277828Y-7341809D01*
X60355238Y-7380514D01*
X60393942Y-7419219D01*
X60432647Y-7496628D01*
X60432647Y-7806266D01*
X60006895Y-7109580D02*
X60819695Y-6838647D01*
X60006895Y-6567714D01*
X60819695Y-5871028D02*
X60819695Y-6335485D01*
X60819695Y-6103257D02*
X60006895Y-6103257D01*
X60123009Y-6180666D01*
X60200419Y-6258076D01*
X60239123Y-6335485D01*
%TO.C,SW1*%
X20288266Y-25318990D02*
X20404380Y-25357695D01*
X20597904Y-25357695D01*
X20675314Y-25318990D01*
X20714019Y-25280285D01*
X20752723Y-25202876D01*
X20752723Y-25125466D01*
X20714019Y-25048057D01*
X20675314Y-25009352D01*
X20597904Y-24970647D01*
X20443085Y-24931942D01*
X20365676Y-24893238D01*
X20326971Y-24854533D01*
X20288266Y-24777123D01*
X20288266Y-24699714D01*
X20326971Y-24622304D01*
X20365676Y-24583600D01*
X20443085Y-24544895D01*
X20636609Y-24544895D01*
X20752723Y-24583600D01*
X21023657Y-24544895D02*
X21217180Y-25357695D01*
X21372000Y-24777123D01*
X21526819Y-25357695D01*
X21720342Y-24544895D01*
X22455733Y-25357695D02*
X21991276Y-25357695D01*
X22223504Y-25357695D02*
X22223504Y-24544895D01*
X22146095Y-24661009D01*
X22068685Y-24738419D01*
X21991276Y-24777123D01*
%TO.C,SW2*%
X5056990Y-25503733D02*
X5095695Y-25387619D01*
X5095695Y-25194095D01*
X5056990Y-25116685D01*
X5018285Y-25077980D01*
X4940876Y-25039276D01*
X4863466Y-25039276D01*
X4786057Y-25077980D01*
X4747352Y-25116685D01*
X4708647Y-25194095D01*
X4669942Y-25348914D01*
X4631238Y-25426323D01*
X4592533Y-25465028D01*
X4515123Y-25503733D01*
X4437714Y-25503733D01*
X4360304Y-25465028D01*
X4321600Y-25426323D01*
X4282895Y-25348914D01*
X4282895Y-25155390D01*
X4321600Y-25039276D01*
X4282895Y-24768342D02*
X5095695Y-24574819D01*
X4515123Y-24420000D01*
X5095695Y-24265180D01*
X4282895Y-24071657D01*
X4360304Y-23800723D02*
X4321600Y-23762019D01*
X4282895Y-23684609D01*
X4282895Y-23491085D01*
X4321600Y-23413676D01*
X4360304Y-23374971D01*
X4437714Y-23336266D01*
X4515123Y-23336266D01*
X4631238Y-23374971D01*
X5095695Y-23839428D01*
X5095695Y-23336266D01*
%TO.C,U1*%
X33670723Y-16826895D02*
X33670723Y-17484876D01*
X33709428Y-17562285D01*
X33748133Y-17600990D01*
X33825542Y-17639695D01*
X33980361Y-17639695D01*
X34057771Y-17600990D01*
X34096476Y-17562285D01*
X34135180Y-17484876D01*
X34135180Y-16826895D01*
X34947980Y-17639695D02*
X34483523Y-17639695D01*
X34715752Y-17639695D02*
X34715752Y-16826895D01*
X34638342Y-16943009D01*
X34560933Y-17020419D01*
X34483523Y-17059123D01*
%TO.C,U2*%
X50434723Y-16826895D02*
X50434723Y-17484876D01*
X50473428Y-17562285D01*
X50512133Y-17600990D01*
X50589542Y-17639695D01*
X50744361Y-17639695D01*
X50821771Y-17600990D01*
X50860476Y-17562285D01*
X50899180Y-17484876D01*
X50899180Y-16826895D01*
X51247523Y-16904304D02*
X51286228Y-16865600D01*
X51363638Y-16826895D01*
X51557161Y-16826895D01*
X51634571Y-16865600D01*
X51673276Y-16904304D01*
X51711980Y-16981714D01*
X51711980Y-17059123D01*
X51673276Y-17175238D01*
X51208819Y-17639695D01*
X51711980Y-17639695D01*
%TD*%
M02*
