%TF.GenerationSoftware,KiCad,Pcbnew,5.1.12-84ad8e8a86~92~ubuntu18.04.1*%
%TF.CreationDate,2023-04-20T21:37:03+02:00*%
%TF.ProjectId,transient-dc-protection,7472616e-7369-4656-9e74-2d64632d7072,rev?*%
%TF.SameCoordinates,Original*%
%TF.FileFunction,Copper,L1,Top*%
%TF.FilePolarity,Positive*%
%FSLAX46Y46*%
G04 Gerber Fmt 4.6, Leading zero omitted, Abs format (unit mm)*
G04 Created by KiCad (PCBNEW 5.1.12-84ad8e8a86~92~ubuntu18.04.1) date 2023-04-20 21:37:03*
%MOMM*%
%LPD*%
G01*
G04 APERTURE LIST*
%TA.AperFunction,SMDPad,CuDef*%
%ADD10C,1.000000*%
%TD*%
%TA.AperFunction,ComponentPad*%
%ADD11O,5.000000X6.000000*%
%TD*%
%TA.AperFunction,ComponentPad*%
%ADD12R,2.400000X2.400000*%
%TD*%
%TA.AperFunction,ComponentPad*%
%ADD13C,2.400000*%
%TD*%
%TA.AperFunction,SMDPad,CuDef*%
%ADD14R,2.300000X2.500000*%
%TD*%
%TA.AperFunction,ComponentPad*%
%ADD15R,1.800000X1.800000*%
%TD*%
%TA.AperFunction,ComponentPad*%
%ADD16C,1.800000*%
%TD*%
%TA.AperFunction,ComponentPad*%
%ADD17R,3.800000X2.800000*%
%TD*%
%TA.AperFunction,ComponentPad*%
%ADD18O,3.800000X2.800000*%
%TD*%
%TA.AperFunction,ComponentPad*%
%ADD19C,2.000000*%
%TD*%
%TA.AperFunction,ComponentPad*%
%ADD20O,2.400000X2.100000*%
%TD*%
%TA.AperFunction,ComponentPad*%
%ADD21C,1.900000*%
%TD*%
%TA.AperFunction,ComponentPad*%
%ADD22O,2.100000X2.400000*%
%TD*%
%TA.AperFunction,SMDPad,CuDef*%
%ADD23R,0.400000X1.060000*%
%TD*%
%TA.AperFunction,ViaPad*%
%ADD24C,0.812800*%
%TD*%
%TA.AperFunction,ViaPad*%
%ADD25C,1.016000*%
%TD*%
%TA.AperFunction,ViaPad*%
%ADD26C,0.609600*%
%TD*%
%TA.AperFunction,Conductor*%
%ADD27C,0.203200*%
%TD*%
%TA.AperFunction,Conductor*%
%ADD28C,0.100000*%
%TD*%
G04 APERTURE END LIST*
%TO.P,L1,1*%
%TO.N,Net-(D1-Pad2)*%
%TA.AperFunction,SMDPad,CuDef*%
G36*
G01*
X22432000Y-12274500D02*
X22432000Y-11399500D01*
G75*
G02*
X22869500Y-10962000I437500J0D01*
G01*
X25494500Y-10962000D01*
G75*
G02*
X25932000Y-11399500I0J-437500D01*
G01*
X25932000Y-12274500D01*
G75*
G02*
X25494500Y-12712000I-437500J0D01*
G01*
X22869500Y-12712000D01*
G75*
G02*
X22432000Y-12274500I0J437500D01*
G01*
G37*
%TD.AperFunction*%
%TO.P,L1,2*%
%TO.N,Net-(D1-Pad1)*%
%TA.AperFunction,SMDPad,CuDef*%
G36*
G01*
X22432000Y-15524500D02*
X22432000Y-14649500D01*
G75*
G02*
X22869500Y-14212000I437500J0D01*
G01*
X25494500Y-14212000D01*
G75*
G02*
X25932000Y-14649500I0J-437500D01*
G01*
X25932000Y-15524500D01*
G75*
G02*
X25494500Y-15962000I-437500J0D01*
G01*
X22869500Y-15962000D01*
G75*
G02*
X22432000Y-15524500I0J437500D01*
G01*
G37*
%TD.AperFunction*%
%TO.P,L1,3*%
%TO.N,VCC*%
%TA.AperFunction,SMDPad,CuDef*%
G36*
G01*
X28932000Y-15524500D02*
X28932000Y-14649500D01*
G75*
G02*
X29369500Y-14212000I437500J0D01*
G01*
X31994500Y-14212000D01*
G75*
G02*
X32432000Y-14649500I0J-437500D01*
G01*
X32432000Y-15524500D01*
G75*
G02*
X31994500Y-15962000I-437500J0D01*
G01*
X29369500Y-15962000D01*
G75*
G02*
X28932000Y-15524500I0J437500D01*
G01*
G37*
%TD.AperFunction*%
%TO.P,L1,4*%
%TO.N,GND*%
%TA.AperFunction,SMDPad,CuDef*%
G36*
G01*
X28932000Y-12274500D02*
X28932000Y-11399500D01*
G75*
G02*
X29369500Y-10962000I437500J0D01*
G01*
X31994500Y-10962000D01*
G75*
G02*
X32432000Y-11399500I0J-437500D01*
G01*
X32432000Y-12274500D01*
G75*
G02*
X31994500Y-12712000I-437500J0D01*
G01*
X29369500Y-12712000D01*
G75*
G02*
X28932000Y-12274500I0J437500D01*
G01*
G37*
%TD.AperFunction*%
%TD*%
D10*
%TO.P,REF\u002A\u002A,*%
%TO.N,*%
X43434000Y-23876000D03*
%TD*%
%TO.P,REF\u002A\u002A,*%
%TO.N,*%
X9000000Y-25000000D03*
%TD*%
%TO.P,REF\u002A\u002A,*%
%TO.N,*%
X81000000Y-4064000D03*
%TD*%
%TO.P,REF\u002A\u002A,*%
%TO.N,*%
X9000000Y-4064000D03*
%TD*%
%TO.P,J2,1*%
%TO.N,GND*%
%TA.AperFunction,ComponentPad*%
G36*
G01*
X86264000Y-28400000D02*
X81884000Y-28400000D01*
G75*
G02*
X81574000Y-28090000I0J310000D01*
G01*
X81574000Y-22710000D01*
G75*
G02*
X81884000Y-22400000I310000J0D01*
G01*
X86264000Y-22400000D01*
G75*
G02*
X86574000Y-22710000I0J-310000D01*
G01*
X86574000Y-28090000D01*
G75*
G02*
X86264000Y-28400000I-310000J0D01*
G01*
G37*
%TD.AperFunction*%
D11*
%TO.P,J2,2*%
%TO.N,Net-(C2-Pad1)*%
X84074000Y-15240000D03*
%TD*%
%TO.P,C1,2*%
%TO.N,GND*%
%TA.AperFunction,SMDPad,CuDef*%
G36*
G01*
X31783000Y-20262000D02*
X32733000Y-20262000D01*
G75*
G02*
X32983000Y-20512000I0J-250000D01*
G01*
X32983000Y-21012000D01*
G75*
G02*
X32733000Y-21262000I-250000J0D01*
G01*
X31783000Y-21262000D01*
G75*
G02*
X31533000Y-21012000I0J250000D01*
G01*
X31533000Y-20512000D01*
G75*
G02*
X31783000Y-20262000I250000J0D01*
G01*
G37*
%TD.AperFunction*%
%TO.P,C1,1*%
%TO.N,VCC*%
%TA.AperFunction,SMDPad,CuDef*%
G36*
G01*
X31783000Y-18362000D02*
X32733000Y-18362000D01*
G75*
G02*
X32983000Y-18612000I0J-250000D01*
G01*
X32983000Y-19112000D01*
G75*
G02*
X32733000Y-19362000I-250000J0D01*
G01*
X31783000Y-19362000D01*
G75*
G02*
X31533000Y-19112000I0J250000D01*
G01*
X31533000Y-18612000D01*
G75*
G02*
X31783000Y-18362000I250000J0D01*
G01*
G37*
%TD.AperFunction*%
%TD*%
%TO.P,C2,1*%
%TO.N,Net-(C2-Pad1)*%
%TA.AperFunction,SMDPad,CuDef*%
G36*
G01*
X38387000Y-18362000D02*
X39337000Y-18362000D01*
G75*
G02*
X39587000Y-18612000I0J-250000D01*
G01*
X39587000Y-19112000D01*
G75*
G02*
X39337000Y-19362000I-250000J0D01*
G01*
X38387000Y-19362000D01*
G75*
G02*
X38137000Y-19112000I0J250000D01*
G01*
X38137000Y-18612000D01*
G75*
G02*
X38387000Y-18362000I250000J0D01*
G01*
G37*
%TD.AperFunction*%
%TO.P,C2,2*%
%TO.N,GND*%
%TA.AperFunction,SMDPad,CuDef*%
G36*
G01*
X38387000Y-20262000D02*
X39337000Y-20262000D01*
G75*
G02*
X39587000Y-20512000I0J-250000D01*
G01*
X39587000Y-21012000D01*
G75*
G02*
X39337000Y-21262000I-250000J0D01*
G01*
X38387000Y-21262000D01*
G75*
G02*
X38137000Y-21012000I0J250000D01*
G01*
X38137000Y-20512000D01*
G75*
G02*
X38387000Y-20262000I250000J0D01*
G01*
G37*
%TD.AperFunction*%
%TD*%
D12*
%TO.P,C3,1*%
%TO.N,Net-(C2-Pad1)*%
X72898000Y-10922000D03*
D13*
%TO.P,C3,2*%
%TO.N,GND*%
X72898000Y-15922000D03*
%TD*%
%TO.P,C4,1*%
%TO.N,Net-(C4-Pad1)*%
%TA.AperFunction,SMDPad,CuDef*%
G36*
G01*
X35888000Y-23589000D02*
X35888000Y-22639000D01*
G75*
G02*
X36138000Y-22389000I250000J0D01*
G01*
X36638000Y-22389000D01*
G75*
G02*
X36888000Y-22639000I0J-250000D01*
G01*
X36888000Y-23589000D01*
G75*
G02*
X36638000Y-23839000I-250000J0D01*
G01*
X36138000Y-23839000D01*
G75*
G02*
X35888000Y-23589000I0J250000D01*
G01*
G37*
%TD.AperFunction*%
%TO.P,C4,2*%
%TO.N,GND*%
%TA.AperFunction,SMDPad,CuDef*%
G36*
G01*
X37788000Y-23589000D02*
X37788000Y-22639000D01*
G75*
G02*
X38038000Y-22389000I250000J0D01*
G01*
X38538000Y-22389000D01*
G75*
G02*
X38788000Y-22639000I0J-250000D01*
G01*
X38788000Y-23589000D01*
G75*
G02*
X38538000Y-23839000I-250000J0D01*
G01*
X38038000Y-23839000D01*
G75*
G02*
X37788000Y-23589000I0J250000D01*
G01*
G37*
%TD.AperFunction*%
%TD*%
%TO.P,C5,2*%
%TO.N,GND*%
%TA.AperFunction,SMDPad,CuDef*%
G36*
G01*
X48547000Y-20262000D02*
X49497000Y-20262000D01*
G75*
G02*
X49747000Y-20512000I0J-250000D01*
G01*
X49747000Y-21012000D01*
G75*
G02*
X49497000Y-21262000I-250000J0D01*
G01*
X48547000Y-21262000D01*
G75*
G02*
X48297000Y-21012000I0J250000D01*
G01*
X48297000Y-20512000D01*
G75*
G02*
X48547000Y-20262000I250000J0D01*
G01*
G37*
%TD.AperFunction*%
%TO.P,C5,1*%
%TO.N,VCC*%
%TA.AperFunction,SMDPad,CuDef*%
G36*
G01*
X48547000Y-18362000D02*
X49497000Y-18362000D01*
G75*
G02*
X49747000Y-18612000I0J-250000D01*
G01*
X49747000Y-19112000D01*
G75*
G02*
X49497000Y-19362000I-250000J0D01*
G01*
X48547000Y-19362000D01*
G75*
G02*
X48297000Y-19112000I0J250000D01*
G01*
X48297000Y-18612000D01*
G75*
G02*
X48547000Y-18362000I250000J0D01*
G01*
G37*
%TD.AperFunction*%
%TD*%
%TO.P,C6,1*%
%TO.N,Net-(C2-Pad1)*%
%TA.AperFunction,SMDPad,CuDef*%
G36*
G01*
X55151000Y-18362000D02*
X56101000Y-18362000D01*
G75*
G02*
X56351000Y-18612000I0J-250000D01*
G01*
X56351000Y-19112000D01*
G75*
G02*
X56101000Y-19362000I-250000J0D01*
G01*
X55151000Y-19362000D01*
G75*
G02*
X54901000Y-19112000I0J250000D01*
G01*
X54901000Y-18612000D01*
G75*
G02*
X55151000Y-18362000I250000J0D01*
G01*
G37*
%TD.AperFunction*%
%TO.P,C6,2*%
%TO.N,GND*%
%TA.AperFunction,SMDPad,CuDef*%
G36*
G01*
X55151000Y-20262000D02*
X56101000Y-20262000D01*
G75*
G02*
X56351000Y-20512000I0J-250000D01*
G01*
X56351000Y-21012000D01*
G75*
G02*
X56101000Y-21262000I-250000J0D01*
G01*
X55151000Y-21262000D01*
G75*
G02*
X54901000Y-21012000I0J250000D01*
G01*
X54901000Y-20512000D01*
G75*
G02*
X55151000Y-20262000I250000J0D01*
G01*
G37*
%TD.AperFunction*%
%TD*%
%TO.P,C7,2*%
%TO.N,GND*%
%TA.AperFunction,SMDPad,CuDef*%
G36*
G01*
X54552000Y-23589000D02*
X54552000Y-22639000D01*
G75*
G02*
X54802000Y-22389000I250000J0D01*
G01*
X55302000Y-22389000D01*
G75*
G02*
X55552000Y-22639000I0J-250000D01*
G01*
X55552000Y-23589000D01*
G75*
G02*
X55302000Y-23839000I-250000J0D01*
G01*
X54802000Y-23839000D01*
G75*
G02*
X54552000Y-23589000I0J250000D01*
G01*
G37*
%TD.AperFunction*%
%TO.P,C7,1*%
%TO.N,Net-(C7-Pad1)*%
%TA.AperFunction,SMDPad,CuDef*%
G36*
G01*
X52652000Y-23589000D02*
X52652000Y-22639000D01*
G75*
G02*
X52902000Y-22389000I250000J0D01*
G01*
X53402000Y-22389000D01*
G75*
G02*
X53652000Y-22639000I0J-250000D01*
G01*
X53652000Y-23589000D01*
G75*
G02*
X53402000Y-23839000I-250000J0D01*
G01*
X52902000Y-23839000D01*
G75*
G02*
X52652000Y-23589000I0J250000D01*
G01*
G37*
%TD.AperFunction*%
%TD*%
D14*
%TO.P,D1,1*%
%TO.N,Net-(D1-Pad1)*%
X17526000Y-15612000D03*
%TO.P,D1,2*%
%TO.N,Net-(D1-Pad2)*%
X17526000Y-11312000D03*
%TD*%
D15*
%TO.P,D2,1*%
%TO.N,Net-(D2-Pad1)*%
X12446000Y-22606000D03*
D16*
%TO.P,D2,2*%
%TO.N,Net-(D2-Pad2)*%
X14986000Y-22606000D03*
%TD*%
D17*
%TO.P,J1,1*%
%TO.N,Net-(D1-Pad2)*%
X8382000Y-10922000D03*
D18*
%TO.P,J1,2*%
%TO.N,Net-(D1-Pad1)*%
X8382000Y-16002000D03*
%TD*%
%TO.P,R1,2*%
%TO.N,Net-(R1-Pad2)*%
%TA.AperFunction,SMDPad,CuDef*%
G36*
G01*
X29521999Y-20212000D02*
X30422001Y-20212000D01*
G75*
G02*
X30672000Y-20461999I0J-249999D01*
G01*
X30672000Y-20987001D01*
G75*
G02*
X30422001Y-21237000I-249999J0D01*
G01*
X29521999Y-21237000D01*
G75*
G02*
X29272000Y-20987001I0J249999D01*
G01*
X29272000Y-20461999D01*
G75*
G02*
X29521999Y-20212000I249999J0D01*
G01*
G37*
%TD.AperFunction*%
%TO.P,R1,1*%
%TO.N,VCC*%
%TA.AperFunction,SMDPad,CuDef*%
G36*
G01*
X29521999Y-18387000D02*
X30422001Y-18387000D01*
G75*
G02*
X30672000Y-18636999I0J-249999D01*
G01*
X30672000Y-19162001D01*
G75*
G02*
X30422001Y-19412000I-249999J0D01*
G01*
X29521999Y-19412000D01*
G75*
G02*
X29272000Y-19162001I0J249999D01*
G01*
X29272000Y-18636999D01*
G75*
G02*
X29521999Y-18387000I249999J0D01*
G01*
G37*
%TD.AperFunction*%
%TD*%
%TO.P,R2,1*%
%TO.N,Net-(R2-Pad1)*%
%TA.AperFunction,SMDPad,CuDef*%
G36*
G01*
X38763000Y-25203999D02*
X38763000Y-26104001D01*
G75*
G02*
X38513001Y-26354000I-249999J0D01*
G01*
X37987999Y-26354000D01*
G75*
G02*
X37738000Y-26104001I0J249999D01*
G01*
X37738000Y-25203999D01*
G75*
G02*
X37987999Y-24954000I249999J0D01*
G01*
X38513001Y-24954000D01*
G75*
G02*
X38763000Y-25203999I0J-249999D01*
G01*
G37*
%TD.AperFunction*%
%TO.P,R2,2*%
%TO.N,Net-(R1-Pad2)*%
%TA.AperFunction,SMDPad,CuDef*%
G36*
G01*
X36938000Y-25203999D02*
X36938000Y-26104001D01*
G75*
G02*
X36688001Y-26354000I-249999J0D01*
G01*
X36162999Y-26354000D01*
G75*
G02*
X35913000Y-26104001I0J249999D01*
G01*
X35913000Y-25203999D01*
G75*
G02*
X36162999Y-24954000I249999J0D01*
G01*
X36688001Y-24954000D01*
G75*
G02*
X36938000Y-25203999I0J-249999D01*
G01*
G37*
%TD.AperFunction*%
%TD*%
%TO.P,R3,1*%
%TO.N,Net-(C2-Pad1)*%
%TA.AperFunction,SMDPad,CuDef*%
G36*
G01*
X31595000Y-23564001D02*
X31595000Y-22663999D01*
G75*
G02*
X31844999Y-22414000I249999J0D01*
G01*
X32370001Y-22414000D01*
G75*
G02*
X32620000Y-22663999I0J-249999D01*
G01*
X32620000Y-23564001D01*
G75*
G02*
X32370001Y-23814000I-249999J0D01*
G01*
X31844999Y-23814000D01*
G75*
G02*
X31595000Y-23564001I0J249999D01*
G01*
G37*
%TD.AperFunction*%
%TO.P,R3,2*%
%TO.N,Net-(R3-Pad2)*%
%TA.AperFunction,SMDPad,CuDef*%
G36*
G01*
X33420000Y-23564001D02*
X33420000Y-22663999D01*
G75*
G02*
X33669999Y-22414000I249999J0D01*
G01*
X34195001Y-22414000D01*
G75*
G02*
X34445000Y-22663999I0J-249999D01*
G01*
X34445000Y-23564001D01*
G75*
G02*
X34195001Y-23814000I-249999J0D01*
G01*
X33669999Y-23814000D01*
G75*
G02*
X33420000Y-23564001I0J249999D01*
G01*
G37*
%TD.AperFunction*%
%TD*%
%TO.P,R4,1*%
%TO.N,Net-(C2-Pad1)*%
%TA.AperFunction,SMDPad,CuDef*%
G36*
G01*
X30635000Y-22663999D02*
X30635000Y-23564001D01*
G75*
G02*
X30385001Y-23814000I-249999J0D01*
G01*
X29859999Y-23814000D01*
G75*
G02*
X29610000Y-23564001I0J249999D01*
G01*
X29610000Y-22663999D01*
G75*
G02*
X29859999Y-22414000I249999J0D01*
G01*
X30385001Y-22414000D01*
G75*
G02*
X30635000Y-22663999I0J-249999D01*
G01*
G37*
%TD.AperFunction*%
%TO.P,R4,2*%
%TO.N,Net-(D2-Pad2)*%
%TA.AperFunction,SMDPad,CuDef*%
G36*
G01*
X28810000Y-22663999D02*
X28810000Y-23564001D01*
G75*
G02*
X28560001Y-23814000I-249999J0D01*
G01*
X28034999Y-23814000D01*
G75*
G02*
X27785000Y-23564001I0J249999D01*
G01*
X27785000Y-22663999D01*
G75*
G02*
X28034999Y-22414000I249999J0D01*
G01*
X28560001Y-22414000D01*
G75*
G02*
X28810000Y-22663999I0J-249999D01*
G01*
G37*
%TD.AperFunction*%
%TD*%
%TO.P,R5,1*%
%TO.N,VCC*%
%TA.AperFunction,SMDPad,CuDef*%
G36*
G01*
X46285999Y-18387000D02*
X47186001Y-18387000D01*
G75*
G02*
X47436000Y-18636999I0J-249999D01*
G01*
X47436000Y-19162001D01*
G75*
G02*
X47186001Y-19412000I-249999J0D01*
G01*
X46285999Y-19412000D01*
G75*
G02*
X46036000Y-19162001I0J249999D01*
G01*
X46036000Y-18636999D01*
G75*
G02*
X46285999Y-18387000I249999J0D01*
G01*
G37*
%TD.AperFunction*%
%TO.P,R5,2*%
%TO.N,Net-(R1-Pad2)*%
%TA.AperFunction,SMDPad,CuDef*%
G36*
G01*
X46285999Y-20212000D02*
X47186001Y-20212000D01*
G75*
G02*
X47436000Y-20461999I0J-249999D01*
G01*
X47436000Y-20987001D01*
G75*
G02*
X47186001Y-21237000I-249999J0D01*
G01*
X46285999Y-21237000D01*
G75*
G02*
X46036000Y-20987001I0J249999D01*
G01*
X46036000Y-20461999D01*
G75*
G02*
X46285999Y-20212000I249999J0D01*
G01*
G37*
%TD.AperFunction*%
%TD*%
%TO.P,R6,2*%
%TO.N,Net-(R1-Pad2)*%
%TA.AperFunction,SMDPad,CuDef*%
G36*
G01*
X53702000Y-25203999D02*
X53702000Y-26104001D01*
G75*
G02*
X53452001Y-26354000I-249999J0D01*
G01*
X52926999Y-26354000D01*
G75*
G02*
X52677000Y-26104001I0J249999D01*
G01*
X52677000Y-25203999D01*
G75*
G02*
X52926999Y-24954000I249999J0D01*
G01*
X53452001Y-24954000D01*
G75*
G02*
X53702000Y-25203999I0J-249999D01*
G01*
G37*
%TD.AperFunction*%
%TO.P,R6,1*%
%TO.N,Net-(R6-Pad1)*%
%TA.AperFunction,SMDPad,CuDef*%
G36*
G01*
X55527000Y-25203999D02*
X55527000Y-26104001D01*
G75*
G02*
X55277001Y-26354000I-249999J0D01*
G01*
X54751999Y-26354000D01*
G75*
G02*
X54502000Y-26104001I0J249999D01*
G01*
X54502000Y-25203999D01*
G75*
G02*
X54751999Y-24954000I249999J0D01*
G01*
X55277001Y-24954000D01*
G75*
G02*
X55527000Y-25203999I0J-249999D01*
G01*
G37*
%TD.AperFunction*%
%TD*%
%TO.P,R7,2*%
%TO.N,Net-(R7-Pad2)*%
%TA.AperFunction,SMDPad,CuDef*%
G36*
G01*
X50184000Y-23564001D02*
X50184000Y-22663999D01*
G75*
G02*
X50433999Y-22414000I249999J0D01*
G01*
X50959001Y-22414000D01*
G75*
G02*
X51209000Y-22663999I0J-249999D01*
G01*
X51209000Y-23564001D01*
G75*
G02*
X50959001Y-23814000I-249999J0D01*
G01*
X50433999Y-23814000D01*
G75*
G02*
X50184000Y-23564001I0J249999D01*
G01*
G37*
%TD.AperFunction*%
%TO.P,R7,1*%
%TO.N,Net-(C2-Pad1)*%
%TA.AperFunction,SMDPad,CuDef*%
G36*
G01*
X48359000Y-23564001D02*
X48359000Y-22663999D01*
G75*
G02*
X48608999Y-22414000I249999J0D01*
G01*
X49134001Y-22414000D01*
G75*
G02*
X49384000Y-22663999I0J-249999D01*
G01*
X49384000Y-23564001D01*
G75*
G02*
X49134001Y-23814000I-249999J0D01*
G01*
X48608999Y-23814000D01*
G75*
G02*
X48359000Y-23564001I0J249999D01*
G01*
G37*
%TD.AperFunction*%
%TD*%
D19*
%TO.P,RV1,1*%
%TO.N,Net-(C2-Pad1)*%
X64008000Y-9652000D03*
%TO.P,RV1,2*%
%TO.N,GND*%
X62608000Y-17152000D03*
%TD*%
D20*
%TO.P,SW1,*%
%TO.N,*%
X17862000Y-24180000D03*
D21*
%TO.P,SW1,2*%
%TO.N,Net-(D2-Pad1)*%
X19122000Y-26670000D03*
%TO.P,SW1,1*%
%TO.N,GND*%
X23622000Y-26670000D03*
D20*
%TO.P,SW1,*%
%TO.N,*%
X24872000Y-24180000D03*
%TD*%
D22*
%TO.P,SW2,*%
%TO.N,*%
X5538000Y-27920000D03*
D21*
%TO.P,SW2,1*%
%TO.N,Net-(R1-Pad2)*%
X3048000Y-26670000D03*
%TO.P,SW2,2*%
%TO.N,GND*%
X3048000Y-22170000D03*
D22*
%TO.P,SW2,*%
%TO.N,*%
X5538000Y-20910000D03*
%TD*%
D23*
%TO.P,U1,1*%
%TO.N,Net-(R3-Pad2)*%
X34580000Y-20912000D03*
%TO.P,U1,2*%
%TO.N,Net-(R2-Pad1)*%
X35230000Y-20912000D03*
%TO.P,U1,3*%
%TO.N,Net-(C4-Pad1)*%
X35890000Y-20912000D03*
%TO.P,U1,4*%
%TO.N,GND*%
X36540000Y-20912000D03*
%TO.P,U1,5*%
%TO.N,Net-(C2-Pad1)*%
X36540000Y-18712000D03*
%TO.P,U1,6*%
X35890000Y-18712000D03*
%TO.P,U1,7*%
%TO.N,VCC*%
X35230000Y-18712000D03*
%TO.P,U1,8*%
X34580000Y-18712000D03*
%TD*%
%TO.P,U2,8*%
%TO.N,VCC*%
X51344000Y-18712000D03*
%TO.P,U2,7*%
X51994000Y-18712000D03*
%TO.P,U2,6*%
%TO.N,Net-(C2-Pad1)*%
X52654000Y-18712000D03*
%TO.P,U2,5*%
X53304000Y-18712000D03*
%TO.P,U2,4*%
%TO.N,GND*%
X53304000Y-20912000D03*
%TO.P,U2,3*%
%TO.N,Net-(C7-Pad1)*%
X52654000Y-20912000D03*
%TO.P,U2,2*%
%TO.N,Net-(R6-Pad1)*%
X51994000Y-20912000D03*
%TO.P,U2,1*%
%TO.N,Net-(R7-Pad2)*%
X51344000Y-20912000D03*
%TD*%
D24*
%TO.N,GND*%
X33655000Y-20828000D03*
D25*
X29210000Y-8636000D03*
X30226000Y-9652000D03*
X31242000Y-8636000D03*
X32258000Y-9652000D03*
X33274000Y-8636000D03*
X33782000Y-10668000D03*
X34798000Y-11684000D03*
X33782000Y-12700000D03*
D24*
X40386000Y-22860000D03*
X40386000Y-24892000D03*
X57658000Y-23876000D03*
X57658000Y-22860000D03*
X49022000Y-25400000D03*
X40386000Y-23876000D03*
X57658000Y-24892000D03*
X40386000Y-21844000D03*
X48006000Y-25400000D03*
X50038000Y-25400000D03*
X32258000Y-25400000D03*
X31242000Y-25400000D03*
X33274000Y-25400000D03*
X57658000Y-21844000D03*
D25*
X28194000Y-9652000D03*
X34798000Y-9652000D03*
D24*
%TO.N,VCC*%
X33020000Y-14478000D03*
X34036000Y-14478000D03*
X35052000Y-14478000D03*
X48260000Y-14478000D03*
X51308000Y-14478000D03*
X50292000Y-14478000D03*
X49276000Y-14478000D03*
X47244000Y-14478000D03*
X46228000Y-14478000D03*
X45212000Y-14478000D03*
X44196000Y-14478000D03*
X43180000Y-14478000D03*
X42164000Y-14478000D03*
X41148000Y-14478000D03*
X40132000Y-14478000D03*
X39116000Y-14478000D03*
X38100000Y-14478000D03*
X37084000Y-14478000D03*
X36068000Y-14478000D03*
D26*
%TO.N,Net-(C2-Pad1)*%
X47752000Y-23114000D03*
X31242000Y-23114000D03*
D25*
X41656000Y-18415000D03*
X43688000Y-18415000D03*
X41656000Y-20447000D03*
X42672000Y-19431000D03*
X42672000Y-21463000D03*
X43688000Y-20447000D03*
X44704000Y-19431000D03*
X44704000Y-21463000D03*
D24*
X86106000Y-8636000D03*
X85090000Y-8636000D03*
X84074000Y-8636000D03*
X83058000Y-8636000D03*
X82042000Y-8636000D03*
X81026000Y-8636000D03*
X80010000Y-8636000D03*
X78994000Y-8636000D03*
X77978000Y-8636000D03*
X76962000Y-8636000D03*
X75946000Y-8636000D03*
X74930000Y-8636000D03*
X73914000Y-8636000D03*
X72898000Y-8636000D03*
X71882000Y-8636000D03*
X70866000Y-8636000D03*
X69850000Y-8636000D03*
X68834000Y-8636000D03*
X67818000Y-8636000D03*
X66802000Y-8636000D03*
X65786000Y-8636000D03*
X62230000Y-8636000D03*
X61214000Y-8636000D03*
X60198000Y-8636000D03*
X59182000Y-8636000D03*
X58166000Y-8636000D03*
X57150000Y-8636000D03*
X56134000Y-8636000D03*
X55118000Y-8636000D03*
X54102000Y-8636000D03*
X53086000Y-8636000D03*
X53086000Y-9652000D03*
X53086000Y-10668000D03*
X53086000Y-11684000D03*
X53086000Y-12700000D03*
X53086000Y-13716000D03*
X53086000Y-14732000D03*
X53086000Y-15748000D03*
X53086000Y-16764000D03*
%TO.N,Net-(D1-Pad1)*%
X24892000Y-18034000D03*
X23876000Y-18034000D03*
X22860000Y-18034000D03*
X21844000Y-18034000D03*
X20828000Y-18034000D03*
X19812000Y-18034000D03*
X18796000Y-18034000D03*
X17780000Y-18034000D03*
X16764000Y-18034000D03*
X15748000Y-18034000D03*
X14732000Y-18034000D03*
X13716000Y-18034000D03*
X12700000Y-18034000D03*
X11684000Y-18034000D03*
X10668000Y-18034000D03*
%TO.N,Net-(D1-Pad2)*%
X24892000Y-8890000D03*
X23876000Y-8890000D03*
X10668000Y-8890000D03*
X11684000Y-8890000D03*
X12700000Y-8890000D03*
X13716000Y-8890000D03*
X14732000Y-8890000D03*
X15748000Y-8890000D03*
X16764000Y-8890000D03*
X17780000Y-8890000D03*
X18796000Y-8890000D03*
X19812000Y-8890000D03*
X20828000Y-8890000D03*
X21844000Y-8890000D03*
X22860000Y-8890000D03*
%TD*%
D27*
%TO.N,GND*%
X32258000Y-20762000D02*
X33462000Y-20762000D01*
X33462000Y-20762000D02*
X33528000Y-20828000D01*
%TO.N,Net-(C2-Pad1)*%
X48871500Y-23114000D02*
X47752000Y-23114000D01*
X32107500Y-23114000D02*
X31242000Y-23114000D01*
X31242000Y-23114000D02*
X30122500Y-23114000D01*
%TO.N,Net-(C4-Pad1)*%
X36388000Y-22131000D02*
X36388000Y-23114000D01*
X35890000Y-20912000D02*
X35890000Y-21633000D01*
X35890000Y-21633000D02*
X36388000Y-22131000D01*
%TO.N,Net-(C7-Pad1)*%
X52654000Y-20912000D02*
X52654000Y-21633000D01*
X53152000Y-22131000D02*
X53152000Y-23114000D01*
X52654000Y-21633000D02*
X53152000Y-22131000D01*
%TO.N,Net-(D2-Pad1)*%
X12446000Y-22606000D02*
X12446000Y-25400000D01*
X13716000Y-26670000D02*
X19122000Y-26670000D01*
X12446000Y-25400000D02*
X13716000Y-26670000D01*
%TO.N,Net-(D2-Pad2)*%
X14986000Y-22606000D02*
X26924000Y-22606000D01*
X27432000Y-23114000D02*
X28297500Y-23114000D01*
X26924000Y-22606000D02*
X27432000Y-23114000D01*
%TO.N,Net-(R1-Pad2)*%
X6858000Y-26162000D02*
X9144000Y-28448000D01*
X3048000Y-26670000D02*
X3556000Y-26162000D01*
X3556000Y-26162000D02*
X6858000Y-26162000D01*
X46736000Y-20724500D02*
X46736000Y-28448000D01*
X9144000Y-28448000D02*
X29210000Y-28448000D01*
X29210000Y-28448000D02*
X36322000Y-28448000D01*
X36322000Y-28448000D02*
X46736000Y-28448000D01*
X29210000Y-22098000D02*
X29210000Y-28448000D01*
X29972000Y-20724500D02*
X29972000Y-21336000D01*
X29972000Y-21336000D02*
X29210000Y-22098000D01*
X36322000Y-25757500D02*
X36322000Y-28448000D01*
X36425500Y-25654000D02*
X36322000Y-25757500D01*
X53189500Y-27836500D02*
X53189500Y-25654000D01*
X46736000Y-28448000D02*
X52578000Y-28448000D01*
X52578000Y-28448000D02*
X53189500Y-27836500D01*
%TO.N,Net-(R2-Pad1)*%
X38250500Y-24788500D02*
X38250500Y-25654000D01*
X37846000Y-24384000D02*
X38250500Y-24788500D01*
X35814000Y-24384000D02*
X37846000Y-24384000D01*
X35230000Y-20912000D02*
X35230000Y-23800000D01*
X35230000Y-23800000D02*
X35814000Y-24384000D01*
%TO.N,Net-(R3-Pad2)*%
X33932500Y-22201500D02*
X33932500Y-23114000D01*
X34580000Y-20912000D02*
X34580000Y-21554000D01*
X34580000Y-21554000D02*
X33932500Y-22201500D01*
%TO.N,Net-(R6-Pad1)*%
X55014500Y-24788500D02*
X55014500Y-25654000D01*
X54610000Y-24384000D02*
X55014500Y-24788500D01*
X52578000Y-24384000D02*
X54610000Y-24384000D01*
X51994000Y-20912000D02*
X51994000Y-23800000D01*
X51994000Y-23800000D02*
X52578000Y-24384000D01*
%TO.N,Net-(R7-Pad2)*%
X50696500Y-22276750D02*
X50696500Y-23114000D01*
X51344000Y-20912000D02*
X51344000Y-21629250D01*
X51344000Y-21629250D02*
X50696500Y-22276750D01*
%TD*%
%TO.N,GND*%
X89619401Y-29619400D02*
X380600Y-29619400D01*
X380600Y-26541410D01*
X1742400Y-26541410D01*
X1742400Y-26798590D01*
X1792574Y-27050829D01*
X1890993Y-27288433D01*
X2033874Y-27502271D01*
X2215729Y-27684126D01*
X2429567Y-27827007D01*
X2667171Y-27925426D01*
X2919410Y-27975600D01*
X3176590Y-27975600D01*
X3428829Y-27925426D01*
X3666433Y-27827007D01*
X3880271Y-27684126D01*
X4062126Y-27502271D01*
X4205007Y-27288433D01*
X4303426Y-27050829D01*
X4353600Y-26798590D01*
X4353600Y-26619200D01*
X4724593Y-26619200D01*
X4539282Y-26771283D01*
X4363631Y-26985313D01*
X4233112Y-27229499D01*
X4152738Y-27494455D01*
X4132400Y-27700950D01*
X4132400Y-28139051D01*
X4152738Y-28345546D01*
X4233112Y-28610502D01*
X4363631Y-28854688D01*
X4539283Y-29068718D01*
X4753313Y-29244369D01*
X4997499Y-29374888D01*
X5262455Y-29455262D01*
X5538000Y-29482401D01*
X5813546Y-29455262D01*
X6078502Y-29374888D01*
X6322688Y-29244369D01*
X6536718Y-29068718D01*
X6712369Y-28854688D01*
X6842888Y-28610501D01*
X6923262Y-28345545D01*
X6943600Y-28139050D01*
X6943600Y-27700949D01*
X6923262Y-27494454D01*
X6842888Y-27229498D01*
X6712369Y-26985312D01*
X6536717Y-26771282D01*
X6351406Y-26619200D01*
X6668623Y-26619200D01*
X8804830Y-28755408D01*
X8819147Y-28772853D01*
X8888764Y-28829987D01*
X8968191Y-28872441D01*
X9054373Y-28898585D01*
X9121540Y-28905200D01*
X9121549Y-28905200D01*
X9143999Y-28907411D01*
X9166449Y-28905200D01*
X29187540Y-28905200D01*
X29210000Y-28907412D01*
X29232460Y-28905200D01*
X36299540Y-28905200D01*
X36322000Y-28907412D01*
X36344460Y-28905200D01*
X46713540Y-28905200D01*
X46736000Y-28907412D01*
X46758460Y-28905200D01*
X52555550Y-28905200D01*
X52578000Y-28907411D01*
X52600450Y-28905200D01*
X52600460Y-28905200D01*
X52667627Y-28898585D01*
X52753809Y-28872441D01*
X52833236Y-28829987D01*
X52902853Y-28772853D01*
X52917174Y-28755403D01*
X53272577Y-28400000D01*
X80961450Y-28400000D01*
X80973220Y-28519503D01*
X81008078Y-28634413D01*
X81064683Y-28740315D01*
X81140862Y-28833138D01*
X81233685Y-28909317D01*
X81339587Y-28965922D01*
X81454497Y-29000780D01*
X81574000Y-29012550D01*
X83261200Y-29009600D01*
X83413600Y-28857200D01*
X83413600Y-26060400D01*
X84734400Y-26060400D01*
X84734400Y-28857200D01*
X84886800Y-29009600D01*
X86574000Y-29012550D01*
X86693503Y-29000780D01*
X86808413Y-28965922D01*
X86914315Y-28909317D01*
X87007138Y-28833138D01*
X87083317Y-28740315D01*
X87139922Y-28634413D01*
X87174780Y-28519503D01*
X87186550Y-28400000D01*
X87183600Y-26212800D01*
X87031200Y-26060400D01*
X84734400Y-26060400D01*
X83413600Y-26060400D01*
X81116800Y-26060400D01*
X80964400Y-26212800D01*
X80961450Y-28400000D01*
X53272577Y-28400000D01*
X53496914Y-28175664D01*
X53514353Y-28161353D01*
X53528665Y-28143914D01*
X53528671Y-28143908D01*
X53571487Y-28091736D01*
X53613941Y-28012310D01*
X53625077Y-27975600D01*
X53640085Y-27926127D01*
X53646700Y-27858960D01*
X53646700Y-27858950D01*
X53648911Y-27836500D01*
X53646700Y-27814050D01*
X53646700Y-26676531D01*
X53684412Y-26665091D01*
X53789409Y-26608968D01*
X53881440Y-26533440D01*
X53956968Y-26441409D01*
X54013091Y-26336412D01*
X54047651Y-26222483D01*
X54059320Y-26104001D01*
X54059320Y-25203999D01*
X54047651Y-25085517D01*
X54013091Y-24971588D01*
X53956968Y-24866591D01*
X53936130Y-24841200D01*
X54267870Y-24841200D01*
X54247032Y-24866591D01*
X54190909Y-24971588D01*
X54156349Y-25085517D01*
X54144680Y-25203999D01*
X54144680Y-26104001D01*
X54156349Y-26222483D01*
X54190909Y-26336412D01*
X54247032Y-26441409D01*
X54322560Y-26533440D01*
X54414591Y-26608968D01*
X54519588Y-26665091D01*
X54633517Y-26699651D01*
X54751999Y-26711320D01*
X55277001Y-26711320D01*
X55395483Y-26699651D01*
X55509412Y-26665091D01*
X55614409Y-26608968D01*
X55706440Y-26533440D01*
X55781968Y-26441409D01*
X55838091Y-26336412D01*
X55872651Y-26222483D01*
X55884320Y-26104001D01*
X55884320Y-25203999D01*
X55872651Y-25085517D01*
X55838091Y-24971588D01*
X55781968Y-24866591D01*
X55706440Y-24774560D01*
X55614409Y-24699032D01*
X55509412Y-24642909D01*
X55441895Y-24622428D01*
X55438941Y-24612691D01*
X55419178Y-24575717D01*
X55396487Y-24533263D01*
X55353670Y-24481092D01*
X55339353Y-24463647D01*
X55321909Y-24449331D01*
X54949174Y-24076597D01*
X54934853Y-24059147D01*
X54899600Y-24030215D01*
X54899600Y-23266400D01*
X55204400Y-23266400D01*
X55204400Y-24067600D01*
X55280600Y-24143800D01*
X55552000Y-24145275D01*
X55611751Y-24139390D01*
X55669206Y-24121961D01*
X55722157Y-24093658D01*
X55768569Y-24055569D01*
X55806658Y-24009157D01*
X55834961Y-23956206D01*
X55852390Y-23898751D01*
X55858275Y-23839000D01*
X55856800Y-23342600D01*
X55780600Y-23266400D01*
X55204400Y-23266400D01*
X54899600Y-23266400D01*
X54323400Y-23266400D01*
X54247200Y-23342600D01*
X54245725Y-23839000D01*
X54251610Y-23898751D01*
X54260119Y-23926800D01*
X53906647Y-23926800D01*
X53906968Y-23926409D01*
X53963091Y-23821411D01*
X53997651Y-23707482D01*
X54009320Y-23589000D01*
X54009320Y-22639000D01*
X53997651Y-22520518D01*
X53963091Y-22406589D01*
X53953690Y-22389000D01*
X54245725Y-22389000D01*
X54247200Y-22885400D01*
X54323400Y-22961600D01*
X54899600Y-22961600D01*
X54899600Y-22160400D01*
X55204400Y-22160400D01*
X55204400Y-22961600D01*
X55780600Y-22961600D01*
X55856800Y-22885400D01*
X55858242Y-22400000D01*
X80961450Y-22400000D01*
X80964400Y-24587200D01*
X81116800Y-24739600D01*
X83413600Y-24739600D01*
X83413600Y-21942800D01*
X84734400Y-21942800D01*
X84734400Y-24739600D01*
X87031200Y-24739600D01*
X87183600Y-24587200D01*
X87186550Y-22400000D01*
X87174780Y-22280497D01*
X87139922Y-22165587D01*
X87083317Y-22059685D01*
X87007138Y-21966862D01*
X86914315Y-21890683D01*
X86808413Y-21834078D01*
X86693503Y-21799220D01*
X86574000Y-21787450D01*
X84886800Y-21790400D01*
X84734400Y-21942800D01*
X83413600Y-21942800D01*
X83261200Y-21790400D01*
X81574000Y-21787450D01*
X81454497Y-21799220D01*
X81339587Y-21834078D01*
X81233685Y-21890683D01*
X81140862Y-21966862D01*
X81064683Y-22059685D01*
X81008078Y-22165587D01*
X80973220Y-22280497D01*
X80961450Y-22400000D01*
X55858242Y-22400000D01*
X55858275Y-22389000D01*
X55852390Y-22329249D01*
X55834961Y-22271794D01*
X55806658Y-22218843D01*
X55768569Y-22172431D01*
X55722157Y-22134342D01*
X55669206Y-22106039D01*
X55611751Y-22088610D01*
X55552000Y-22082725D01*
X55280600Y-22084200D01*
X55204400Y-22160400D01*
X54899600Y-22160400D01*
X54823400Y-22084200D01*
X54552000Y-22082725D01*
X54492249Y-22088610D01*
X54434794Y-22106039D01*
X54381843Y-22134342D01*
X54335431Y-22172431D01*
X54297342Y-22218843D01*
X54269039Y-22271794D01*
X54251610Y-22329249D01*
X54245725Y-22389000D01*
X53953690Y-22389000D01*
X53906968Y-22301591D01*
X53831440Y-22209560D01*
X53739409Y-22134032D01*
X53634411Y-22077909D01*
X53605314Y-22069083D01*
X53602585Y-22041373D01*
X53576441Y-21955191D01*
X53543784Y-21894093D01*
X53533987Y-21875763D01*
X53491170Y-21823592D01*
X53476853Y-21806147D01*
X53459409Y-21791831D01*
X53414378Y-21746800D01*
X53456402Y-21746800D01*
X53456402Y-21724602D01*
X53478600Y-21746800D01*
X53504000Y-21748275D01*
X53563751Y-21742390D01*
X53621206Y-21724961D01*
X53674157Y-21696658D01*
X53720569Y-21658569D01*
X53758658Y-21612157D01*
X53786961Y-21559206D01*
X53804390Y-21501751D01*
X53810275Y-21442000D01*
X53809395Y-21262000D01*
X54594725Y-21262000D01*
X54600610Y-21321751D01*
X54618039Y-21379206D01*
X54646342Y-21432157D01*
X54684431Y-21478569D01*
X54730843Y-21516658D01*
X54783794Y-21544961D01*
X54841249Y-21562390D01*
X54901000Y-21568275D01*
X55397400Y-21566800D01*
X55473600Y-21490600D01*
X55473600Y-20914400D01*
X55778400Y-20914400D01*
X55778400Y-21490600D01*
X55854600Y-21566800D01*
X56351000Y-21568275D01*
X56410751Y-21562390D01*
X56468206Y-21544961D01*
X56521157Y-21516658D01*
X56567569Y-21478569D01*
X56605658Y-21432157D01*
X56633961Y-21379206D01*
X56651390Y-21321751D01*
X56657275Y-21262000D01*
X56655800Y-20990600D01*
X56579600Y-20914400D01*
X55778400Y-20914400D01*
X55473600Y-20914400D01*
X54672400Y-20914400D01*
X54596200Y-20990600D01*
X54594725Y-21262000D01*
X53809395Y-21262000D01*
X53808800Y-21140600D01*
X53732600Y-21064400D01*
X53402400Y-21064400D01*
X53402400Y-21084400D01*
X53211320Y-21084400D01*
X53211320Y-20382000D01*
X53205600Y-20323925D01*
X53205600Y-20153400D01*
X53402400Y-20153400D01*
X53402400Y-20759600D01*
X53732600Y-20759600D01*
X53808800Y-20683400D01*
X53810275Y-20382000D01*
X53804390Y-20322249D01*
X53786961Y-20264794D01*
X53785468Y-20262000D01*
X54594725Y-20262000D01*
X54596200Y-20533400D01*
X54672400Y-20609600D01*
X55473600Y-20609600D01*
X55473600Y-20033400D01*
X55778400Y-20033400D01*
X55778400Y-20609600D01*
X56579600Y-20609600D01*
X56655800Y-20533400D01*
X56657275Y-20262000D01*
X56651390Y-20202249D01*
X56633961Y-20144794D01*
X56605658Y-20091843D01*
X56567569Y-20045431D01*
X56521157Y-20007342D01*
X56468206Y-19979039D01*
X56410751Y-19961610D01*
X56351000Y-19955725D01*
X55854600Y-19957200D01*
X55778400Y-20033400D01*
X55473600Y-20033400D01*
X55397400Y-19957200D01*
X54901000Y-19955725D01*
X54841249Y-19961610D01*
X54783794Y-19979039D01*
X54730843Y-20007342D01*
X54684431Y-20045431D01*
X54646342Y-20091843D01*
X54618039Y-20144794D01*
X54600610Y-20202249D01*
X54594725Y-20262000D01*
X53785468Y-20262000D01*
X53758658Y-20211843D01*
X53720569Y-20165431D01*
X53674157Y-20127342D01*
X53621206Y-20099039D01*
X53563751Y-20081610D01*
X53504000Y-20075725D01*
X53478600Y-20077200D01*
X53402400Y-20153400D01*
X53205600Y-20153400D01*
X53129400Y-20077200D01*
X53104000Y-20075725D01*
X53046034Y-20081434D01*
X52990740Y-20051879D01*
X52923710Y-20031546D01*
X52854000Y-20024680D01*
X52454000Y-20024680D01*
X52384290Y-20031546D01*
X52324000Y-20049834D01*
X52263710Y-20031546D01*
X52194000Y-20024680D01*
X51794000Y-20024680D01*
X51724290Y-20031546D01*
X51669000Y-20048318D01*
X51613710Y-20031546D01*
X51544000Y-20024680D01*
X51144000Y-20024680D01*
X51074290Y-20031546D01*
X51007260Y-20051879D01*
X50945484Y-20084899D01*
X50891337Y-20129337D01*
X50846899Y-20183484D01*
X50813879Y-20245260D01*
X50793546Y-20312290D01*
X50786680Y-20382000D01*
X50786680Y-21442000D01*
X50793546Y-21511710D01*
X50798530Y-21528142D01*
X50389097Y-21937576D01*
X50371647Y-21951897D01*
X50314513Y-22021515D01*
X50284441Y-22077776D01*
X50201588Y-22102909D01*
X50096591Y-22159032D01*
X50004560Y-22234560D01*
X49929032Y-22326591D01*
X49872909Y-22431588D01*
X49838349Y-22545517D01*
X49826680Y-22663999D01*
X49826680Y-23564001D01*
X49838349Y-23682483D01*
X49872909Y-23796412D01*
X49929032Y-23901409D01*
X50004560Y-23993440D01*
X50096591Y-24068968D01*
X50201588Y-24125091D01*
X50315517Y-24159651D01*
X50433999Y-24171320D01*
X50959001Y-24171320D01*
X51077483Y-24159651D01*
X51191412Y-24125091D01*
X51296409Y-24068968D01*
X51388440Y-23993440D01*
X51463968Y-23901409D01*
X51520091Y-23796412D01*
X51536801Y-23741327D01*
X51536801Y-23777540D01*
X51534589Y-23800000D01*
X51536801Y-23822460D01*
X51543416Y-23889627D01*
X51556700Y-23933416D01*
X51569560Y-23975809D01*
X51612013Y-24055235D01*
X51643547Y-24093658D01*
X51669148Y-24124853D01*
X51686592Y-24139169D01*
X52238834Y-24691413D01*
X52253147Y-24708853D01*
X52270586Y-24723165D01*
X52270592Y-24723171D01*
X52322764Y-24765987D01*
X52402190Y-24808441D01*
X52422249Y-24814526D01*
X52456287Y-24824851D01*
X52422032Y-24866591D01*
X52365909Y-24971588D01*
X52331349Y-25085517D01*
X52319680Y-25203999D01*
X52319680Y-26104001D01*
X52331349Y-26222483D01*
X52365909Y-26336412D01*
X52422032Y-26441409D01*
X52497560Y-26533440D01*
X52589591Y-26608968D01*
X52694588Y-26665091D01*
X52732301Y-26676531D01*
X52732300Y-27647121D01*
X52388623Y-27990800D01*
X47193200Y-27990800D01*
X47193200Y-23466385D01*
X47239034Y-23534980D01*
X47331020Y-23626966D01*
X47439183Y-23699239D01*
X47559369Y-23749021D01*
X47686956Y-23774400D01*
X47817044Y-23774400D01*
X47944631Y-23749021D01*
X48023610Y-23716307D01*
X48047909Y-23796412D01*
X48104032Y-23901409D01*
X48179560Y-23993440D01*
X48271591Y-24068968D01*
X48376588Y-24125091D01*
X48490517Y-24159651D01*
X48608999Y-24171320D01*
X49134001Y-24171320D01*
X49252483Y-24159651D01*
X49366412Y-24125091D01*
X49471409Y-24068968D01*
X49563440Y-23993440D01*
X49638968Y-23901409D01*
X49695091Y-23796412D01*
X49729651Y-23682483D01*
X49741320Y-23564001D01*
X49741320Y-22663999D01*
X49729651Y-22545517D01*
X49695091Y-22431588D01*
X49638968Y-22326591D01*
X49563440Y-22234560D01*
X49471409Y-22159032D01*
X49366412Y-22102909D01*
X49252483Y-22068349D01*
X49134001Y-22056680D01*
X48608999Y-22056680D01*
X48490517Y-22068349D01*
X48376588Y-22102909D01*
X48271591Y-22159032D01*
X48179560Y-22234560D01*
X48104032Y-22326591D01*
X48047909Y-22431588D01*
X48023610Y-22511693D01*
X47944631Y-22478979D01*
X47817044Y-22453600D01*
X47686956Y-22453600D01*
X47559369Y-22478979D01*
X47439183Y-22528761D01*
X47331020Y-22601034D01*
X47239034Y-22693020D01*
X47193200Y-22761615D01*
X47193200Y-21593611D01*
X47304483Y-21582651D01*
X47418412Y-21548091D01*
X47523409Y-21491968D01*
X47615440Y-21416440D01*
X47690968Y-21324409D01*
X47724326Y-21262000D01*
X47990725Y-21262000D01*
X47996610Y-21321751D01*
X48014039Y-21379206D01*
X48042342Y-21432157D01*
X48080431Y-21478569D01*
X48126843Y-21516658D01*
X48179794Y-21544961D01*
X48237249Y-21562390D01*
X48297000Y-21568275D01*
X48793400Y-21566800D01*
X48869600Y-21490600D01*
X48869600Y-20914400D01*
X49174400Y-20914400D01*
X49174400Y-21490600D01*
X49250600Y-21566800D01*
X49747000Y-21568275D01*
X49806751Y-21562390D01*
X49864206Y-21544961D01*
X49917157Y-21516658D01*
X49963569Y-21478569D01*
X50001658Y-21432157D01*
X50029961Y-21379206D01*
X50047390Y-21321751D01*
X50053275Y-21262000D01*
X50051800Y-20990600D01*
X49975600Y-20914400D01*
X49174400Y-20914400D01*
X48869600Y-20914400D01*
X48068400Y-20914400D01*
X47992200Y-20990600D01*
X47990725Y-21262000D01*
X47724326Y-21262000D01*
X47747091Y-21219412D01*
X47781651Y-21105483D01*
X47793320Y-20987001D01*
X47793320Y-20461999D01*
X47781651Y-20343517D01*
X47756924Y-20262000D01*
X47990725Y-20262000D01*
X47992200Y-20533400D01*
X48068400Y-20609600D01*
X48869600Y-20609600D01*
X48869600Y-20033400D01*
X49174400Y-20033400D01*
X49174400Y-20609600D01*
X49975600Y-20609600D01*
X50051800Y-20533400D01*
X50053275Y-20262000D01*
X50047390Y-20202249D01*
X50029961Y-20144794D01*
X50001658Y-20091843D01*
X49963569Y-20045431D01*
X49917157Y-20007342D01*
X49864206Y-19979039D01*
X49806751Y-19961610D01*
X49747000Y-19955725D01*
X49250600Y-19957200D01*
X49174400Y-20033400D01*
X48869600Y-20033400D01*
X48793400Y-19957200D01*
X48297000Y-19955725D01*
X48237249Y-19961610D01*
X48179794Y-19979039D01*
X48126843Y-20007342D01*
X48080431Y-20045431D01*
X48042342Y-20091843D01*
X48014039Y-20144794D01*
X47996610Y-20202249D01*
X47990725Y-20262000D01*
X47756924Y-20262000D01*
X47747091Y-20229588D01*
X47690968Y-20124591D01*
X47615440Y-20032560D01*
X47523409Y-19957032D01*
X47442155Y-19913600D01*
X52197000Y-19913600D01*
X52266374Y-19906767D01*
X52324000Y-19889287D01*
X52381626Y-19906767D01*
X52451000Y-19913600D01*
X56896000Y-19913600D01*
X56965374Y-19906767D01*
X57032082Y-19886532D01*
X57093561Y-19853671D01*
X57147447Y-19809447D01*
X57191671Y-19755561D01*
X57224532Y-19694082D01*
X57244767Y-19627374D01*
X57251600Y-19558000D01*
X57251600Y-18434614D01*
X61900122Y-18434614D01*
X62016608Y-18657390D01*
X62321658Y-18743839D01*
X62637713Y-18769115D01*
X62952625Y-18732246D01*
X63199392Y-18657390D01*
X63315878Y-18434614D01*
X62608000Y-17726736D01*
X61900122Y-18434614D01*
X57251600Y-18434614D01*
X57251600Y-17181713D01*
X60990885Y-17181713D01*
X61027754Y-17496625D01*
X61102610Y-17743392D01*
X61325386Y-17859878D01*
X62033264Y-17152000D01*
X63182736Y-17152000D01*
X63890614Y-17859878D01*
X64113390Y-17743392D01*
X64199839Y-17438342D01*
X64206761Y-17351788D01*
X72042948Y-17351788D01*
X72185019Y-17594745D01*
X72525055Y-17701699D01*
X72879423Y-17740260D01*
X73234505Y-17708947D01*
X73576655Y-17608962D01*
X73610981Y-17594745D01*
X73753052Y-17351788D01*
X72898000Y-16496736D01*
X72042948Y-17351788D01*
X64206761Y-17351788D01*
X64225115Y-17122287D01*
X64188246Y-16807375D01*
X64113390Y-16560608D01*
X63890614Y-16444122D01*
X63182736Y-17152000D01*
X62033264Y-17152000D01*
X61325386Y-16444122D01*
X61102610Y-16560608D01*
X61016161Y-16865658D01*
X60990885Y-17181713D01*
X57251600Y-17181713D01*
X57251600Y-15869386D01*
X61900122Y-15869386D01*
X62608000Y-16577264D01*
X63281841Y-15903423D01*
X71079740Y-15903423D01*
X71111053Y-16258505D01*
X71211038Y-16600655D01*
X71225255Y-16634981D01*
X71468212Y-16777052D01*
X72323264Y-15922000D01*
X73472736Y-15922000D01*
X74327788Y-16777052D01*
X74570745Y-16634981D01*
X74677699Y-16294945D01*
X74716260Y-15940577D01*
X74684947Y-15585495D01*
X74584962Y-15243345D01*
X74570745Y-15209019D01*
X74327788Y-15066948D01*
X73472736Y-15922000D01*
X72323264Y-15922000D01*
X71468212Y-15066948D01*
X71225255Y-15209019D01*
X71118301Y-15549055D01*
X71079740Y-15903423D01*
X63281841Y-15903423D01*
X63315878Y-15869386D01*
X63199392Y-15646610D01*
X62894342Y-15560161D01*
X62578287Y-15534885D01*
X62263375Y-15571754D01*
X62016608Y-15646610D01*
X61900122Y-15869386D01*
X57251600Y-15869386D01*
X57251600Y-14492212D01*
X72042948Y-14492212D01*
X72898000Y-15347264D01*
X73753052Y-14492212D01*
X73610981Y-14249255D01*
X73270945Y-14142301D01*
X72916577Y-14103740D01*
X72561495Y-14135053D01*
X72219345Y-14235038D01*
X72185019Y-14249255D01*
X72042948Y-14492212D01*
X57251600Y-14492212D01*
X57251600Y-13563600D01*
X80924400Y-13563600D01*
X80924400Y-18542000D01*
X80931233Y-18611374D01*
X80951468Y-18678082D01*
X80984329Y-18739561D01*
X81028553Y-18793447D01*
X81082439Y-18837671D01*
X81143918Y-18870532D01*
X81210626Y-18890767D01*
X81280000Y-18897600D01*
X86868000Y-18897600D01*
X86937374Y-18890767D01*
X87004082Y-18870532D01*
X87065561Y-18837671D01*
X87119447Y-18793447D01*
X87163671Y-18739561D01*
X87196532Y-18678082D01*
X87216767Y-18611374D01*
X87223600Y-18542000D01*
X87223600Y-7874000D01*
X87216767Y-7804626D01*
X87196532Y-7737918D01*
X87163671Y-7676439D01*
X87119447Y-7622553D01*
X87065561Y-7578329D01*
X87004082Y-7545468D01*
X86937374Y-7525233D01*
X86868000Y-7518400D01*
X52451000Y-7518400D01*
X52381626Y-7525233D01*
X52314918Y-7545468D01*
X52253439Y-7578329D01*
X52199553Y-7622553D01*
X52155329Y-7676439D01*
X52122468Y-7737918D01*
X52102233Y-7804626D01*
X52095400Y-7874000D01*
X52095400Y-13360400D01*
X28956000Y-13360400D01*
X28886626Y-13367233D01*
X28819918Y-13387468D01*
X28758439Y-13420329D01*
X28704553Y-13464553D01*
X28660329Y-13518439D01*
X28627468Y-13579918D01*
X28607233Y-13646626D01*
X28600400Y-13716000D01*
X28600400Y-14459996D01*
X28589952Y-14494438D01*
X28574680Y-14649500D01*
X28574680Y-15524500D01*
X28589952Y-15679562D01*
X28600400Y-15714004D01*
X28600400Y-19558000D01*
X28607233Y-19627374D01*
X28627468Y-19694082D01*
X28660329Y-19755561D01*
X28704553Y-19809447D01*
X28758439Y-19853671D01*
X28819918Y-19886532D01*
X28886626Y-19906767D01*
X28956000Y-19913600D01*
X29265845Y-19913600D01*
X29184591Y-19957032D01*
X29092560Y-20032560D01*
X29017032Y-20124591D01*
X28960909Y-20229588D01*
X28926349Y-20343517D01*
X28914680Y-20461999D01*
X28914680Y-20987001D01*
X28926349Y-21105483D01*
X28960909Y-21219412D01*
X29017032Y-21324409D01*
X29092560Y-21416440D01*
X29176277Y-21485145D01*
X28902597Y-21758826D01*
X28885147Y-21773147D01*
X28828013Y-21842765D01*
X28785559Y-21922192D01*
X28759415Y-22008374D01*
X28752800Y-22075541D01*
X28752800Y-22075550D01*
X28751333Y-22090448D01*
X28678483Y-22068349D01*
X28560001Y-22056680D01*
X28034999Y-22056680D01*
X27916517Y-22068349D01*
X27802588Y-22102909D01*
X27697591Y-22159032D01*
X27605560Y-22234560D01*
X27530032Y-22326591D01*
X27473909Y-22431588D01*
X27455815Y-22491237D01*
X27263174Y-22298597D01*
X27248853Y-22281147D01*
X27179236Y-22224013D01*
X27099809Y-22181559D01*
X27013627Y-22155415D01*
X26946460Y-22148800D01*
X26946450Y-22148800D01*
X26924000Y-22146589D01*
X26901550Y-22148800D01*
X16155673Y-22148800D01*
X16098698Y-22011251D01*
X15961288Y-21805602D01*
X15786398Y-21630712D01*
X15580749Y-21493302D01*
X15352245Y-21398652D01*
X15109666Y-21350400D01*
X14862334Y-21350400D01*
X14619755Y-21398652D01*
X14391251Y-21493302D01*
X14185602Y-21630712D01*
X14010712Y-21805602D01*
X13873302Y-22011251D01*
X13778652Y-22239755D01*
X13730400Y-22482334D01*
X13730400Y-22729666D01*
X13778652Y-22972245D01*
X13873302Y-23200749D01*
X14010712Y-23406398D01*
X14185602Y-23581288D01*
X14391251Y-23718698D01*
X14619755Y-23813348D01*
X14862334Y-23861600D01*
X15109666Y-23861600D01*
X15352245Y-23813348D01*
X15580749Y-23718698D01*
X15786398Y-23581288D01*
X15961288Y-23406398D01*
X16098698Y-23200749D01*
X16155673Y-23063200D01*
X16857164Y-23063200D01*
X16713282Y-23181282D01*
X16537631Y-23395312D01*
X16407112Y-23639498D01*
X16326738Y-23904454D01*
X16299599Y-24180000D01*
X16326738Y-24455546D01*
X16407112Y-24720502D01*
X16537631Y-24964688D01*
X16713282Y-25178718D01*
X16927312Y-25354369D01*
X17171498Y-25484888D01*
X17436454Y-25565262D01*
X17642949Y-25585600D01*
X18081051Y-25585600D01*
X18287546Y-25565262D01*
X18552502Y-25484888D01*
X18796688Y-25354369D01*
X19010718Y-25178718D01*
X19186369Y-24964688D01*
X19316888Y-24720502D01*
X19397262Y-24455546D01*
X19424401Y-24180000D01*
X19397262Y-23904454D01*
X19316888Y-23639498D01*
X19186369Y-23395312D01*
X19010718Y-23181282D01*
X18866836Y-23063200D01*
X23867164Y-23063200D01*
X23723282Y-23181282D01*
X23547631Y-23395312D01*
X23417112Y-23639498D01*
X23336738Y-23904454D01*
X23309599Y-24180000D01*
X23336738Y-24455546D01*
X23417112Y-24720502D01*
X23547631Y-24964688D01*
X23667690Y-25110980D01*
X23530953Y-25105501D01*
X23227483Y-25153325D01*
X22939175Y-25259434D01*
X22828514Y-25318583D01*
X22735207Y-25567681D01*
X23622000Y-26454474D01*
X23636143Y-26440332D01*
X23851669Y-26655858D01*
X23837526Y-26670000D01*
X24724319Y-27556793D01*
X24973417Y-27463486D01*
X25102251Y-27184591D01*
X25174200Y-26885921D01*
X25186499Y-26578953D01*
X25138675Y-26275483D01*
X25032566Y-25987175D01*
X24973417Y-25876514D01*
X24724321Y-25783208D01*
X24837557Y-25669972D01*
X24753185Y-25585600D01*
X25091051Y-25585600D01*
X25297546Y-25565262D01*
X25562502Y-25484888D01*
X25806688Y-25354369D01*
X26020718Y-25178718D01*
X26196369Y-24964688D01*
X26326888Y-24720502D01*
X26407262Y-24455546D01*
X26434401Y-24180000D01*
X26407262Y-23904454D01*
X26326888Y-23639498D01*
X26196369Y-23395312D01*
X26020718Y-23181282D01*
X25876836Y-23063200D01*
X26734623Y-23063200D01*
X27092830Y-23421408D01*
X27107147Y-23438853D01*
X27124592Y-23453170D01*
X27176763Y-23495987D01*
X27195497Y-23506000D01*
X27256191Y-23538441D01*
X27342373Y-23564585D01*
X27409540Y-23571200D01*
X27409549Y-23571200D01*
X27428574Y-23573074D01*
X27439349Y-23682483D01*
X27473909Y-23796412D01*
X27530032Y-23901409D01*
X27605560Y-23993440D01*
X27697591Y-24068968D01*
X27802588Y-24125091D01*
X27916517Y-24159651D01*
X28034999Y-24171320D01*
X28560001Y-24171320D01*
X28678483Y-24159651D01*
X28752800Y-24137107D01*
X28752801Y-27990800D01*
X24426955Y-27990800D01*
X24508793Y-27772319D01*
X23622000Y-26885526D01*
X22735207Y-27772319D01*
X22817045Y-27990800D01*
X9333378Y-27990800D01*
X7197174Y-25854597D01*
X7182853Y-25837147D01*
X7113236Y-25780013D01*
X7033809Y-25737559D01*
X6947627Y-25711415D01*
X6880460Y-25704800D01*
X6880450Y-25704800D01*
X6858000Y-25702589D01*
X6835550Y-25704800D01*
X3929197Y-25704800D01*
X3880271Y-25655874D01*
X3666433Y-25512993D01*
X3428829Y-25414574D01*
X3176590Y-25364400D01*
X2919410Y-25364400D01*
X2667171Y-25414574D01*
X2429567Y-25512993D01*
X2215729Y-25655874D01*
X2033874Y-25837729D01*
X1890993Y-26051567D01*
X1792574Y-26289171D01*
X1742400Y-26541410D01*
X380600Y-26541410D01*
X380600Y-24891502D01*
X7898400Y-24891502D01*
X7898400Y-25108498D01*
X7940734Y-25321325D01*
X8023775Y-25521803D01*
X8144332Y-25702229D01*
X8297771Y-25855668D01*
X8478197Y-25976225D01*
X8678675Y-26059266D01*
X8891502Y-26101600D01*
X9108498Y-26101600D01*
X9321325Y-26059266D01*
X9521803Y-25976225D01*
X9702229Y-25855668D01*
X9855668Y-25702229D01*
X9976225Y-25521803D01*
X10059266Y-25321325D01*
X10101600Y-25108498D01*
X10101600Y-24891502D01*
X10059266Y-24678675D01*
X9976225Y-24478197D01*
X9855668Y-24297771D01*
X9702229Y-24144332D01*
X9521803Y-24023775D01*
X9321325Y-23940734D01*
X9108498Y-23898400D01*
X8891502Y-23898400D01*
X8678675Y-23940734D01*
X8478197Y-24023775D01*
X8297771Y-24144332D01*
X8144332Y-24297771D01*
X8023775Y-24478197D01*
X7940734Y-24678675D01*
X7898400Y-24891502D01*
X380600Y-24891502D01*
X380600Y-23272319D01*
X2161207Y-23272319D01*
X2254514Y-23521417D01*
X2533409Y-23650251D01*
X2832079Y-23722200D01*
X3139047Y-23734499D01*
X3442517Y-23686675D01*
X3730825Y-23580566D01*
X3841486Y-23521417D01*
X3934793Y-23272319D01*
X3048000Y-22385526D01*
X2161207Y-23272319D01*
X380600Y-23272319D01*
X380600Y-22261047D01*
X1483501Y-22261047D01*
X1531325Y-22564517D01*
X1637434Y-22852825D01*
X1696583Y-22963486D01*
X1945681Y-23056793D01*
X2832474Y-22170000D01*
X1945681Y-21283207D01*
X1696583Y-21376514D01*
X1567749Y-21655409D01*
X1495800Y-21954079D01*
X1483501Y-22261047D01*
X380600Y-22261047D01*
X380600Y-21067681D01*
X2161207Y-21067681D01*
X3048000Y-21954474D01*
X3062143Y-21940332D01*
X3277669Y-22155858D01*
X3263526Y-22170000D01*
X4150319Y-23056793D01*
X4399417Y-22963486D01*
X4528251Y-22684591D01*
X4600200Y-22385921D01*
X4610953Y-22117537D01*
X4753313Y-22234369D01*
X4997499Y-22364888D01*
X5262455Y-22445262D01*
X5538000Y-22472401D01*
X5813546Y-22445262D01*
X6078502Y-22364888D01*
X6322688Y-22234369D01*
X6536718Y-22058718D01*
X6712369Y-21844688D01*
X6786498Y-21706000D01*
X11188680Y-21706000D01*
X11188680Y-23506000D01*
X11195546Y-23575710D01*
X11215879Y-23642740D01*
X11248899Y-23704516D01*
X11293337Y-23758663D01*
X11347484Y-23803101D01*
X11409260Y-23836121D01*
X11476290Y-23856454D01*
X11546000Y-23863320D01*
X11988800Y-23863320D01*
X11988801Y-25377540D01*
X11986589Y-25400000D01*
X11988801Y-25422460D01*
X11995416Y-25489627D01*
X12019094Y-25567681D01*
X12021560Y-25575809D01*
X12064013Y-25655235D01*
X12104691Y-25704800D01*
X12121148Y-25724853D01*
X12138593Y-25739170D01*
X13376830Y-26977408D01*
X13391147Y-26994853D01*
X13408592Y-27009170D01*
X13460763Y-27051987D01*
X13484206Y-27064517D01*
X13540191Y-27094441D01*
X13626373Y-27120585D01*
X13693540Y-27127200D01*
X13693549Y-27127200D01*
X13715999Y-27129411D01*
X13738449Y-27127200D01*
X17898208Y-27127200D01*
X17964993Y-27288433D01*
X18107874Y-27502271D01*
X18289729Y-27684126D01*
X18503567Y-27827007D01*
X18741171Y-27925426D01*
X18993410Y-27975600D01*
X19250590Y-27975600D01*
X19502829Y-27925426D01*
X19740433Y-27827007D01*
X19954271Y-27684126D01*
X20136126Y-27502271D01*
X20279007Y-27288433D01*
X20377426Y-27050829D01*
X20427600Y-26798590D01*
X20427600Y-26761047D01*
X22057501Y-26761047D01*
X22105325Y-27064517D01*
X22211434Y-27352825D01*
X22270583Y-27463486D01*
X22519681Y-27556793D01*
X23406474Y-26670000D01*
X22519681Y-25783207D01*
X22270583Y-25876514D01*
X22141749Y-26155409D01*
X22069800Y-26454079D01*
X22057501Y-26761047D01*
X20427600Y-26761047D01*
X20427600Y-26541410D01*
X20377426Y-26289171D01*
X20279007Y-26051567D01*
X20136126Y-25837729D01*
X19954271Y-25655874D01*
X19740433Y-25512993D01*
X19502829Y-25414574D01*
X19250590Y-25364400D01*
X18993410Y-25364400D01*
X18741171Y-25414574D01*
X18503567Y-25512993D01*
X18289729Y-25655874D01*
X18107874Y-25837729D01*
X17964993Y-26051567D01*
X17898208Y-26212800D01*
X13905378Y-26212800D01*
X12903200Y-25210623D01*
X12903200Y-23863320D01*
X13346000Y-23863320D01*
X13415710Y-23856454D01*
X13482740Y-23836121D01*
X13544516Y-23803101D01*
X13598663Y-23758663D01*
X13643101Y-23704516D01*
X13676121Y-23642740D01*
X13696454Y-23575710D01*
X13703320Y-23506000D01*
X13703320Y-21706000D01*
X13696454Y-21636290D01*
X13676121Y-21569260D01*
X13643101Y-21507484D01*
X13598663Y-21453337D01*
X13544516Y-21408899D01*
X13482740Y-21375879D01*
X13415710Y-21355546D01*
X13346000Y-21348680D01*
X11546000Y-21348680D01*
X11476290Y-21355546D01*
X11409260Y-21375879D01*
X11347484Y-21408899D01*
X11293337Y-21453337D01*
X11248899Y-21507484D01*
X11215879Y-21569260D01*
X11195546Y-21636290D01*
X11188680Y-21706000D01*
X6786498Y-21706000D01*
X6842888Y-21600501D01*
X6923262Y-21335545D01*
X6943600Y-21129050D01*
X6943600Y-20690949D01*
X6923262Y-20484454D01*
X6842888Y-20219498D01*
X6712369Y-19975312D01*
X6536717Y-19761282D01*
X6322687Y-19585631D01*
X6078501Y-19455112D01*
X5813545Y-19374738D01*
X5538000Y-19347599D01*
X5262454Y-19374738D01*
X4997498Y-19455112D01*
X4753312Y-19585631D01*
X4539282Y-19761283D01*
X4363631Y-19975313D01*
X4233112Y-20219499D01*
X4152738Y-20484455D01*
X4132400Y-20690950D01*
X4132400Y-21038815D01*
X4048028Y-20954443D01*
X3934792Y-21067679D01*
X3841486Y-20818583D01*
X3562591Y-20689749D01*
X3263921Y-20617800D01*
X2956953Y-20605501D01*
X2653483Y-20653325D01*
X2365175Y-20759434D01*
X2254514Y-20818583D01*
X2161207Y-21067681D01*
X380600Y-21067681D01*
X380600Y-8128000D01*
X5486400Y-8128000D01*
X5486400Y-13208000D01*
X5493233Y-13277374D01*
X5513468Y-13344082D01*
X5546329Y-13405561D01*
X5590553Y-13459447D01*
X5593664Y-13462000D01*
X5590553Y-13464553D01*
X5546329Y-13518439D01*
X5513468Y-13579918D01*
X5493233Y-13646626D01*
X5486400Y-13716000D01*
X5486400Y-18796000D01*
X5493233Y-18865374D01*
X5513468Y-18932082D01*
X5546329Y-18993561D01*
X5590553Y-19047447D01*
X5644439Y-19091671D01*
X5705918Y-19124532D01*
X5772626Y-19144767D01*
X5842000Y-19151600D01*
X25908000Y-19151600D01*
X25977374Y-19144767D01*
X26044082Y-19124532D01*
X26105561Y-19091671D01*
X26159447Y-19047447D01*
X26203671Y-18993561D01*
X26236532Y-18932082D01*
X26256767Y-18865374D01*
X26263600Y-18796000D01*
X26263600Y-15714004D01*
X26274048Y-15679562D01*
X26289320Y-15524500D01*
X26289320Y-14649500D01*
X26274048Y-14494438D01*
X26263600Y-14459996D01*
X26263600Y-13716000D01*
X26256767Y-13646626D01*
X26236532Y-13579918D01*
X26203671Y-13518439D01*
X26159447Y-13464553D01*
X26156336Y-13462000D01*
X26159447Y-13459447D01*
X26203671Y-13405561D01*
X26236532Y-13344082D01*
X26256767Y-13277374D01*
X26263600Y-13208000D01*
X26263600Y-12712000D01*
X28319450Y-12712000D01*
X28331220Y-12831503D01*
X28366078Y-12946413D01*
X28422683Y-13052315D01*
X28498862Y-13145138D01*
X28591685Y-13221317D01*
X28697587Y-13277922D01*
X28812497Y-13312780D01*
X28932000Y-13324550D01*
X29869200Y-13321600D01*
X30021600Y-13169200D01*
X30021600Y-12497400D01*
X31342400Y-12497400D01*
X31342400Y-13169200D01*
X31494800Y-13321600D01*
X32432000Y-13324550D01*
X32551503Y-13312780D01*
X32666413Y-13277922D01*
X32772315Y-13221317D01*
X32865138Y-13145138D01*
X32941317Y-13052315D01*
X32997922Y-12946413D01*
X33032780Y-12831503D01*
X33044550Y-12712000D01*
X33041600Y-12649800D01*
X32889200Y-12497400D01*
X31342400Y-12497400D01*
X30021600Y-12497400D01*
X28474800Y-12497400D01*
X28322400Y-12649800D01*
X28319450Y-12712000D01*
X26263600Y-12712000D01*
X26263600Y-12464004D01*
X26274048Y-12429562D01*
X26289320Y-12274500D01*
X26289320Y-11399500D01*
X26274048Y-11244438D01*
X26263600Y-11209996D01*
X26263600Y-10962000D01*
X28319450Y-10962000D01*
X28322400Y-11024200D01*
X28474800Y-11176600D01*
X30021600Y-11176600D01*
X30021600Y-10504800D01*
X31342400Y-10504800D01*
X31342400Y-11176600D01*
X32889200Y-11176600D01*
X33041600Y-11024200D01*
X33044550Y-10962000D01*
X33032780Y-10842497D01*
X32997922Y-10727587D01*
X32941317Y-10621685D01*
X32865138Y-10528862D01*
X32772315Y-10452683D01*
X32666413Y-10396078D01*
X32551503Y-10361220D01*
X32432000Y-10349450D01*
X31494800Y-10352400D01*
X31342400Y-10504800D01*
X30021600Y-10504800D01*
X29869200Y-10352400D01*
X28932000Y-10349450D01*
X28812497Y-10361220D01*
X28697587Y-10396078D01*
X28591685Y-10452683D01*
X28498862Y-10528862D01*
X28422683Y-10621685D01*
X28366078Y-10727587D01*
X28331220Y-10842497D01*
X28319450Y-10962000D01*
X26263600Y-10962000D01*
X26263600Y-8128000D01*
X26256767Y-8058626D01*
X26236532Y-7991918D01*
X26203671Y-7930439D01*
X26159447Y-7876553D01*
X26105561Y-7832329D01*
X26044082Y-7799468D01*
X25977374Y-7779233D01*
X25908000Y-7772400D01*
X5842000Y-7772400D01*
X5772626Y-7779233D01*
X5705918Y-7799468D01*
X5644439Y-7832329D01*
X5590553Y-7876553D01*
X5546329Y-7930439D01*
X5513468Y-7991918D01*
X5493233Y-8058626D01*
X5486400Y-8128000D01*
X380600Y-8128000D01*
X380600Y-3674821D01*
X698400Y-3674821D01*
X698400Y-4325179D01*
X825279Y-4963041D01*
X1074160Y-5563894D01*
X1435480Y-6104647D01*
X1895353Y-6564520D01*
X2436106Y-6925840D01*
X3036959Y-7174721D01*
X3674821Y-7301600D01*
X4325179Y-7301600D01*
X4963041Y-7174721D01*
X5563894Y-6925840D01*
X6104647Y-6564520D01*
X6564520Y-6104647D01*
X6925840Y-5563894D01*
X7174721Y-4963041D01*
X7301600Y-4325179D01*
X7301600Y-3955502D01*
X7898400Y-3955502D01*
X7898400Y-4172498D01*
X7940734Y-4385325D01*
X8023775Y-4585803D01*
X8144332Y-4766229D01*
X8297771Y-4919668D01*
X8478197Y-5040225D01*
X8678675Y-5123266D01*
X8891502Y-5165600D01*
X9108498Y-5165600D01*
X9321325Y-5123266D01*
X9521803Y-5040225D01*
X9702229Y-4919668D01*
X9855668Y-4766229D01*
X9976225Y-4585803D01*
X10059266Y-4385325D01*
X10101600Y-4172498D01*
X10101600Y-3955502D01*
X79898400Y-3955502D01*
X79898400Y-4172498D01*
X79940734Y-4385325D01*
X80023775Y-4585803D01*
X80144332Y-4766229D01*
X80297771Y-4919668D01*
X80478197Y-5040225D01*
X80678675Y-5123266D01*
X80891502Y-5165600D01*
X81108498Y-5165600D01*
X81321325Y-5123266D01*
X81521803Y-5040225D01*
X81702229Y-4919668D01*
X81855668Y-4766229D01*
X81976225Y-4585803D01*
X82059266Y-4385325D01*
X82101600Y-4172498D01*
X82101600Y-3955502D01*
X82059266Y-3742675D01*
X82031160Y-3674821D01*
X82698400Y-3674821D01*
X82698400Y-4325179D01*
X82825279Y-4963041D01*
X83074160Y-5563894D01*
X83435480Y-6104647D01*
X83895353Y-6564520D01*
X84436106Y-6925840D01*
X85036959Y-7174721D01*
X85674821Y-7301600D01*
X86325179Y-7301600D01*
X86963041Y-7174721D01*
X87563894Y-6925840D01*
X88104647Y-6564520D01*
X88564520Y-6104647D01*
X88925840Y-5563894D01*
X89174721Y-4963041D01*
X89301600Y-4325179D01*
X89301600Y-3674821D01*
X89174721Y-3036959D01*
X88925840Y-2436106D01*
X88564520Y-1895353D01*
X88104647Y-1435480D01*
X87563894Y-1074160D01*
X86963041Y-825279D01*
X86325179Y-698400D01*
X85674821Y-698400D01*
X85036959Y-825279D01*
X84436106Y-1074160D01*
X83895353Y-1435480D01*
X83435480Y-1895353D01*
X83074160Y-2436106D01*
X82825279Y-3036959D01*
X82698400Y-3674821D01*
X82031160Y-3674821D01*
X81976225Y-3542197D01*
X81855668Y-3361771D01*
X81702229Y-3208332D01*
X81521803Y-3087775D01*
X81321325Y-3004734D01*
X81108498Y-2962400D01*
X80891502Y-2962400D01*
X80678675Y-3004734D01*
X80478197Y-3087775D01*
X80297771Y-3208332D01*
X80144332Y-3361771D01*
X80023775Y-3542197D01*
X79940734Y-3742675D01*
X79898400Y-3955502D01*
X10101600Y-3955502D01*
X10059266Y-3742675D01*
X9976225Y-3542197D01*
X9855668Y-3361771D01*
X9702229Y-3208332D01*
X9521803Y-3087775D01*
X9321325Y-3004734D01*
X9108498Y-2962400D01*
X8891502Y-2962400D01*
X8678675Y-3004734D01*
X8478197Y-3087775D01*
X8297771Y-3208332D01*
X8144332Y-3361771D01*
X8023775Y-3542197D01*
X7940734Y-3742675D01*
X7898400Y-3955502D01*
X7301600Y-3955502D01*
X7301600Y-3674821D01*
X7174721Y-3036959D01*
X6925840Y-2436106D01*
X6564520Y-1895353D01*
X6104647Y-1435480D01*
X5563894Y-1074160D01*
X4963041Y-825279D01*
X4325179Y-698400D01*
X3674821Y-698400D01*
X3036959Y-825279D01*
X2436106Y-1074160D01*
X1895353Y-1435480D01*
X1435480Y-1895353D01*
X1074160Y-2436106D01*
X825279Y-3036959D01*
X698400Y-3674821D01*
X380600Y-3674821D01*
X380600Y-380600D01*
X89619400Y-380600D01*
X89619401Y-29619400D01*
%TA.AperFunction,Conductor*%
D28*
G36*
X89619401Y-29619400D02*
G01*
X380600Y-29619400D01*
X380600Y-26541410D01*
X1742400Y-26541410D01*
X1742400Y-26798590D01*
X1792574Y-27050829D01*
X1890993Y-27288433D01*
X2033874Y-27502271D01*
X2215729Y-27684126D01*
X2429567Y-27827007D01*
X2667171Y-27925426D01*
X2919410Y-27975600D01*
X3176590Y-27975600D01*
X3428829Y-27925426D01*
X3666433Y-27827007D01*
X3880271Y-27684126D01*
X4062126Y-27502271D01*
X4205007Y-27288433D01*
X4303426Y-27050829D01*
X4353600Y-26798590D01*
X4353600Y-26619200D01*
X4724593Y-26619200D01*
X4539282Y-26771283D01*
X4363631Y-26985313D01*
X4233112Y-27229499D01*
X4152738Y-27494455D01*
X4132400Y-27700950D01*
X4132400Y-28139051D01*
X4152738Y-28345546D01*
X4233112Y-28610502D01*
X4363631Y-28854688D01*
X4539283Y-29068718D01*
X4753313Y-29244369D01*
X4997499Y-29374888D01*
X5262455Y-29455262D01*
X5538000Y-29482401D01*
X5813546Y-29455262D01*
X6078502Y-29374888D01*
X6322688Y-29244369D01*
X6536718Y-29068718D01*
X6712369Y-28854688D01*
X6842888Y-28610501D01*
X6923262Y-28345545D01*
X6943600Y-28139050D01*
X6943600Y-27700949D01*
X6923262Y-27494454D01*
X6842888Y-27229498D01*
X6712369Y-26985312D01*
X6536717Y-26771282D01*
X6351406Y-26619200D01*
X6668623Y-26619200D01*
X8804830Y-28755408D01*
X8819147Y-28772853D01*
X8888764Y-28829987D01*
X8968191Y-28872441D01*
X9054373Y-28898585D01*
X9121540Y-28905200D01*
X9121549Y-28905200D01*
X9143999Y-28907411D01*
X9166449Y-28905200D01*
X29187540Y-28905200D01*
X29210000Y-28907412D01*
X29232460Y-28905200D01*
X36299540Y-28905200D01*
X36322000Y-28907412D01*
X36344460Y-28905200D01*
X46713540Y-28905200D01*
X46736000Y-28907412D01*
X46758460Y-28905200D01*
X52555550Y-28905200D01*
X52578000Y-28907411D01*
X52600450Y-28905200D01*
X52600460Y-28905200D01*
X52667627Y-28898585D01*
X52753809Y-28872441D01*
X52833236Y-28829987D01*
X52902853Y-28772853D01*
X52917174Y-28755403D01*
X53272577Y-28400000D01*
X80961450Y-28400000D01*
X80973220Y-28519503D01*
X81008078Y-28634413D01*
X81064683Y-28740315D01*
X81140862Y-28833138D01*
X81233685Y-28909317D01*
X81339587Y-28965922D01*
X81454497Y-29000780D01*
X81574000Y-29012550D01*
X83261200Y-29009600D01*
X83413600Y-28857200D01*
X83413600Y-26060400D01*
X84734400Y-26060400D01*
X84734400Y-28857200D01*
X84886800Y-29009600D01*
X86574000Y-29012550D01*
X86693503Y-29000780D01*
X86808413Y-28965922D01*
X86914315Y-28909317D01*
X87007138Y-28833138D01*
X87083317Y-28740315D01*
X87139922Y-28634413D01*
X87174780Y-28519503D01*
X87186550Y-28400000D01*
X87183600Y-26212800D01*
X87031200Y-26060400D01*
X84734400Y-26060400D01*
X83413600Y-26060400D01*
X81116800Y-26060400D01*
X80964400Y-26212800D01*
X80961450Y-28400000D01*
X53272577Y-28400000D01*
X53496914Y-28175664D01*
X53514353Y-28161353D01*
X53528665Y-28143914D01*
X53528671Y-28143908D01*
X53571487Y-28091736D01*
X53613941Y-28012310D01*
X53625077Y-27975600D01*
X53640085Y-27926127D01*
X53646700Y-27858960D01*
X53646700Y-27858950D01*
X53648911Y-27836500D01*
X53646700Y-27814050D01*
X53646700Y-26676531D01*
X53684412Y-26665091D01*
X53789409Y-26608968D01*
X53881440Y-26533440D01*
X53956968Y-26441409D01*
X54013091Y-26336412D01*
X54047651Y-26222483D01*
X54059320Y-26104001D01*
X54059320Y-25203999D01*
X54047651Y-25085517D01*
X54013091Y-24971588D01*
X53956968Y-24866591D01*
X53936130Y-24841200D01*
X54267870Y-24841200D01*
X54247032Y-24866591D01*
X54190909Y-24971588D01*
X54156349Y-25085517D01*
X54144680Y-25203999D01*
X54144680Y-26104001D01*
X54156349Y-26222483D01*
X54190909Y-26336412D01*
X54247032Y-26441409D01*
X54322560Y-26533440D01*
X54414591Y-26608968D01*
X54519588Y-26665091D01*
X54633517Y-26699651D01*
X54751999Y-26711320D01*
X55277001Y-26711320D01*
X55395483Y-26699651D01*
X55509412Y-26665091D01*
X55614409Y-26608968D01*
X55706440Y-26533440D01*
X55781968Y-26441409D01*
X55838091Y-26336412D01*
X55872651Y-26222483D01*
X55884320Y-26104001D01*
X55884320Y-25203999D01*
X55872651Y-25085517D01*
X55838091Y-24971588D01*
X55781968Y-24866591D01*
X55706440Y-24774560D01*
X55614409Y-24699032D01*
X55509412Y-24642909D01*
X55441895Y-24622428D01*
X55438941Y-24612691D01*
X55419178Y-24575717D01*
X55396487Y-24533263D01*
X55353670Y-24481092D01*
X55339353Y-24463647D01*
X55321909Y-24449331D01*
X54949174Y-24076597D01*
X54934853Y-24059147D01*
X54899600Y-24030215D01*
X54899600Y-23266400D01*
X55204400Y-23266400D01*
X55204400Y-24067600D01*
X55280600Y-24143800D01*
X55552000Y-24145275D01*
X55611751Y-24139390D01*
X55669206Y-24121961D01*
X55722157Y-24093658D01*
X55768569Y-24055569D01*
X55806658Y-24009157D01*
X55834961Y-23956206D01*
X55852390Y-23898751D01*
X55858275Y-23839000D01*
X55856800Y-23342600D01*
X55780600Y-23266400D01*
X55204400Y-23266400D01*
X54899600Y-23266400D01*
X54323400Y-23266400D01*
X54247200Y-23342600D01*
X54245725Y-23839000D01*
X54251610Y-23898751D01*
X54260119Y-23926800D01*
X53906647Y-23926800D01*
X53906968Y-23926409D01*
X53963091Y-23821411D01*
X53997651Y-23707482D01*
X54009320Y-23589000D01*
X54009320Y-22639000D01*
X53997651Y-22520518D01*
X53963091Y-22406589D01*
X53953690Y-22389000D01*
X54245725Y-22389000D01*
X54247200Y-22885400D01*
X54323400Y-22961600D01*
X54899600Y-22961600D01*
X54899600Y-22160400D01*
X55204400Y-22160400D01*
X55204400Y-22961600D01*
X55780600Y-22961600D01*
X55856800Y-22885400D01*
X55858242Y-22400000D01*
X80961450Y-22400000D01*
X80964400Y-24587200D01*
X81116800Y-24739600D01*
X83413600Y-24739600D01*
X83413600Y-21942800D01*
X84734400Y-21942800D01*
X84734400Y-24739600D01*
X87031200Y-24739600D01*
X87183600Y-24587200D01*
X87186550Y-22400000D01*
X87174780Y-22280497D01*
X87139922Y-22165587D01*
X87083317Y-22059685D01*
X87007138Y-21966862D01*
X86914315Y-21890683D01*
X86808413Y-21834078D01*
X86693503Y-21799220D01*
X86574000Y-21787450D01*
X84886800Y-21790400D01*
X84734400Y-21942800D01*
X83413600Y-21942800D01*
X83261200Y-21790400D01*
X81574000Y-21787450D01*
X81454497Y-21799220D01*
X81339587Y-21834078D01*
X81233685Y-21890683D01*
X81140862Y-21966862D01*
X81064683Y-22059685D01*
X81008078Y-22165587D01*
X80973220Y-22280497D01*
X80961450Y-22400000D01*
X55858242Y-22400000D01*
X55858275Y-22389000D01*
X55852390Y-22329249D01*
X55834961Y-22271794D01*
X55806658Y-22218843D01*
X55768569Y-22172431D01*
X55722157Y-22134342D01*
X55669206Y-22106039D01*
X55611751Y-22088610D01*
X55552000Y-22082725D01*
X55280600Y-22084200D01*
X55204400Y-22160400D01*
X54899600Y-22160400D01*
X54823400Y-22084200D01*
X54552000Y-22082725D01*
X54492249Y-22088610D01*
X54434794Y-22106039D01*
X54381843Y-22134342D01*
X54335431Y-22172431D01*
X54297342Y-22218843D01*
X54269039Y-22271794D01*
X54251610Y-22329249D01*
X54245725Y-22389000D01*
X53953690Y-22389000D01*
X53906968Y-22301591D01*
X53831440Y-22209560D01*
X53739409Y-22134032D01*
X53634411Y-22077909D01*
X53605314Y-22069083D01*
X53602585Y-22041373D01*
X53576441Y-21955191D01*
X53543784Y-21894093D01*
X53533987Y-21875763D01*
X53491170Y-21823592D01*
X53476853Y-21806147D01*
X53459409Y-21791831D01*
X53414378Y-21746800D01*
X53456402Y-21746800D01*
X53456402Y-21724602D01*
X53478600Y-21746800D01*
X53504000Y-21748275D01*
X53563751Y-21742390D01*
X53621206Y-21724961D01*
X53674157Y-21696658D01*
X53720569Y-21658569D01*
X53758658Y-21612157D01*
X53786961Y-21559206D01*
X53804390Y-21501751D01*
X53810275Y-21442000D01*
X53809395Y-21262000D01*
X54594725Y-21262000D01*
X54600610Y-21321751D01*
X54618039Y-21379206D01*
X54646342Y-21432157D01*
X54684431Y-21478569D01*
X54730843Y-21516658D01*
X54783794Y-21544961D01*
X54841249Y-21562390D01*
X54901000Y-21568275D01*
X55397400Y-21566800D01*
X55473600Y-21490600D01*
X55473600Y-20914400D01*
X55778400Y-20914400D01*
X55778400Y-21490600D01*
X55854600Y-21566800D01*
X56351000Y-21568275D01*
X56410751Y-21562390D01*
X56468206Y-21544961D01*
X56521157Y-21516658D01*
X56567569Y-21478569D01*
X56605658Y-21432157D01*
X56633961Y-21379206D01*
X56651390Y-21321751D01*
X56657275Y-21262000D01*
X56655800Y-20990600D01*
X56579600Y-20914400D01*
X55778400Y-20914400D01*
X55473600Y-20914400D01*
X54672400Y-20914400D01*
X54596200Y-20990600D01*
X54594725Y-21262000D01*
X53809395Y-21262000D01*
X53808800Y-21140600D01*
X53732600Y-21064400D01*
X53402400Y-21064400D01*
X53402400Y-21084400D01*
X53211320Y-21084400D01*
X53211320Y-20382000D01*
X53205600Y-20323925D01*
X53205600Y-20153400D01*
X53402400Y-20153400D01*
X53402400Y-20759600D01*
X53732600Y-20759600D01*
X53808800Y-20683400D01*
X53810275Y-20382000D01*
X53804390Y-20322249D01*
X53786961Y-20264794D01*
X53785468Y-20262000D01*
X54594725Y-20262000D01*
X54596200Y-20533400D01*
X54672400Y-20609600D01*
X55473600Y-20609600D01*
X55473600Y-20033400D01*
X55778400Y-20033400D01*
X55778400Y-20609600D01*
X56579600Y-20609600D01*
X56655800Y-20533400D01*
X56657275Y-20262000D01*
X56651390Y-20202249D01*
X56633961Y-20144794D01*
X56605658Y-20091843D01*
X56567569Y-20045431D01*
X56521157Y-20007342D01*
X56468206Y-19979039D01*
X56410751Y-19961610D01*
X56351000Y-19955725D01*
X55854600Y-19957200D01*
X55778400Y-20033400D01*
X55473600Y-20033400D01*
X55397400Y-19957200D01*
X54901000Y-19955725D01*
X54841249Y-19961610D01*
X54783794Y-19979039D01*
X54730843Y-20007342D01*
X54684431Y-20045431D01*
X54646342Y-20091843D01*
X54618039Y-20144794D01*
X54600610Y-20202249D01*
X54594725Y-20262000D01*
X53785468Y-20262000D01*
X53758658Y-20211843D01*
X53720569Y-20165431D01*
X53674157Y-20127342D01*
X53621206Y-20099039D01*
X53563751Y-20081610D01*
X53504000Y-20075725D01*
X53478600Y-20077200D01*
X53402400Y-20153400D01*
X53205600Y-20153400D01*
X53129400Y-20077200D01*
X53104000Y-20075725D01*
X53046034Y-20081434D01*
X52990740Y-20051879D01*
X52923710Y-20031546D01*
X52854000Y-20024680D01*
X52454000Y-20024680D01*
X52384290Y-20031546D01*
X52324000Y-20049834D01*
X52263710Y-20031546D01*
X52194000Y-20024680D01*
X51794000Y-20024680D01*
X51724290Y-20031546D01*
X51669000Y-20048318D01*
X51613710Y-20031546D01*
X51544000Y-20024680D01*
X51144000Y-20024680D01*
X51074290Y-20031546D01*
X51007260Y-20051879D01*
X50945484Y-20084899D01*
X50891337Y-20129337D01*
X50846899Y-20183484D01*
X50813879Y-20245260D01*
X50793546Y-20312290D01*
X50786680Y-20382000D01*
X50786680Y-21442000D01*
X50793546Y-21511710D01*
X50798530Y-21528142D01*
X50389097Y-21937576D01*
X50371647Y-21951897D01*
X50314513Y-22021515D01*
X50284441Y-22077776D01*
X50201588Y-22102909D01*
X50096591Y-22159032D01*
X50004560Y-22234560D01*
X49929032Y-22326591D01*
X49872909Y-22431588D01*
X49838349Y-22545517D01*
X49826680Y-22663999D01*
X49826680Y-23564001D01*
X49838349Y-23682483D01*
X49872909Y-23796412D01*
X49929032Y-23901409D01*
X50004560Y-23993440D01*
X50096591Y-24068968D01*
X50201588Y-24125091D01*
X50315517Y-24159651D01*
X50433999Y-24171320D01*
X50959001Y-24171320D01*
X51077483Y-24159651D01*
X51191412Y-24125091D01*
X51296409Y-24068968D01*
X51388440Y-23993440D01*
X51463968Y-23901409D01*
X51520091Y-23796412D01*
X51536801Y-23741327D01*
X51536801Y-23777540D01*
X51534589Y-23800000D01*
X51536801Y-23822460D01*
X51543416Y-23889627D01*
X51556700Y-23933416D01*
X51569560Y-23975809D01*
X51612013Y-24055235D01*
X51643547Y-24093658D01*
X51669148Y-24124853D01*
X51686592Y-24139169D01*
X52238834Y-24691413D01*
X52253147Y-24708853D01*
X52270586Y-24723165D01*
X52270592Y-24723171D01*
X52322764Y-24765987D01*
X52402190Y-24808441D01*
X52422249Y-24814526D01*
X52456287Y-24824851D01*
X52422032Y-24866591D01*
X52365909Y-24971588D01*
X52331349Y-25085517D01*
X52319680Y-25203999D01*
X52319680Y-26104001D01*
X52331349Y-26222483D01*
X52365909Y-26336412D01*
X52422032Y-26441409D01*
X52497560Y-26533440D01*
X52589591Y-26608968D01*
X52694588Y-26665091D01*
X52732301Y-26676531D01*
X52732300Y-27647121D01*
X52388623Y-27990800D01*
X47193200Y-27990800D01*
X47193200Y-23466385D01*
X47239034Y-23534980D01*
X47331020Y-23626966D01*
X47439183Y-23699239D01*
X47559369Y-23749021D01*
X47686956Y-23774400D01*
X47817044Y-23774400D01*
X47944631Y-23749021D01*
X48023610Y-23716307D01*
X48047909Y-23796412D01*
X48104032Y-23901409D01*
X48179560Y-23993440D01*
X48271591Y-24068968D01*
X48376588Y-24125091D01*
X48490517Y-24159651D01*
X48608999Y-24171320D01*
X49134001Y-24171320D01*
X49252483Y-24159651D01*
X49366412Y-24125091D01*
X49471409Y-24068968D01*
X49563440Y-23993440D01*
X49638968Y-23901409D01*
X49695091Y-23796412D01*
X49729651Y-23682483D01*
X49741320Y-23564001D01*
X49741320Y-22663999D01*
X49729651Y-22545517D01*
X49695091Y-22431588D01*
X49638968Y-22326591D01*
X49563440Y-22234560D01*
X49471409Y-22159032D01*
X49366412Y-22102909D01*
X49252483Y-22068349D01*
X49134001Y-22056680D01*
X48608999Y-22056680D01*
X48490517Y-22068349D01*
X48376588Y-22102909D01*
X48271591Y-22159032D01*
X48179560Y-22234560D01*
X48104032Y-22326591D01*
X48047909Y-22431588D01*
X48023610Y-22511693D01*
X47944631Y-22478979D01*
X47817044Y-22453600D01*
X47686956Y-22453600D01*
X47559369Y-22478979D01*
X47439183Y-22528761D01*
X47331020Y-22601034D01*
X47239034Y-22693020D01*
X47193200Y-22761615D01*
X47193200Y-21593611D01*
X47304483Y-21582651D01*
X47418412Y-21548091D01*
X47523409Y-21491968D01*
X47615440Y-21416440D01*
X47690968Y-21324409D01*
X47724326Y-21262000D01*
X47990725Y-21262000D01*
X47996610Y-21321751D01*
X48014039Y-21379206D01*
X48042342Y-21432157D01*
X48080431Y-21478569D01*
X48126843Y-21516658D01*
X48179794Y-21544961D01*
X48237249Y-21562390D01*
X48297000Y-21568275D01*
X48793400Y-21566800D01*
X48869600Y-21490600D01*
X48869600Y-20914400D01*
X49174400Y-20914400D01*
X49174400Y-21490600D01*
X49250600Y-21566800D01*
X49747000Y-21568275D01*
X49806751Y-21562390D01*
X49864206Y-21544961D01*
X49917157Y-21516658D01*
X49963569Y-21478569D01*
X50001658Y-21432157D01*
X50029961Y-21379206D01*
X50047390Y-21321751D01*
X50053275Y-21262000D01*
X50051800Y-20990600D01*
X49975600Y-20914400D01*
X49174400Y-20914400D01*
X48869600Y-20914400D01*
X48068400Y-20914400D01*
X47992200Y-20990600D01*
X47990725Y-21262000D01*
X47724326Y-21262000D01*
X47747091Y-21219412D01*
X47781651Y-21105483D01*
X47793320Y-20987001D01*
X47793320Y-20461999D01*
X47781651Y-20343517D01*
X47756924Y-20262000D01*
X47990725Y-20262000D01*
X47992200Y-20533400D01*
X48068400Y-20609600D01*
X48869600Y-20609600D01*
X48869600Y-20033400D01*
X49174400Y-20033400D01*
X49174400Y-20609600D01*
X49975600Y-20609600D01*
X50051800Y-20533400D01*
X50053275Y-20262000D01*
X50047390Y-20202249D01*
X50029961Y-20144794D01*
X50001658Y-20091843D01*
X49963569Y-20045431D01*
X49917157Y-20007342D01*
X49864206Y-19979039D01*
X49806751Y-19961610D01*
X49747000Y-19955725D01*
X49250600Y-19957200D01*
X49174400Y-20033400D01*
X48869600Y-20033400D01*
X48793400Y-19957200D01*
X48297000Y-19955725D01*
X48237249Y-19961610D01*
X48179794Y-19979039D01*
X48126843Y-20007342D01*
X48080431Y-20045431D01*
X48042342Y-20091843D01*
X48014039Y-20144794D01*
X47996610Y-20202249D01*
X47990725Y-20262000D01*
X47756924Y-20262000D01*
X47747091Y-20229588D01*
X47690968Y-20124591D01*
X47615440Y-20032560D01*
X47523409Y-19957032D01*
X47442155Y-19913600D01*
X52197000Y-19913600D01*
X52266374Y-19906767D01*
X52324000Y-19889287D01*
X52381626Y-19906767D01*
X52451000Y-19913600D01*
X56896000Y-19913600D01*
X56965374Y-19906767D01*
X57032082Y-19886532D01*
X57093561Y-19853671D01*
X57147447Y-19809447D01*
X57191671Y-19755561D01*
X57224532Y-19694082D01*
X57244767Y-19627374D01*
X57251600Y-19558000D01*
X57251600Y-18434614D01*
X61900122Y-18434614D01*
X62016608Y-18657390D01*
X62321658Y-18743839D01*
X62637713Y-18769115D01*
X62952625Y-18732246D01*
X63199392Y-18657390D01*
X63315878Y-18434614D01*
X62608000Y-17726736D01*
X61900122Y-18434614D01*
X57251600Y-18434614D01*
X57251600Y-17181713D01*
X60990885Y-17181713D01*
X61027754Y-17496625D01*
X61102610Y-17743392D01*
X61325386Y-17859878D01*
X62033264Y-17152000D01*
X63182736Y-17152000D01*
X63890614Y-17859878D01*
X64113390Y-17743392D01*
X64199839Y-17438342D01*
X64206761Y-17351788D01*
X72042948Y-17351788D01*
X72185019Y-17594745D01*
X72525055Y-17701699D01*
X72879423Y-17740260D01*
X73234505Y-17708947D01*
X73576655Y-17608962D01*
X73610981Y-17594745D01*
X73753052Y-17351788D01*
X72898000Y-16496736D01*
X72042948Y-17351788D01*
X64206761Y-17351788D01*
X64225115Y-17122287D01*
X64188246Y-16807375D01*
X64113390Y-16560608D01*
X63890614Y-16444122D01*
X63182736Y-17152000D01*
X62033264Y-17152000D01*
X61325386Y-16444122D01*
X61102610Y-16560608D01*
X61016161Y-16865658D01*
X60990885Y-17181713D01*
X57251600Y-17181713D01*
X57251600Y-15869386D01*
X61900122Y-15869386D01*
X62608000Y-16577264D01*
X63281841Y-15903423D01*
X71079740Y-15903423D01*
X71111053Y-16258505D01*
X71211038Y-16600655D01*
X71225255Y-16634981D01*
X71468212Y-16777052D01*
X72323264Y-15922000D01*
X73472736Y-15922000D01*
X74327788Y-16777052D01*
X74570745Y-16634981D01*
X74677699Y-16294945D01*
X74716260Y-15940577D01*
X74684947Y-15585495D01*
X74584962Y-15243345D01*
X74570745Y-15209019D01*
X74327788Y-15066948D01*
X73472736Y-15922000D01*
X72323264Y-15922000D01*
X71468212Y-15066948D01*
X71225255Y-15209019D01*
X71118301Y-15549055D01*
X71079740Y-15903423D01*
X63281841Y-15903423D01*
X63315878Y-15869386D01*
X63199392Y-15646610D01*
X62894342Y-15560161D01*
X62578287Y-15534885D01*
X62263375Y-15571754D01*
X62016608Y-15646610D01*
X61900122Y-15869386D01*
X57251600Y-15869386D01*
X57251600Y-14492212D01*
X72042948Y-14492212D01*
X72898000Y-15347264D01*
X73753052Y-14492212D01*
X73610981Y-14249255D01*
X73270945Y-14142301D01*
X72916577Y-14103740D01*
X72561495Y-14135053D01*
X72219345Y-14235038D01*
X72185019Y-14249255D01*
X72042948Y-14492212D01*
X57251600Y-14492212D01*
X57251600Y-13563600D01*
X80924400Y-13563600D01*
X80924400Y-18542000D01*
X80931233Y-18611374D01*
X80951468Y-18678082D01*
X80984329Y-18739561D01*
X81028553Y-18793447D01*
X81082439Y-18837671D01*
X81143918Y-18870532D01*
X81210626Y-18890767D01*
X81280000Y-18897600D01*
X86868000Y-18897600D01*
X86937374Y-18890767D01*
X87004082Y-18870532D01*
X87065561Y-18837671D01*
X87119447Y-18793447D01*
X87163671Y-18739561D01*
X87196532Y-18678082D01*
X87216767Y-18611374D01*
X87223600Y-18542000D01*
X87223600Y-7874000D01*
X87216767Y-7804626D01*
X87196532Y-7737918D01*
X87163671Y-7676439D01*
X87119447Y-7622553D01*
X87065561Y-7578329D01*
X87004082Y-7545468D01*
X86937374Y-7525233D01*
X86868000Y-7518400D01*
X52451000Y-7518400D01*
X52381626Y-7525233D01*
X52314918Y-7545468D01*
X52253439Y-7578329D01*
X52199553Y-7622553D01*
X52155329Y-7676439D01*
X52122468Y-7737918D01*
X52102233Y-7804626D01*
X52095400Y-7874000D01*
X52095400Y-13360400D01*
X28956000Y-13360400D01*
X28886626Y-13367233D01*
X28819918Y-13387468D01*
X28758439Y-13420329D01*
X28704553Y-13464553D01*
X28660329Y-13518439D01*
X28627468Y-13579918D01*
X28607233Y-13646626D01*
X28600400Y-13716000D01*
X28600400Y-14459996D01*
X28589952Y-14494438D01*
X28574680Y-14649500D01*
X28574680Y-15524500D01*
X28589952Y-15679562D01*
X28600400Y-15714004D01*
X28600400Y-19558000D01*
X28607233Y-19627374D01*
X28627468Y-19694082D01*
X28660329Y-19755561D01*
X28704553Y-19809447D01*
X28758439Y-19853671D01*
X28819918Y-19886532D01*
X28886626Y-19906767D01*
X28956000Y-19913600D01*
X29265845Y-19913600D01*
X29184591Y-19957032D01*
X29092560Y-20032560D01*
X29017032Y-20124591D01*
X28960909Y-20229588D01*
X28926349Y-20343517D01*
X28914680Y-20461999D01*
X28914680Y-20987001D01*
X28926349Y-21105483D01*
X28960909Y-21219412D01*
X29017032Y-21324409D01*
X29092560Y-21416440D01*
X29176277Y-21485145D01*
X28902597Y-21758826D01*
X28885147Y-21773147D01*
X28828013Y-21842765D01*
X28785559Y-21922192D01*
X28759415Y-22008374D01*
X28752800Y-22075541D01*
X28752800Y-22075550D01*
X28751333Y-22090448D01*
X28678483Y-22068349D01*
X28560001Y-22056680D01*
X28034999Y-22056680D01*
X27916517Y-22068349D01*
X27802588Y-22102909D01*
X27697591Y-22159032D01*
X27605560Y-22234560D01*
X27530032Y-22326591D01*
X27473909Y-22431588D01*
X27455815Y-22491237D01*
X27263174Y-22298597D01*
X27248853Y-22281147D01*
X27179236Y-22224013D01*
X27099809Y-22181559D01*
X27013627Y-22155415D01*
X26946460Y-22148800D01*
X26946450Y-22148800D01*
X26924000Y-22146589D01*
X26901550Y-22148800D01*
X16155673Y-22148800D01*
X16098698Y-22011251D01*
X15961288Y-21805602D01*
X15786398Y-21630712D01*
X15580749Y-21493302D01*
X15352245Y-21398652D01*
X15109666Y-21350400D01*
X14862334Y-21350400D01*
X14619755Y-21398652D01*
X14391251Y-21493302D01*
X14185602Y-21630712D01*
X14010712Y-21805602D01*
X13873302Y-22011251D01*
X13778652Y-22239755D01*
X13730400Y-22482334D01*
X13730400Y-22729666D01*
X13778652Y-22972245D01*
X13873302Y-23200749D01*
X14010712Y-23406398D01*
X14185602Y-23581288D01*
X14391251Y-23718698D01*
X14619755Y-23813348D01*
X14862334Y-23861600D01*
X15109666Y-23861600D01*
X15352245Y-23813348D01*
X15580749Y-23718698D01*
X15786398Y-23581288D01*
X15961288Y-23406398D01*
X16098698Y-23200749D01*
X16155673Y-23063200D01*
X16857164Y-23063200D01*
X16713282Y-23181282D01*
X16537631Y-23395312D01*
X16407112Y-23639498D01*
X16326738Y-23904454D01*
X16299599Y-24180000D01*
X16326738Y-24455546D01*
X16407112Y-24720502D01*
X16537631Y-24964688D01*
X16713282Y-25178718D01*
X16927312Y-25354369D01*
X17171498Y-25484888D01*
X17436454Y-25565262D01*
X17642949Y-25585600D01*
X18081051Y-25585600D01*
X18287546Y-25565262D01*
X18552502Y-25484888D01*
X18796688Y-25354369D01*
X19010718Y-25178718D01*
X19186369Y-24964688D01*
X19316888Y-24720502D01*
X19397262Y-24455546D01*
X19424401Y-24180000D01*
X19397262Y-23904454D01*
X19316888Y-23639498D01*
X19186369Y-23395312D01*
X19010718Y-23181282D01*
X18866836Y-23063200D01*
X23867164Y-23063200D01*
X23723282Y-23181282D01*
X23547631Y-23395312D01*
X23417112Y-23639498D01*
X23336738Y-23904454D01*
X23309599Y-24180000D01*
X23336738Y-24455546D01*
X23417112Y-24720502D01*
X23547631Y-24964688D01*
X23667690Y-25110980D01*
X23530953Y-25105501D01*
X23227483Y-25153325D01*
X22939175Y-25259434D01*
X22828514Y-25318583D01*
X22735207Y-25567681D01*
X23622000Y-26454474D01*
X23636143Y-26440332D01*
X23851669Y-26655858D01*
X23837526Y-26670000D01*
X24724319Y-27556793D01*
X24973417Y-27463486D01*
X25102251Y-27184591D01*
X25174200Y-26885921D01*
X25186499Y-26578953D01*
X25138675Y-26275483D01*
X25032566Y-25987175D01*
X24973417Y-25876514D01*
X24724321Y-25783208D01*
X24837557Y-25669972D01*
X24753185Y-25585600D01*
X25091051Y-25585600D01*
X25297546Y-25565262D01*
X25562502Y-25484888D01*
X25806688Y-25354369D01*
X26020718Y-25178718D01*
X26196369Y-24964688D01*
X26326888Y-24720502D01*
X26407262Y-24455546D01*
X26434401Y-24180000D01*
X26407262Y-23904454D01*
X26326888Y-23639498D01*
X26196369Y-23395312D01*
X26020718Y-23181282D01*
X25876836Y-23063200D01*
X26734623Y-23063200D01*
X27092830Y-23421408D01*
X27107147Y-23438853D01*
X27124592Y-23453170D01*
X27176763Y-23495987D01*
X27195497Y-23506000D01*
X27256191Y-23538441D01*
X27342373Y-23564585D01*
X27409540Y-23571200D01*
X27409549Y-23571200D01*
X27428574Y-23573074D01*
X27439349Y-23682483D01*
X27473909Y-23796412D01*
X27530032Y-23901409D01*
X27605560Y-23993440D01*
X27697591Y-24068968D01*
X27802588Y-24125091D01*
X27916517Y-24159651D01*
X28034999Y-24171320D01*
X28560001Y-24171320D01*
X28678483Y-24159651D01*
X28752800Y-24137107D01*
X28752801Y-27990800D01*
X24426955Y-27990800D01*
X24508793Y-27772319D01*
X23622000Y-26885526D01*
X22735207Y-27772319D01*
X22817045Y-27990800D01*
X9333378Y-27990800D01*
X7197174Y-25854597D01*
X7182853Y-25837147D01*
X7113236Y-25780013D01*
X7033809Y-25737559D01*
X6947627Y-25711415D01*
X6880460Y-25704800D01*
X6880450Y-25704800D01*
X6858000Y-25702589D01*
X6835550Y-25704800D01*
X3929197Y-25704800D01*
X3880271Y-25655874D01*
X3666433Y-25512993D01*
X3428829Y-25414574D01*
X3176590Y-25364400D01*
X2919410Y-25364400D01*
X2667171Y-25414574D01*
X2429567Y-25512993D01*
X2215729Y-25655874D01*
X2033874Y-25837729D01*
X1890993Y-26051567D01*
X1792574Y-26289171D01*
X1742400Y-26541410D01*
X380600Y-26541410D01*
X380600Y-24891502D01*
X7898400Y-24891502D01*
X7898400Y-25108498D01*
X7940734Y-25321325D01*
X8023775Y-25521803D01*
X8144332Y-25702229D01*
X8297771Y-25855668D01*
X8478197Y-25976225D01*
X8678675Y-26059266D01*
X8891502Y-26101600D01*
X9108498Y-26101600D01*
X9321325Y-26059266D01*
X9521803Y-25976225D01*
X9702229Y-25855668D01*
X9855668Y-25702229D01*
X9976225Y-25521803D01*
X10059266Y-25321325D01*
X10101600Y-25108498D01*
X10101600Y-24891502D01*
X10059266Y-24678675D01*
X9976225Y-24478197D01*
X9855668Y-24297771D01*
X9702229Y-24144332D01*
X9521803Y-24023775D01*
X9321325Y-23940734D01*
X9108498Y-23898400D01*
X8891502Y-23898400D01*
X8678675Y-23940734D01*
X8478197Y-24023775D01*
X8297771Y-24144332D01*
X8144332Y-24297771D01*
X8023775Y-24478197D01*
X7940734Y-24678675D01*
X7898400Y-24891502D01*
X380600Y-24891502D01*
X380600Y-23272319D01*
X2161207Y-23272319D01*
X2254514Y-23521417D01*
X2533409Y-23650251D01*
X2832079Y-23722200D01*
X3139047Y-23734499D01*
X3442517Y-23686675D01*
X3730825Y-23580566D01*
X3841486Y-23521417D01*
X3934793Y-23272319D01*
X3048000Y-22385526D01*
X2161207Y-23272319D01*
X380600Y-23272319D01*
X380600Y-22261047D01*
X1483501Y-22261047D01*
X1531325Y-22564517D01*
X1637434Y-22852825D01*
X1696583Y-22963486D01*
X1945681Y-23056793D01*
X2832474Y-22170000D01*
X1945681Y-21283207D01*
X1696583Y-21376514D01*
X1567749Y-21655409D01*
X1495800Y-21954079D01*
X1483501Y-22261047D01*
X380600Y-22261047D01*
X380600Y-21067681D01*
X2161207Y-21067681D01*
X3048000Y-21954474D01*
X3062143Y-21940332D01*
X3277669Y-22155858D01*
X3263526Y-22170000D01*
X4150319Y-23056793D01*
X4399417Y-22963486D01*
X4528251Y-22684591D01*
X4600200Y-22385921D01*
X4610953Y-22117537D01*
X4753313Y-22234369D01*
X4997499Y-22364888D01*
X5262455Y-22445262D01*
X5538000Y-22472401D01*
X5813546Y-22445262D01*
X6078502Y-22364888D01*
X6322688Y-22234369D01*
X6536718Y-22058718D01*
X6712369Y-21844688D01*
X6786498Y-21706000D01*
X11188680Y-21706000D01*
X11188680Y-23506000D01*
X11195546Y-23575710D01*
X11215879Y-23642740D01*
X11248899Y-23704516D01*
X11293337Y-23758663D01*
X11347484Y-23803101D01*
X11409260Y-23836121D01*
X11476290Y-23856454D01*
X11546000Y-23863320D01*
X11988800Y-23863320D01*
X11988801Y-25377540D01*
X11986589Y-25400000D01*
X11988801Y-25422460D01*
X11995416Y-25489627D01*
X12019094Y-25567681D01*
X12021560Y-25575809D01*
X12064013Y-25655235D01*
X12104691Y-25704800D01*
X12121148Y-25724853D01*
X12138593Y-25739170D01*
X13376830Y-26977408D01*
X13391147Y-26994853D01*
X13408592Y-27009170D01*
X13460763Y-27051987D01*
X13484206Y-27064517D01*
X13540191Y-27094441D01*
X13626373Y-27120585D01*
X13693540Y-27127200D01*
X13693549Y-27127200D01*
X13715999Y-27129411D01*
X13738449Y-27127200D01*
X17898208Y-27127200D01*
X17964993Y-27288433D01*
X18107874Y-27502271D01*
X18289729Y-27684126D01*
X18503567Y-27827007D01*
X18741171Y-27925426D01*
X18993410Y-27975600D01*
X19250590Y-27975600D01*
X19502829Y-27925426D01*
X19740433Y-27827007D01*
X19954271Y-27684126D01*
X20136126Y-27502271D01*
X20279007Y-27288433D01*
X20377426Y-27050829D01*
X20427600Y-26798590D01*
X20427600Y-26761047D01*
X22057501Y-26761047D01*
X22105325Y-27064517D01*
X22211434Y-27352825D01*
X22270583Y-27463486D01*
X22519681Y-27556793D01*
X23406474Y-26670000D01*
X22519681Y-25783207D01*
X22270583Y-25876514D01*
X22141749Y-26155409D01*
X22069800Y-26454079D01*
X22057501Y-26761047D01*
X20427600Y-26761047D01*
X20427600Y-26541410D01*
X20377426Y-26289171D01*
X20279007Y-26051567D01*
X20136126Y-25837729D01*
X19954271Y-25655874D01*
X19740433Y-25512993D01*
X19502829Y-25414574D01*
X19250590Y-25364400D01*
X18993410Y-25364400D01*
X18741171Y-25414574D01*
X18503567Y-25512993D01*
X18289729Y-25655874D01*
X18107874Y-25837729D01*
X17964993Y-26051567D01*
X17898208Y-26212800D01*
X13905378Y-26212800D01*
X12903200Y-25210623D01*
X12903200Y-23863320D01*
X13346000Y-23863320D01*
X13415710Y-23856454D01*
X13482740Y-23836121D01*
X13544516Y-23803101D01*
X13598663Y-23758663D01*
X13643101Y-23704516D01*
X13676121Y-23642740D01*
X13696454Y-23575710D01*
X13703320Y-23506000D01*
X13703320Y-21706000D01*
X13696454Y-21636290D01*
X13676121Y-21569260D01*
X13643101Y-21507484D01*
X13598663Y-21453337D01*
X13544516Y-21408899D01*
X13482740Y-21375879D01*
X13415710Y-21355546D01*
X13346000Y-21348680D01*
X11546000Y-21348680D01*
X11476290Y-21355546D01*
X11409260Y-21375879D01*
X11347484Y-21408899D01*
X11293337Y-21453337D01*
X11248899Y-21507484D01*
X11215879Y-21569260D01*
X11195546Y-21636290D01*
X11188680Y-21706000D01*
X6786498Y-21706000D01*
X6842888Y-21600501D01*
X6923262Y-21335545D01*
X6943600Y-21129050D01*
X6943600Y-20690949D01*
X6923262Y-20484454D01*
X6842888Y-20219498D01*
X6712369Y-19975312D01*
X6536717Y-19761282D01*
X6322687Y-19585631D01*
X6078501Y-19455112D01*
X5813545Y-19374738D01*
X5538000Y-19347599D01*
X5262454Y-19374738D01*
X4997498Y-19455112D01*
X4753312Y-19585631D01*
X4539282Y-19761283D01*
X4363631Y-19975313D01*
X4233112Y-20219499D01*
X4152738Y-20484455D01*
X4132400Y-20690950D01*
X4132400Y-21038815D01*
X4048028Y-20954443D01*
X3934792Y-21067679D01*
X3841486Y-20818583D01*
X3562591Y-20689749D01*
X3263921Y-20617800D01*
X2956953Y-20605501D01*
X2653483Y-20653325D01*
X2365175Y-20759434D01*
X2254514Y-20818583D01*
X2161207Y-21067681D01*
X380600Y-21067681D01*
X380600Y-8128000D01*
X5486400Y-8128000D01*
X5486400Y-13208000D01*
X5493233Y-13277374D01*
X5513468Y-13344082D01*
X5546329Y-13405561D01*
X5590553Y-13459447D01*
X5593664Y-13462000D01*
X5590553Y-13464553D01*
X5546329Y-13518439D01*
X5513468Y-13579918D01*
X5493233Y-13646626D01*
X5486400Y-13716000D01*
X5486400Y-18796000D01*
X5493233Y-18865374D01*
X5513468Y-18932082D01*
X5546329Y-18993561D01*
X5590553Y-19047447D01*
X5644439Y-19091671D01*
X5705918Y-19124532D01*
X5772626Y-19144767D01*
X5842000Y-19151600D01*
X25908000Y-19151600D01*
X25977374Y-19144767D01*
X26044082Y-19124532D01*
X26105561Y-19091671D01*
X26159447Y-19047447D01*
X26203671Y-18993561D01*
X26236532Y-18932082D01*
X26256767Y-18865374D01*
X26263600Y-18796000D01*
X26263600Y-15714004D01*
X26274048Y-15679562D01*
X26289320Y-15524500D01*
X26289320Y-14649500D01*
X26274048Y-14494438D01*
X26263600Y-14459996D01*
X26263600Y-13716000D01*
X26256767Y-13646626D01*
X26236532Y-13579918D01*
X26203671Y-13518439D01*
X26159447Y-13464553D01*
X26156336Y-13462000D01*
X26159447Y-13459447D01*
X26203671Y-13405561D01*
X26236532Y-13344082D01*
X26256767Y-13277374D01*
X26263600Y-13208000D01*
X26263600Y-12712000D01*
X28319450Y-12712000D01*
X28331220Y-12831503D01*
X28366078Y-12946413D01*
X28422683Y-13052315D01*
X28498862Y-13145138D01*
X28591685Y-13221317D01*
X28697587Y-13277922D01*
X28812497Y-13312780D01*
X28932000Y-13324550D01*
X29869200Y-13321600D01*
X30021600Y-13169200D01*
X30021600Y-12497400D01*
X31342400Y-12497400D01*
X31342400Y-13169200D01*
X31494800Y-13321600D01*
X32432000Y-13324550D01*
X32551503Y-13312780D01*
X32666413Y-13277922D01*
X32772315Y-13221317D01*
X32865138Y-13145138D01*
X32941317Y-13052315D01*
X32997922Y-12946413D01*
X33032780Y-12831503D01*
X33044550Y-12712000D01*
X33041600Y-12649800D01*
X32889200Y-12497400D01*
X31342400Y-12497400D01*
X30021600Y-12497400D01*
X28474800Y-12497400D01*
X28322400Y-12649800D01*
X28319450Y-12712000D01*
X26263600Y-12712000D01*
X26263600Y-12464004D01*
X26274048Y-12429562D01*
X26289320Y-12274500D01*
X26289320Y-11399500D01*
X26274048Y-11244438D01*
X26263600Y-11209996D01*
X26263600Y-10962000D01*
X28319450Y-10962000D01*
X28322400Y-11024200D01*
X28474800Y-11176600D01*
X30021600Y-11176600D01*
X30021600Y-10504800D01*
X31342400Y-10504800D01*
X31342400Y-11176600D01*
X32889200Y-11176600D01*
X33041600Y-11024200D01*
X33044550Y-10962000D01*
X33032780Y-10842497D01*
X32997922Y-10727587D01*
X32941317Y-10621685D01*
X32865138Y-10528862D01*
X32772315Y-10452683D01*
X32666413Y-10396078D01*
X32551503Y-10361220D01*
X32432000Y-10349450D01*
X31494800Y-10352400D01*
X31342400Y-10504800D01*
X30021600Y-10504800D01*
X29869200Y-10352400D01*
X28932000Y-10349450D01*
X28812497Y-10361220D01*
X28697587Y-10396078D01*
X28591685Y-10452683D01*
X28498862Y-10528862D01*
X28422683Y-10621685D01*
X28366078Y-10727587D01*
X28331220Y-10842497D01*
X28319450Y-10962000D01*
X26263600Y-10962000D01*
X26263600Y-8128000D01*
X26256767Y-8058626D01*
X26236532Y-7991918D01*
X26203671Y-7930439D01*
X26159447Y-7876553D01*
X26105561Y-7832329D01*
X26044082Y-7799468D01*
X25977374Y-7779233D01*
X25908000Y-7772400D01*
X5842000Y-7772400D01*
X5772626Y-7779233D01*
X5705918Y-7799468D01*
X5644439Y-7832329D01*
X5590553Y-7876553D01*
X5546329Y-7930439D01*
X5513468Y-7991918D01*
X5493233Y-8058626D01*
X5486400Y-8128000D01*
X380600Y-8128000D01*
X380600Y-3674821D01*
X698400Y-3674821D01*
X698400Y-4325179D01*
X825279Y-4963041D01*
X1074160Y-5563894D01*
X1435480Y-6104647D01*
X1895353Y-6564520D01*
X2436106Y-6925840D01*
X3036959Y-7174721D01*
X3674821Y-7301600D01*
X4325179Y-7301600D01*
X4963041Y-7174721D01*
X5563894Y-6925840D01*
X6104647Y-6564520D01*
X6564520Y-6104647D01*
X6925840Y-5563894D01*
X7174721Y-4963041D01*
X7301600Y-4325179D01*
X7301600Y-3955502D01*
X7898400Y-3955502D01*
X7898400Y-4172498D01*
X7940734Y-4385325D01*
X8023775Y-4585803D01*
X8144332Y-4766229D01*
X8297771Y-4919668D01*
X8478197Y-5040225D01*
X8678675Y-5123266D01*
X8891502Y-5165600D01*
X9108498Y-5165600D01*
X9321325Y-5123266D01*
X9521803Y-5040225D01*
X9702229Y-4919668D01*
X9855668Y-4766229D01*
X9976225Y-4585803D01*
X10059266Y-4385325D01*
X10101600Y-4172498D01*
X10101600Y-3955502D01*
X79898400Y-3955502D01*
X79898400Y-4172498D01*
X79940734Y-4385325D01*
X80023775Y-4585803D01*
X80144332Y-4766229D01*
X80297771Y-4919668D01*
X80478197Y-5040225D01*
X80678675Y-5123266D01*
X80891502Y-5165600D01*
X81108498Y-5165600D01*
X81321325Y-5123266D01*
X81521803Y-5040225D01*
X81702229Y-4919668D01*
X81855668Y-4766229D01*
X81976225Y-4585803D01*
X82059266Y-4385325D01*
X82101600Y-4172498D01*
X82101600Y-3955502D01*
X82059266Y-3742675D01*
X82031160Y-3674821D01*
X82698400Y-3674821D01*
X82698400Y-4325179D01*
X82825279Y-4963041D01*
X83074160Y-5563894D01*
X83435480Y-6104647D01*
X83895353Y-6564520D01*
X84436106Y-6925840D01*
X85036959Y-7174721D01*
X85674821Y-7301600D01*
X86325179Y-7301600D01*
X86963041Y-7174721D01*
X87563894Y-6925840D01*
X88104647Y-6564520D01*
X88564520Y-6104647D01*
X88925840Y-5563894D01*
X89174721Y-4963041D01*
X89301600Y-4325179D01*
X89301600Y-3674821D01*
X89174721Y-3036959D01*
X88925840Y-2436106D01*
X88564520Y-1895353D01*
X88104647Y-1435480D01*
X87563894Y-1074160D01*
X86963041Y-825279D01*
X86325179Y-698400D01*
X85674821Y-698400D01*
X85036959Y-825279D01*
X84436106Y-1074160D01*
X83895353Y-1435480D01*
X83435480Y-1895353D01*
X83074160Y-2436106D01*
X82825279Y-3036959D01*
X82698400Y-3674821D01*
X82031160Y-3674821D01*
X81976225Y-3542197D01*
X81855668Y-3361771D01*
X81702229Y-3208332D01*
X81521803Y-3087775D01*
X81321325Y-3004734D01*
X81108498Y-2962400D01*
X80891502Y-2962400D01*
X80678675Y-3004734D01*
X80478197Y-3087775D01*
X80297771Y-3208332D01*
X80144332Y-3361771D01*
X80023775Y-3542197D01*
X79940734Y-3742675D01*
X79898400Y-3955502D01*
X10101600Y-3955502D01*
X10059266Y-3742675D01*
X9976225Y-3542197D01*
X9855668Y-3361771D01*
X9702229Y-3208332D01*
X9521803Y-3087775D01*
X9321325Y-3004734D01*
X9108498Y-2962400D01*
X8891502Y-2962400D01*
X8678675Y-3004734D01*
X8478197Y-3087775D01*
X8297771Y-3208332D01*
X8144332Y-3361771D01*
X8023775Y-3542197D01*
X7940734Y-3742675D01*
X7898400Y-3955502D01*
X7301600Y-3955502D01*
X7301600Y-3674821D01*
X7174721Y-3036959D01*
X6925840Y-2436106D01*
X6564520Y-1895353D01*
X6104647Y-1435480D01*
X5563894Y-1074160D01*
X4963041Y-825279D01*
X4325179Y-698400D01*
X3674821Y-698400D01*
X3036959Y-825279D01*
X2436106Y-1074160D01*
X1895353Y-1435480D01*
X1435480Y-1895353D01*
X1074160Y-2436106D01*
X825279Y-3036959D01*
X698400Y-3674821D01*
X380600Y-3674821D01*
X380600Y-380600D01*
X89619400Y-380600D01*
X89619401Y-29619400D01*
G37*
%TD.AperFunction*%
D27*
X35617626Y-19906767D02*
X35687000Y-19913600D01*
X40792400Y-19913600D01*
X40792400Y-22098000D01*
X40799233Y-22167374D01*
X40819468Y-22234082D01*
X40852329Y-22295561D01*
X40896553Y-22349447D01*
X40950439Y-22393671D01*
X41011918Y-22426532D01*
X41078626Y-22446767D01*
X41148000Y-22453600D01*
X45212000Y-22453600D01*
X45281374Y-22446767D01*
X45348082Y-22426532D01*
X45409561Y-22393671D01*
X45463447Y-22349447D01*
X45507671Y-22295561D01*
X45540532Y-22234082D01*
X45560767Y-22167374D01*
X45567600Y-22098000D01*
X45567600Y-19913600D01*
X46029845Y-19913600D01*
X45948591Y-19957032D01*
X45856560Y-20032560D01*
X45781032Y-20124591D01*
X45724909Y-20229588D01*
X45690349Y-20343517D01*
X45678680Y-20461999D01*
X45678680Y-20987001D01*
X45690349Y-21105483D01*
X45724909Y-21219412D01*
X45781032Y-21324409D01*
X45856560Y-21416440D01*
X45948591Y-21491968D01*
X46053588Y-21548091D01*
X46167517Y-21582651D01*
X46278800Y-21593611D01*
X46278801Y-27990800D01*
X36779200Y-27990800D01*
X36779200Y-26702338D01*
X36806483Y-26699651D01*
X36920412Y-26665091D01*
X37025409Y-26608968D01*
X37117440Y-26533440D01*
X37192968Y-26441409D01*
X37249091Y-26336412D01*
X37283651Y-26222483D01*
X37295320Y-26104001D01*
X37295320Y-25203999D01*
X37283651Y-25085517D01*
X37249091Y-24971588D01*
X37192968Y-24866591D01*
X37172130Y-24841200D01*
X37503870Y-24841200D01*
X37483032Y-24866591D01*
X37426909Y-24971588D01*
X37392349Y-25085517D01*
X37380680Y-25203999D01*
X37380680Y-26104001D01*
X37392349Y-26222483D01*
X37426909Y-26336412D01*
X37483032Y-26441409D01*
X37558560Y-26533440D01*
X37650591Y-26608968D01*
X37755588Y-26665091D01*
X37869517Y-26699651D01*
X37987999Y-26711320D01*
X38513001Y-26711320D01*
X38631483Y-26699651D01*
X38745412Y-26665091D01*
X38850409Y-26608968D01*
X38942440Y-26533440D01*
X39017968Y-26441409D01*
X39074091Y-26336412D01*
X39108651Y-26222483D01*
X39120320Y-26104001D01*
X39120320Y-25203999D01*
X39108651Y-25085517D01*
X39074091Y-24971588D01*
X39017968Y-24866591D01*
X38942440Y-24774560D01*
X38850409Y-24699032D01*
X38745412Y-24642909D01*
X38677895Y-24622428D01*
X38674941Y-24612691D01*
X38655178Y-24575717D01*
X38632487Y-24533263D01*
X38589670Y-24481092D01*
X38575353Y-24463647D01*
X38557909Y-24449331D01*
X38185174Y-24076597D01*
X38170853Y-24059147D01*
X38135600Y-24030215D01*
X38135600Y-23266400D01*
X38440400Y-23266400D01*
X38440400Y-24067600D01*
X38516600Y-24143800D01*
X38788000Y-24145275D01*
X38847751Y-24139390D01*
X38905206Y-24121961D01*
X38958157Y-24093658D01*
X39004569Y-24055569D01*
X39042658Y-24009157D01*
X39070961Y-23956206D01*
X39088390Y-23898751D01*
X39094275Y-23839000D01*
X39094063Y-23767502D01*
X42332400Y-23767502D01*
X42332400Y-23984498D01*
X42374734Y-24197325D01*
X42457775Y-24397803D01*
X42578332Y-24578229D01*
X42731771Y-24731668D01*
X42912197Y-24852225D01*
X43112675Y-24935266D01*
X43325502Y-24977600D01*
X43542498Y-24977600D01*
X43755325Y-24935266D01*
X43955803Y-24852225D01*
X44136229Y-24731668D01*
X44289668Y-24578229D01*
X44410225Y-24397803D01*
X44493266Y-24197325D01*
X44535600Y-23984498D01*
X44535600Y-23767502D01*
X44493266Y-23554675D01*
X44410225Y-23354197D01*
X44289668Y-23173771D01*
X44136229Y-23020332D01*
X43955803Y-22899775D01*
X43755325Y-22816734D01*
X43542498Y-22774400D01*
X43325502Y-22774400D01*
X43112675Y-22816734D01*
X42912197Y-22899775D01*
X42731771Y-23020332D01*
X42578332Y-23173771D01*
X42457775Y-23354197D01*
X42374734Y-23554675D01*
X42332400Y-23767502D01*
X39094063Y-23767502D01*
X39092800Y-23342600D01*
X39016600Y-23266400D01*
X38440400Y-23266400D01*
X38135600Y-23266400D01*
X37559400Y-23266400D01*
X37483200Y-23342600D01*
X37481725Y-23839000D01*
X37487610Y-23898751D01*
X37496119Y-23926800D01*
X37142647Y-23926800D01*
X37142968Y-23926409D01*
X37199091Y-23821411D01*
X37233651Y-23707482D01*
X37245320Y-23589000D01*
X37245320Y-22639000D01*
X37233651Y-22520518D01*
X37199091Y-22406589D01*
X37189690Y-22389000D01*
X37481725Y-22389000D01*
X37483200Y-22885400D01*
X37559400Y-22961600D01*
X38135600Y-22961600D01*
X38135600Y-22160400D01*
X38440400Y-22160400D01*
X38440400Y-22961600D01*
X39016600Y-22961600D01*
X39092800Y-22885400D01*
X39094275Y-22389000D01*
X39088390Y-22329249D01*
X39070961Y-22271794D01*
X39042658Y-22218843D01*
X39004569Y-22172431D01*
X38958157Y-22134342D01*
X38905206Y-22106039D01*
X38847751Y-22088610D01*
X38788000Y-22082725D01*
X38516600Y-22084200D01*
X38440400Y-22160400D01*
X38135600Y-22160400D01*
X38059400Y-22084200D01*
X37788000Y-22082725D01*
X37728249Y-22088610D01*
X37670794Y-22106039D01*
X37617843Y-22134342D01*
X37571431Y-22172431D01*
X37533342Y-22218843D01*
X37505039Y-22271794D01*
X37487610Y-22329249D01*
X37481725Y-22389000D01*
X37189690Y-22389000D01*
X37142968Y-22301591D01*
X37067440Y-22209560D01*
X36975409Y-22134032D01*
X36870411Y-22077909D01*
X36841314Y-22069083D01*
X36838585Y-22041373D01*
X36812441Y-21955191D01*
X36779784Y-21894093D01*
X36769987Y-21875763D01*
X36727170Y-21823592D01*
X36712853Y-21806147D01*
X36695409Y-21791831D01*
X36650378Y-21746800D01*
X36692402Y-21746800D01*
X36692402Y-21724602D01*
X36714600Y-21746800D01*
X36740000Y-21748275D01*
X36799751Y-21742390D01*
X36857206Y-21724961D01*
X36910157Y-21696658D01*
X36956569Y-21658569D01*
X36994658Y-21612157D01*
X37022961Y-21559206D01*
X37040390Y-21501751D01*
X37046275Y-21442000D01*
X37045395Y-21262000D01*
X37830725Y-21262000D01*
X37836610Y-21321751D01*
X37854039Y-21379206D01*
X37882342Y-21432157D01*
X37920431Y-21478569D01*
X37966843Y-21516658D01*
X38019794Y-21544961D01*
X38077249Y-21562390D01*
X38137000Y-21568275D01*
X38633400Y-21566800D01*
X38709600Y-21490600D01*
X38709600Y-20914400D01*
X39014400Y-20914400D01*
X39014400Y-21490600D01*
X39090600Y-21566800D01*
X39587000Y-21568275D01*
X39646751Y-21562390D01*
X39704206Y-21544961D01*
X39757157Y-21516658D01*
X39803569Y-21478569D01*
X39841658Y-21432157D01*
X39869961Y-21379206D01*
X39887390Y-21321751D01*
X39893275Y-21262000D01*
X39891800Y-20990600D01*
X39815600Y-20914400D01*
X39014400Y-20914400D01*
X38709600Y-20914400D01*
X37908400Y-20914400D01*
X37832200Y-20990600D01*
X37830725Y-21262000D01*
X37045395Y-21262000D01*
X37044800Y-21140600D01*
X36968600Y-21064400D01*
X36638400Y-21064400D01*
X36638400Y-21084400D01*
X36447320Y-21084400D01*
X36447320Y-20382000D01*
X36441600Y-20323925D01*
X36441600Y-20153400D01*
X36638400Y-20153400D01*
X36638400Y-20759600D01*
X36968600Y-20759600D01*
X37044800Y-20683400D01*
X37046275Y-20382000D01*
X37040390Y-20322249D01*
X37022961Y-20264794D01*
X37021468Y-20262000D01*
X37830725Y-20262000D01*
X37832200Y-20533400D01*
X37908400Y-20609600D01*
X38709600Y-20609600D01*
X38709600Y-20033400D01*
X39014400Y-20033400D01*
X39014400Y-20609600D01*
X39815600Y-20609600D01*
X39891800Y-20533400D01*
X39893275Y-20262000D01*
X39887390Y-20202249D01*
X39869961Y-20144794D01*
X39841658Y-20091843D01*
X39803569Y-20045431D01*
X39757157Y-20007342D01*
X39704206Y-19979039D01*
X39646751Y-19961610D01*
X39587000Y-19955725D01*
X39090600Y-19957200D01*
X39014400Y-20033400D01*
X38709600Y-20033400D01*
X38633400Y-19957200D01*
X38137000Y-19955725D01*
X38077249Y-19961610D01*
X38019794Y-19979039D01*
X37966843Y-20007342D01*
X37920431Y-20045431D01*
X37882342Y-20091843D01*
X37854039Y-20144794D01*
X37836610Y-20202249D01*
X37830725Y-20262000D01*
X37021468Y-20262000D01*
X36994658Y-20211843D01*
X36956569Y-20165431D01*
X36910157Y-20127342D01*
X36857206Y-20099039D01*
X36799751Y-20081610D01*
X36740000Y-20075725D01*
X36714600Y-20077200D01*
X36638400Y-20153400D01*
X36441600Y-20153400D01*
X36365400Y-20077200D01*
X36340000Y-20075725D01*
X36282034Y-20081434D01*
X36226740Y-20051879D01*
X36159710Y-20031546D01*
X36090000Y-20024680D01*
X35690000Y-20024680D01*
X35620290Y-20031546D01*
X35560000Y-20049834D01*
X35499710Y-20031546D01*
X35430000Y-20024680D01*
X35030000Y-20024680D01*
X34960290Y-20031546D01*
X34905000Y-20048318D01*
X34849710Y-20031546D01*
X34780000Y-20024680D01*
X34380000Y-20024680D01*
X34310290Y-20031546D01*
X34243260Y-20051879D01*
X34181484Y-20084899D01*
X34127337Y-20129337D01*
X34082899Y-20183484D01*
X34049879Y-20245260D01*
X34029546Y-20312290D01*
X34022680Y-20382000D01*
X34022680Y-21442000D01*
X34024719Y-21462703D01*
X33625097Y-21862326D01*
X33607647Y-21876647D01*
X33550513Y-21946265D01*
X33508059Y-22025692D01*
X33489403Y-22087191D01*
X33437588Y-22102909D01*
X33332591Y-22159032D01*
X33240560Y-22234560D01*
X33165032Y-22326591D01*
X33108909Y-22431588D01*
X33074349Y-22545517D01*
X33062680Y-22663999D01*
X33062680Y-23564001D01*
X33074349Y-23682483D01*
X33108909Y-23796412D01*
X33165032Y-23901409D01*
X33240560Y-23993440D01*
X33332591Y-24068968D01*
X33437588Y-24125091D01*
X33551517Y-24159651D01*
X33669999Y-24171320D01*
X34195001Y-24171320D01*
X34313483Y-24159651D01*
X34427412Y-24125091D01*
X34532409Y-24068968D01*
X34624440Y-23993440D01*
X34699968Y-23901409D01*
X34756091Y-23796412D01*
X34772801Y-23741327D01*
X34772801Y-23777540D01*
X34770589Y-23800000D01*
X34772801Y-23822460D01*
X34779416Y-23889627D01*
X34792700Y-23933416D01*
X34805560Y-23975809D01*
X34848013Y-24055235D01*
X34879547Y-24093658D01*
X34905148Y-24124853D01*
X34922592Y-24139169D01*
X35474834Y-24691413D01*
X35489147Y-24708853D01*
X35506586Y-24723165D01*
X35506592Y-24723171D01*
X35558764Y-24765987D01*
X35638190Y-24808441D01*
X35658249Y-24814526D01*
X35692287Y-24824851D01*
X35658032Y-24866591D01*
X35601909Y-24971588D01*
X35567349Y-25085517D01*
X35555680Y-25203999D01*
X35555680Y-26104001D01*
X35567349Y-26222483D01*
X35601909Y-26336412D01*
X35658032Y-26441409D01*
X35733560Y-26533440D01*
X35825591Y-26608968D01*
X35864800Y-26629926D01*
X35864801Y-27990800D01*
X29667200Y-27990800D01*
X29667200Y-24137107D01*
X29741517Y-24159651D01*
X29859999Y-24171320D01*
X30385001Y-24171320D01*
X30503483Y-24159651D01*
X30617412Y-24125091D01*
X30722409Y-24068968D01*
X30814440Y-23993440D01*
X30889968Y-23901409D01*
X30946091Y-23796412D01*
X30970390Y-23716307D01*
X31049369Y-23749021D01*
X31176956Y-23774400D01*
X31277232Y-23774400D01*
X31283909Y-23796412D01*
X31340032Y-23901409D01*
X31415560Y-23993440D01*
X31507591Y-24068968D01*
X31612588Y-24125091D01*
X31726517Y-24159651D01*
X31844999Y-24171320D01*
X32370001Y-24171320D01*
X32488483Y-24159651D01*
X32602412Y-24125091D01*
X32707409Y-24068968D01*
X32799440Y-23993440D01*
X32874968Y-23901409D01*
X32931091Y-23796412D01*
X32965651Y-23682483D01*
X32977320Y-23564001D01*
X32977320Y-22663999D01*
X32965651Y-22545517D01*
X32931091Y-22431588D01*
X32874968Y-22326591D01*
X32799440Y-22234560D01*
X32707409Y-22159032D01*
X32602412Y-22102909D01*
X32488483Y-22068349D01*
X32370001Y-22056680D01*
X31844999Y-22056680D01*
X31726517Y-22068349D01*
X31612588Y-22102909D01*
X31507591Y-22159032D01*
X31415560Y-22234560D01*
X31340032Y-22326591D01*
X31283909Y-22431588D01*
X31277232Y-22453600D01*
X31176956Y-22453600D01*
X31049369Y-22478979D01*
X30970390Y-22511693D01*
X30946091Y-22431588D01*
X30889968Y-22326591D01*
X30814440Y-22234560D01*
X30722409Y-22159032D01*
X30617412Y-22102909D01*
X30503483Y-22068349D01*
X30385001Y-22056680D01*
X29897898Y-22056680D01*
X30279413Y-21675165D01*
X30296853Y-21660853D01*
X30311165Y-21643414D01*
X30311171Y-21643408D01*
X30351456Y-21594320D01*
X30422001Y-21594320D01*
X30540483Y-21582651D01*
X30654412Y-21548091D01*
X30759409Y-21491968D01*
X30851440Y-21416440D01*
X30926968Y-21324409D01*
X30960326Y-21262000D01*
X31175679Y-21262000D01*
X31182545Y-21331710D01*
X31202878Y-21398741D01*
X31235898Y-21460517D01*
X31280336Y-21514664D01*
X31334483Y-21559102D01*
X31396259Y-21592122D01*
X31463290Y-21612455D01*
X31533000Y-21619321D01*
X32016700Y-21617600D01*
X32105600Y-21528700D01*
X32105600Y-20914400D01*
X32410400Y-20914400D01*
X32410400Y-21528700D01*
X32499300Y-21617600D01*
X32983000Y-21619321D01*
X33052710Y-21612455D01*
X33119741Y-21592122D01*
X33181517Y-21559102D01*
X33235664Y-21514664D01*
X33280102Y-21460517D01*
X33313122Y-21398741D01*
X33333455Y-21331710D01*
X33340321Y-21262000D01*
X33338600Y-21003300D01*
X33249700Y-20914400D01*
X32410400Y-20914400D01*
X32105600Y-20914400D01*
X31266300Y-20914400D01*
X31177400Y-21003300D01*
X31175679Y-21262000D01*
X30960326Y-21262000D01*
X30983091Y-21219412D01*
X31017651Y-21105483D01*
X31029320Y-20987001D01*
X31029320Y-20461999D01*
X31017651Y-20343517D01*
X30983091Y-20229588D01*
X30926968Y-20124591D01*
X30851440Y-20032560D01*
X30759409Y-19957032D01*
X30678155Y-19913600D01*
X31456515Y-19913600D01*
X31396259Y-19931878D01*
X31334483Y-19964898D01*
X31280336Y-20009336D01*
X31235898Y-20063483D01*
X31202878Y-20125259D01*
X31182545Y-20192290D01*
X31175679Y-20262000D01*
X31177400Y-20520700D01*
X31266300Y-20609600D01*
X32105600Y-20609600D01*
X32105600Y-20589600D01*
X32410400Y-20589600D01*
X32410400Y-20609600D01*
X33249700Y-20609600D01*
X33338600Y-20520700D01*
X33340321Y-20262000D01*
X33333455Y-20192290D01*
X33313122Y-20125259D01*
X33280102Y-20063483D01*
X33235664Y-20009336D01*
X33181517Y-19964898D01*
X33119741Y-19931878D01*
X33059485Y-19913600D01*
X35433000Y-19913600D01*
X35502374Y-19906767D01*
X35560000Y-19889287D01*
X35617626Y-19906767D01*
%TA.AperFunction,Conductor*%
D28*
G36*
X35617626Y-19906767D02*
G01*
X35687000Y-19913600D01*
X40792400Y-19913600D01*
X40792400Y-22098000D01*
X40799233Y-22167374D01*
X40819468Y-22234082D01*
X40852329Y-22295561D01*
X40896553Y-22349447D01*
X40950439Y-22393671D01*
X41011918Y-22426532D01*
X41078626Y-22446767D01*
X41148000Y-22453600D01*
X45212000Y-22453600D01*
X45281374Y-22446767D01*
X45348082Y-22426532D01*
X45409561Y-22393671D01*
X45463447Y-22349447D01*
X45507671Y-22295561D01*
X45540532Y-22234082D01*
X45560767Y-22167374D01*
X45567600Y-22098000D01*
X45567600Y-19913600D01*
X46029845Y-19913600D01*
X45948591Y-19957032D01*
X45856560Y-20032560D01*
X45781032Y-20124591D01*
X45724909Y-20229588D01*
X45690349Y-20343517D01*
X45678680Y-20461999D01*
X45678680Y-20987001D01*
X45690349Y-21105483D01*
X45724909Y-21219412D01*
X45781032Y-21324409D01*
X45856560Y-21416440D01*
X45948591Y-21491968D01*
X46053588Y-21548091D01*
X46167517Y-21582651D01*
X46278800Y-21593611D01*
X46278801Y-27990800D01*
X36779200Y-27990800D01*
X36779200Y-26702338D01*
X36806483Y-26699651D01*
X36920412Y-26665091D01*
X37025409Y-26608968D01*
X37117440Y-26533440D01*
X37192968Y-26441409D01*
X37249091Y-26336412D01*
X37283651Y-26222483D01*
X37295320Y-26104001D01*
X37295320Y-25203999D01*
X37283651Y-25085517D01*
X37249091Y-24971588D01*
X37192968Y-24866591D01*
X37172130Y-24841200D01*
X37503870Y-24841200D01*
X37483032Y-24866591D01*
X37426909Y-24971588D01*
X37392349Y-25085517D01*
X37380680Y-25203999D01*
X37380680Y-26104001D01*
X37392349Y-26222483D01*
X37426909Y-26336412D01*
X37483032Y-26441409D01*
X37558560Y-26533440D01*
X37650591Y-26608968D01*
X37755588Y-26665091D01*
X37869517Y-26699651D01*
X37987999Y-26711320D01*
X38513001Y-26711320D01*
X38631483Y-26699651D01*
X38745412Y-26665091D01*
X38850409Y-26608968D01*
X38942440Y-26533440D01*
X39017968Y-26441409D01*
X39074091Y-26336412D01*
X39108651Y-26222483D01*
X39120320Y-26104001D01*
X39120320Y-25203999D01*
X39108651Y-25085517D01*
X39074091Y-24971588D01*
X39017968Y-24866591D01*
X38942440Y-24774560D01*
X38850409Y-24699032D01*
X38745412Y-24642909D01*
X38677895Y-24622428D01*
X38674941Y-24612691D01*
X38655178Y-24575717D01*
X38632487Y-24533263D01*
X38589670Y-24481092D01*
X38575353Y-24463647D01*
X38557909Y-24449331D01*
X38185174Y-24076597D01*
X38170853Y-24059147D01*
X38135600Y-24030215D01*
X38135600Y-23266400D01*
X38440400Y-23266400D01*
X38440400Y-24067600D01*
X38516600Y-24143800D01*
X38788000Y-24145275D01*
X38847751Y-24139390D01*
X38905206Y-24121961D01*
X38958157Y-24093658D01*
X39004569Y-24055569D01*
X39042658Y-24009157D01*
X39070961Y-23956206D01*
X39088390Y-23898751D01*
X39094275Y-23839000D01*
X39094063Y-23767502D01*
X42332400Y-23767502D01*
X42332400Y-23984498D01*
X42374734Y-24197325D01*
X42457775Y-24397803D01*
X42578332Y-24578229D01*
X42731771Y-24731668D01*
X42912197Y-24852225D01*
X43112675Y-24935266D01*
X43325502Y-24977600D01*
X43542498Y-24977600D01*
X43755325Y-24935266D01*
X43955803Y-24852225D01*
X44136229Y-24731668D01*
X44289668Y-24578229D01*
X44410225Y-24397803D01*
X44493266Y-24197325D01*
X44535600Y-23984498D01*
X44535600Y-23767502D01*
X44493266Y-23554675D01*
X44410225Y-23354197D01*
X44289668Y-23173771D01*
X44136229Y-23020332D01*
X43955803Y-22899775D01*
X43755325Y-22816734D01*
X43542498Y-22774400D01*
X43325502Y-22774400D01*
X43112675Y-22816734D01*
X42912197Y-22899775D01*
X42731771Y-23020332D01*
X42578332Y-23173771D01*
X42457775Y-23354197D01*
X42374734Y-23554675D01*
X42332400Y-23767502D01*
X39094063Y-23767502D01*
X39092800Y-23342600D01*
X39016600Y-23266400D01*
X38440400Y-23266400D01*
X38135600Y-23266400D01*
X37559400Y-23266400D01*
X37483200Y-23342600D01*
X37481725Y-23839000D01*
X37487610Y-23898751D01*
X37496119Y-23926800D01*
X37142647Y-23926800D01*
X37142968Y-23926409D01*
X37199091Y-23821411D01*
X37233651Y-23707482D01*
X37245320Y-23589000D01*
X37245320Y-22639000D01*
X37233651Y-22520518D01*
X37199091Y-22406589D01*
X37189690Y-22389000D01*
X37481725Y-22389000D01*
X37483200Y-22885400D01*
X37559400Y-22961600D01*
X38135600Y-22961600D01*
X38135600Y-22160400D01*
X38440400Y-22160400D01*
X38440400Y-22961600D01*
X39016600Y-22961600D01*
X39092800Y-22885400D01*
X39094275Y-22389000D01*
X39088390Y-22329249D01*
X39070961Y-22271794D01*
X39042658Y-22218843D01*
X39004569Y-22172431D01*
X38958157Y-22134342D01*
X38905206Y-22106039D01*
X38847751Y-22088610D01*
X38788000Y-22082725D01*
X38516600Y-22084200D01*
X38440400Y-22160400D01*
X38135600Y-22160400D01*
X38059400Y-22084200D01*
X37788000Y-22082725D01*
X37728249Y-22088610D01*
X37670794Y-22106039D01*
X37617843Y-22134342D01*
X37571431Y-22172431D01*
X37533342Y-22218843D01*
X37505039Y-22271794D01*
X37487610Y-22329249D01*
X37481725Y-22389000D01*
X37189690Y-22389000D01*
X37142968Y-22301591D01*
X37067440Y-22209560D01*
X36975409Y-22134032D01*
X36870411Y-22077909D01*
X36841314Y-22069083D01*
X36838585Y-22041373D01*
X36812441Y-21955191D01*
X36779784Y-21894093D01*
X36769987Y-21875763D01*
X36727170Y-21823592D01*
X36712853Y-21806147D01*
X36695409Y-21791831D01*
X36650378Y-21746800D01*
X36692402Y-21746800D01*
X36692402Y-21724602D01*
X36714600Y-21746800D01*
X36740000Y-21748275D01*
X36799751Y-21742390D01*
X36857206Y-21724961D01*
X36910157Y-21696658D01*
X36956569Y-21658569D01*
X36994658Y-21612157D01*
X37022961Y-21559206D01*
X37040390Y-21501751D01*
X37046275Y-21442000D01*
X37045395Y-21262000D01*
X37830725Y-21262000D01*
X37836610Y-21321751D01*
X37854039Y-21379206D01*
X37882342Y-21432157D01*
X37920431Y-21478569D01*
X37966843Y-21516658D01*
X38019794Y-21544961D01*
X38077249Y-21562390D01*
X38137000Y-21568275D01*
X38633400Y-21566800D01*
X38709600Y-21490600D01*
X38709600Y-20914400D01*
X39014400Y-20914400D01*
X39014400Y-21490600D01*
X39090600Y-21566800D01*
X39587000Y-21568275D01*
X39646751Y-21562390D01*
X39704206Y-21544961D01*
X39757157Y-21516658D01*
X39803569Y-21478569D01*
X39841658Y-21432157D01*
X39869961Y-21379206D01*
X39887390Y-21321751D01*
X39893275Y-21262000D01*
X39891800Y-20990600D01*
X39815600Y-20914400D01*
X39014400Y-20914400D01*
X38709600Y-20914400D01*
X37908400Y-20914400D01*
X37832200Y-20990600D01*
X37830725Y-21262000D01*
X37045395Y-21262000D01*
X37044800Y-21140600D01*
X36968600Y-21064400D01*
X36638400Y-21064400D01*
X36638400Y-21084400D01*
X36447320Y-21084400D01*
X36447320Y-20382000D01*
X36441600Y-20323925D01*
X36441600Y-20153400D01*
X36638400Y-20153400D01*
X36638400Y-20759600D01*
X36968600Y-20759600D01*
X37044800Y-20683400D01*
X37046275Y-20382000D01*
X37040390Y-20322249D01*
X37022961Y-20264794D01*
X37021468Y-20262000D01*
X37830725Y-20262000D01*
X37832200Y-20533400D01*
X37908400Y-20609600D01*
X38709600Y-20609600D01*
X38709600Y-20033400D01*
X39014400Y-20033400D01*
X39014400Y-20609600D01*
X39815600Y-20609600D01*
X39891800Y-20533400D01*
X39893275Y-20262000D01*
X39887390Y-20202249D01*
X39869961Y-20144794D01*
X39841658Y-20091843D01*
X39803569Y-20045431D01*
X39757157Y-20007342D01*
X39704206Y-19979039D01*
X39646751Y-19961610D01*
X39587000Y-19955725D01*
X39090600Y-19957200D01*
X39014400Y-20033400D01*
X38709600Y-20033400D01*
X38633400Y-19957200D01*
X38137000Y-19955725D01*
X38077249Y-19961610D01*
X38019794Y-19979039D01*
X37966843Y-20007342D01*
X37920431Y-20045431D01*
X37882342Y-20091843D01*
X37854039Y-20144794D01*
X37836610Y-20202249D01*
X37830725Y-20262000D01*
X37021468Y-20262000D01*
X36994658Y-20211843D01*
X36956569Y-20165431D01*
X36910157Y-20127342D01*
X36857206Y-20099039D01*
X36799751Y-20081610D01*
X36740000Y-20075725D01*
X36714600Y-20077200D01*
X36638400Y-20153400D01*
X36441600Y-20153400D01*
X36365400Y-20077200D01*
X36340000Y-20075725D01*
X36282034Y-20081434D01*
X36226740Y-20051879D01*
X36159710Y-20031546D01*
X36090000Y-20024680D01*
X35690000Y-20024680D01*
X35620290Y-20031546D01*
X35560000Y-20049834D01*
X35499710Y-20031546D01*
X35430000Y-20024680D01*
X35030000Y-20024680D01*
X34960290Y-20031546D01*
X34905000Y-20048318D01*
X34849710Y-20031546D01*
X34780000Y-20024680D01*
X34380000Y-20024680D01*
X34310290Y-20031546D01*
X34243260Y-20051879D01*
X34181484Y-20084899D01*
X34127337Y-20129337D01*
X34082899Y-20183484D01*
X34049879Y-20245260D01*
X34029546Y-20312290D01*
X34022680Y-20382000D01*
X34022680Y-21442000D01*
X34024719Y-21462703D01*
X33625097Y-21862326D01*
X33607647Y-21876647D01*
X33550513Y-21946265D01*
X33508059Y-22025692D01*
X33489403Y-22087191D01*
X33437588Y-22102909D01*
X33332591Y-22159032D01*
X33240560Y-22234560D01*
X33165032Y-22326591D01*
X33108909Y-22431588D01*
X33074349Y-22545517D01*
X33062680Y-22663999D01*
X33062680Y-23564001D01*
X33074349Y-23682483D01*
X33108909Y-23796412D01*
X33165032Y-23901409D01*
X33240560Y-23993440D01*
X33332591Y-24068968D01*
X33437588Y-24125091D01*
X33551517Y-24159651D01*
X33669999Y-24171320D01*
X34195001Y-24171320D01*
X34313483Y-24159651D01*
X34427412Y-24125091D01*
X34532409Y-24068968D01*
X34624440Y-23993440D01*
X34699968Y-23901409D01*
X34756091Y-23796412D01*
X34772801Y-23741327D01*
X34772801Y-23777540D01*
X34770589Y-23800000D01*
X34772801Y-23822460D01*
X34779416Y-23889627D01*
X34792700Y-23933416D01*
X34805560Y-23975809D01*
X34848013Y-24055235D01*
X34879547Y-24093658D01*
X34905148Y-24124853D01*
X34922592Y-24139169D01*
X35474834Y-24691413D01*
X35489147Y-24708853D01*
X35506586Y-24723165D01*
X35506592Y-24723171D01*
X35558764Y-24765987D01*
X35638190Y-24808441D01*
X35658249Y-24814526D01*
X35692287Y-24824851D01*
X35658032Y-24866591D01*
X35601909Y-24971588D01*
X35567349Y-25085517D01*
X35555680Y-25203999D01*
X35555680Y-26104001D01*
X35567349Y-26222483D01*
X35601909Y-26336412D01*
X35658032Y-26441409D01*
X35733560Y-26533440D01*
X35825591Y-26608968D01*
X35864800Y-26629926D01*
X35864801Y-27990800D01*
X29667200Y-27990800D01*
X29667200Y-24137107D01*
X29741517Y-24159651D01*
X29859999Y-24171320D01*
X30385001Y-24171320D01*
X30503483Y-24159651D01*
X30617412Y-24125091D01*
X30722409Y-24068968D01*
X30814440Y-23993440D01*
X30889968Y-23901409D01*
X30946091Y-23796412D01*
X30970390Y-23716307D01*
X31049369Y-23749021D01*
X31176956Y-23774400D01*
X31277232Y-23774400D01*
X31283909Y-23796412D01*
X31340032Y-23901409D01*
X31415560Y-23993440D01*
X31507591Y-24068968D01*
X31612588Y-24125091D01*
X31726517Y-24159651D01*
X31844999Y-24171320D01*
X32370001Y-24171320D01*
X32488483Y-24159651D01*
X32602412Y-24125091D01*
X32707409Y-24068968D01*
X32799440Y-23993440D01*
X32874968Y-23901409D01*
X32931091Y-23796412D01*
X32965651Y-23682483D01*
X32977320Y-23564001D01*
X32977320Y-22663999D01*
X32965651Y-22545517D01*
X32931091Y-22431588D01*
X32874968Y-22326591D01*
X32799440Y-22234560D01*
X32707409Y-22159032D01*
X32602412Y-22102909D01*
X32488483Y-22068349D01*
X32370001Y-22056680D01*
X31844999Y-22056680D01*
X31726517Y-22068349D01*
X31612588Y-22102909D01*
X31507591Y-22159032D01*
X31415560Y-22234560D01*
X31340032Y-22326591D01*
X31283909Y-22431588D01*
X31277232Y-22453600D01*
X31176956Y-22453600D01*
X31049369Y-22478979D01*
X30970390Y-22511693D01*
X30946091Y-22431588D01*
X30889968Y-22326591D01*
X30814440Y-22234560D01*
X30722409Y-22159032D01*
X30617412Y-22102909D01*
X30503483Y-22068349D01*
X30385001Y-22056680D01*
X29897898Y-22056680D01*
X30279413Y-21675165D01*
X30296853Y-21660853D01*
X30311165Y-21643414D01*
X30311171Y-21643408D01*
X30351456Y-21594320D01*
X30422001Y-21594320D01*
X30540483Y-21582651D01*
X30654412Y-21548091D01*
X30759409Y-21491968D01*
X30851440Y-21416440D01*
X30926968Y-21324409D01*
X30960326Y-21262000D01*
X31175679Y-21262000D01*
X31182545Y-21331710D01*
X31202878Y-21398741D01*
X31235898Y-21460517D01*
X31280336Y-21514664D01*
X31334483Y-21559102D01*
X31396259Y-21592122D01*
X31463290Y-21612455D01*
X31533000Y-21619321D01*
X32016700Y-21617600D01*
X32105600Y-21528700D01*
X32105600Y-20914400D01*
X32410400Y-20914400D01*
X32410400Y-21528700D01*
X32499300Y-21617600D01*
X32983000Y-21619321D01*
X33052710Y-21612455D01*
X33119741Y-21592122D01*
X33181517Y-21559102D01*
X33235664Y-21514664D01*
X33280102Y-21460517D01*
X33313122Y-21398741D01*
X33333455Y-21331710D01*
X33340321Y-21262000D01*
X33338600Y-21003300D01*
X33249700Y-20914400D01*
X32410400Y-20914400D01*
X32105600Y-20914400D01*
X31266300Y-20914400D01*
X31177400Y-21003300D01*
X31175679Y-21262000D01*
X30960326Y-21262000D01*
X30983091Y-21219412D01*
X31017651Y-21105483D01*
X31029320Y-20987001D01*
X31029320Y-20461999D01*
X31017651Y-20343517D01*
X30983091Y-20229588D01*
X30926968Y-20124591D01*
X30851440Y-20032560D01*
X30759409Y-19957032D01*
X30678155Y-19913600D01*
X31456515Y-19913600D01*
X31396259Y-19931878D01*
X31334483Y-19964898D01*
X31280336Y-20009336D01*
X31235898Y-20063483D01*
X31202878Y-20125259D01*
X31182545Y-20192290D01*
X31175679Y-20262000D01*
X31177400Y-20520700D01*
X31266300Y-20609600D01*
X32105600Y-20609600D01*
X32105600Y-20589600D01*
X32410400Y-20589600D01*
X32410400Y-20609600D01*
X33249700Y-20609600D01*
X33338600Y-20520700D01*
X33340321Y-20262000D01*
X33333455Y-20192290D01*
X33313122Y-20125259D01*
X33280102Y-20063483D01*
X33235664Y-20009336D01*
X33181517Y-19964898D01*
X33119741Y-19931878D01*
X33059485Y-19913600D01*
X35433000Y-19913600D01*
X35502374Y-19906767D01*
X35560000Y-19889287D01*
X35617626Y-19906767D01*
G37*
%TD.AperFunction*%
%TD*%
D27*
%TO.N,Net-(D1-Pad2)*%
X25806400Y-13106400D02*
X5943600Y-13106400D01*
X5943600Y-8229600D01*
X25806400Y-8229600D01*
X25806400Y-13106400D01*
%TA.AperFunction,Conductor*%
D28*
G36*
X25806400Y-13106400D02*
G01*
X5943600Y-13106400D01*
X5943600Y-8229600D01*
X25806400Y-8229600D01*
X25806400Y-13106400D01*
G37*
%TD.AperFunction*%
%TD*%
D27*
%TO.N,Net-(D1-Pad1)*%
X25806400Y-18694400D02*
X5943600Y-18694400D01*
X5943600Y-13817600D01*
X25806400Y-13817600D01*
X25806400Y-18694400D01*
%TA.AperFunction,Conductor*%
D28*
G36*
X25806400Y-18694400D02*
G01*
X5943600Y-18694400D01*
X5943600Y-13817600D01*
X25806400Y-13817600D01*
X25806400Y-18694400D01*
G37*
%TD.AperFunction*%
%TD*%
D27*
%TO.N,Net-(C2-Pad1)*%
X45110400Y-21996400D02*
X41249600Y-21996400D01*
X41249600Y-19558000D01*
X41247648Y-19538179D01*
X41241866Y-19519119D01*
X41232477Y-19501554D01*
X41219842Y-19486158D01*
X41204446Y-19473523D01*
X41186881Y-19464134D01*
X41167821Y-19458352D01*
X41148000Y-19456400D01*
X35788600Y-19456400D01*
X35788600Y-17881600D01*
X45110400Y-17881600D01*
X45110400Y-21996400D01*
%TA.AperFunction,Conductor*%
D28*
G36*
X45110400Y-21996400D02*
G01*
X41249600Y-21996400D01*
X41249600Y-19558000D01*
X41247648Y-19538179D01*
X41241866Y-19519119D01*
X41232477Y-19501554D01*
X41219842Y-19486158D01*
X41204446Y-19473523D01*
X41186881Y-19464134D01*
X41167821Y-19458352D01*
X41148000Y-19456400D01*
X35788600Y-19456400D01*
X35788600Y-17881600D01*
X45110400Y-17881600D01*
X45110400Y-21996400D01*
G37*
%TD.AperFunction*%
%TD*%
D27*
%TO.N,Net-(C2-Pad1)*%
X86766400Y-18440400D02*
X81381600Y-18440400D01*
X81381600Y-13208000D01*
X81379648Y-13188179D01*
X81373866Y-13169119D01*
X81364477Y-13151554D01*
X81351842Y-13136158D01*
X81336446Y-13123523D01*
X81318881Y-13114134D01*
X81299821Y-13108352D01*
X81280000Y-13106400D01*
X56896000Y-13106400D01*
X56876179Y-13108352D01*
X56857119Y-13114134D01*
X56839554Y-13123523D01*
X56824158Y-13136158D01*
X56811523Y-13151554D01*
X56802134Y-13169119D01*
X56796352Y-13188179D01*
X56794400Y-13208000D01*
X56794400Y-19456400D01*
X52552600Y-19456400D01*
X52552600Y-7975600D01*
X86766400Y-7975600D01*
X86766400Y-18440400D01*
%TA.AperFunction,Conductor*%
D28*
G36*
X86766400Y-18440400D02*
G01*
X81381600Y-18440400D01*
X81381600Y-13208000D01*
X81379648Y-13188179D01*
X81373866Y-13169119D01*
X81364477Y-13151554D01*
X81351842Y-13136158D01*
X81336446Y-13123523D01*
X81318881Y-13114134D01*
X81299821Y-13108352D01*
X81280000Y-13106400D01*
X56896000Y-13106400D01*
X56876179Y-13108352D01*
X56857119Y-13114134D01*
X56839554Y-13123523D01*
X56824158Y-13136158D01*
X56811523Y-13151554D01*
X56802134Y-13169119D01*
X56796352Y-13188179D01*
X56794400Y-13208000D01*
X56794400Y-19456400D01*
X52552600Y-19456400D01*
X52552600Y-7975600D01*
X86766400Y-7975600D01*
X86766400Y-18440400D01*
G37*
%TD.AperFunction*%
%TD*%
D27*
%TO.N,VCC*%
X52095400Y-19456400D02*
X45567600Y-19456400D01*
X45567600Y-17526000D01*
X45565648Y-17506179D01*
X45559866Y-17487119D01*
X45550477Y-17469554D01*
X45537842Y-17454158D01*
X45522446Y-17441523D01*
X45504881Y-17432134D01*
X45485821Y-17426352D01*
X45466000Y-17424400D01*
X35433000Y-17424400D01*
X35413179Y-17426352D01*
X35394119Y-17432134D01*
X35376554Y-17441523D01*
X35361158Y-17454158D01*
X35348523Y-17469554D01*
X35339134Y-17487119D01*
X35333352Y-17506179D01*
X35331400Y-17526000D01*
X35331400Y-19456400D01*
X29057600Y-19456400D01*
X29057600Y-13817600D01*
X52095400Y-13817600D01*
X52095400Y-19456400D01*
%TA.AperFunction,Conductor*%
D28*
G36*
X52095400Y-19456400D02*
G01*
X45567600Y-19456400D01*
X45567600Y-17526000D01*
X45565648Y-17506179D01*
X45559866Y-17487119D01*
X45550477Y-17469554D01*
X45537842Y-17454158D01*
X45522446Y-17441523D01*
X45504881Y-17432134D01*
X45485821Y-17426352D01*
X45466000Y-17424400D01*
X35433000Y-17424400D01*
X35413179Y-17426352D01*
X35394119Y-17432134D01*
X35376554Y-17441523D01*
X35361158Y-17454158D01*
X35348523Y-17469554D01*
X35339134Y-17487119D01*
X35333352Y-17506179D01*
X35331400Y-17526000D01*
X35331400Y-19456400D01*
X29057600Y-19456400D01*
X29057600Y-13817600D01*
X52095400Y-13817600D01*
X52095400Y-19456400D01*
G37*
%TD.AperFunction*%
%TD*%
M02*
