%TF.GenerationSoftware,KiCad,Pcbnew,5.1.12-84ad8e8a86~92~ubuntu18.04.1*%
%TF.CreationDate,2023-04-20T21:37:03+02:00*%
%TF.ProjectId,transient-dc-protection,7472616e-7369-4656-9e74-2d64632d7072,rev?*%
%TF.SameCoordinates,Original*%
%TF.FileFunction,Copper,L2,Bot*%
%TF.FilePolarity,Positive*%
%FSLAX46Y46*%
G04 Gerber Fmt 4.6, Leading zero omitted, Abs format (unit mm)*
G04 Created by KiCad (PCBNEW 5.1.12-84ad8e8a86~92~ubuntu18.04.1) date 2023-04-20 21:37:03*
%MOMM*%
%LPD*%
G01*
G04 APERTURE LIST*
%TA.AperFunction,ComponentPad*%
%ADD10O,5.000000X6.000000*%
%TD*%
%TA.AperFunction,ComponentPad*%
%ADD11R,2.400000X2.400000*%
%TD*%
%TA.AperFunction,ComponentPad*%
%ADD12C,2.400000*%
%TD*%
%TA.AperFunction,ComponentPad*%
%ADD13R,1.800000X1.800000*%
%TD*%
%TA.AperFunction,ComponentPad*%
%ADD14C,1.800000*%
%TD*%
%TA.AperFunction,ComponentPad*%
%ADD15R,3.800000X2.800000*%
%TD*%
%TA.AperFunction,ComponentPad*%
%ADD16O,3.800000X2.800000*%
%TD*%
%TA.AperFunction,ComponentPad*%
%ADD17C,2.000000*%
%TD*%
%TA.AperFunction,ComponentPad*%
%ADD18O,2.400000X2.100000*%
%TD*%
%TA.AperFunction,ComponentPad*%
%ADD19C,1.900000*%
%TD*%
%TA.AperFunction,ComponentPad*%
%ADD20O,2.100000X2.400000*%
%TD*%
%TA.AperFunction,ViaPad*%
%ADD21C,0.812800*%
%TD*%
%TA.AperFunction,ViaPad*%
%ADD22C,1.016000*%
%TD*%
%TA.AperFunction,ViaPad*%
%ADD23C,0.609600*%
%TD*%
%TA.AperFunction,Conductor*%
%ADD24C,0.203200*%
%TD*%
%TA.AperFunction,Conductor*%
%ADD25C,0.100000*%
%TD*%
G04 APERTURE END LIST*
%TO.P,J2,1*%
%TO.N,GND*%
%TA.AperFunction,ComponentPad*%
G36*
G01*
X86264000Y-28400000D02*
X81884000Y-28400000D01*
G75*
G02*
X81574000Y-28090000I0J310000D01*
G01*
X81574000Y-22710000D01*
G75*
G02*
X81884000Y-22400000I310000J0D01*
G01*
X86264000Y-22400000D01*
G75*
G02*
X86574000Y-22710000I0J-310000D01*
G01*
X86574000Y-28090000D01*
G75*
G02*
X86264000Y-28400000I-310000J0D01*
G01*
G37*
%TD.AperFunction*%
D10*
%TO.P,J2,2*%
%TO.N,Net-(C2-Pad1)*%
X84074000Y-15240000D03*
%TD*%
D11*
%TO.P,C3,1*%
%TO.N,Net-(C2-Pad1)*%
X72898000Y-10922000D03*
D12*
%TO.P,C3,2*%
%TO.N,GND*%
X72898000Y-15922000D03*
%TD*%
D13*
%TO.P,D2,1*%
%TO.N,Net-(D2-Pad1)*%
X12446000Y-22606000D03*
D14*
%TO.P,D2,2*%
%TO.N,Net-(D2-Pad2)*%
X14986000Y-22606000D03*
%TD*%
D15*
%TO.P,J1,1*%
%TO.N,Net-(D1-Pad2)*%
X8382000Y-10922000D03*
D16*
%TO.P,J1,2*%
%TO.N,Net-(D1-Pad1)*%
X8382000Y-16002000D03*
%TD*%
D17*
%TO.P,RV1,1*%
%TO.N,Net-(C2-Pad1)*%
X64008000Y-9652000D03*
%TO.P,RV1,2*%
%TO.N,GND*%
X62608000Y-17152000D03*
%TD*%
D18*
%TO.P,SW1,*%
%TO.N,*%
X17862000Y-24180000D03*
D19*
%TO.P,SW1,2*%
%TO.N,Net-(D2-Pad1)*%
X19122000Y-26670000D03*
%TO.P,SW1,1*%
%TO.N,GND*%
X23622000Y-26670000D03*
D18*
%TO.P,SW1,*%
%TO.N,*%
X24872000Y-24180000D03*
%TD*%
D20*
%TO.P,SW2,*%
%TO.N,*%
X5538000Y-27920000D03*
D19*
%TO.P,SW2,1*%
%TO.N,Net-(R1-Pad2)*%
X3048000Y-26670000D03*
%TO.P,SW2,2*%
%TO.N,GND*%
X3048000Y-22170000D03*
D20*
%TO.P,SW2,*%
%TO.N,*%
X5538000Y-20910000D03*
%TD*%
D21*
%TO.N,GND*%
X33655000Y-20828000D03*
D22*
X29210000Y-8636000D03*
X30226000Y-9652000D03*
X31242000Y-8636000D03*
X32258000Y-9652000D03*
X33274000Y-8636000D03*
X33782000Y-10668000D03*
X34798000Y-11684000D03*
X33782000Y-12700000D03*
D21*
X40386000Y-22860000D03*
X40386000Y-24892000D03*
X57658000Y-23876000D03*
X57658000Y-22860000D03*
X49022000Y-25400000D03*
X40386000Y-23876000D03*
X57658000Y-24892000D03*
X40386000Y-21844000D03*
X48006000Y-25400000D03*
X50038000Y-25400000D03*
X32258000Y-25400000D03*
X31242000Y-25400000D03*
X33274000Y-25400000D03*
X57658000Y-21844000D03*
D22*
X28194000Y-9652000D03*
X34798000Y-9652000D03*
D21*
%TO.N,VCC*%
X33020000Y-14478000D03*
X34036000Y-14478000D03*
X35052000Y-14478000D03*
X48260000Y-14478000D03*
X51308000Y-14478000D03*
X50292000Y-14478000D03*
X49276000Y-14478000D03*
X47244000Y-14478000D03*
X46228000Y-14478000D03*
X45212000Y-14478000D03*
X44196000Y-14478000D03*
X43180000Y-14478000D03*
X42164000Y-14478000D03*
X41148000Y-14478000D03*
X40132000Y-14478000D03*
X39116000Y-14478000D03*
X38100000Y-14478000D03*
X37084000Y-14478000D03*
X36068000Y-14478000D03*
D23*
%TO.N,Net-(C2-Pad1)*%
X47752000Y-23114000D03*
X31242000Y-23114000D03*
D22*
X41656000Y-18415000D03*
X43688000Y-18415000D03*
X41656000Y-20447000D03*
X42672000Y-19431000D03*
X42672000Y-21463000D03*
X43688000Y-20447000D03*
X44704000Y-19431000D03*
X44704000Y-21463000D03*
D21*
X86106000Y-8636000D03*
X85090000Y-8636000D03*
X84074000Y-8636000D03*
X83058000Y-8636000D03*
X82042000Y-8636000D03*
X81026000Y-8636000D03*
X80010000Y-8636000D03*
X78994000Y-8636000D03*
X77978000Y-8636000D03*
X76962000Y-8636000D03*
X75946000Y-8636000D03*
X74930000Y-8636000D03*
X73914000Y-8636000D03*
X72898000Y-8636000D03*
X71882000Y-8636000D03*
X70866000Y-8636000D03*
X69850000Y-8636000D03*
X68834000Y-8636000D03*
X67818000Y-8636000D03*
X66802000Y-8636000D03*
X65786000Y-8636000D03*
X62230000Y-8636000D03*
X61214000Y-8636000D03*
X60198000Y-8636000D03*
X59182000Y-8636000D03*
X58166000Y-8636000D03*
X57150000Y-8636000D03*
X56134000Y-8636000D03*
X55118000Y-8636000D03*
X54102000Y-8636000D03*
X53086000Y-8636000D03*
X53086000Y-9652000D03*
X53086000Y-10668000D03*
X53086000Y-11684000D03*
X53086000Y-12700000D03*
X53086000Y-13716000D03*
X53086000Y-14732000D03*
X53086000Y-15748000D03*
X53086000Y-16764000D03*
%TO.N,Net-(D1-Pad1)*%
X24892000Y-18034000D03*
X23876000Y-18034000D03*
X22860000Y-18034000D03*
X21844000Y-18034000D03*
X20828000Y-18034000D03*
X19812000Y-18034000D03*
X18796000Y-18034000D03*
X17780000Y-18034000D03*
X16764000Y-18034000D03*
X15748000Y-18034000D03*
X14732000Y-18034000D03*
X13716000Y-18034000D03*
X12700000Y-18034000D03*
X11684000Y-18034000D03*
X10668000Y-18034000D03*
%TO.N,Net-(D1-Pad2)*%
X24892000Y-8890000D03*
X23876000Y-8890000D03*
X10668000Y-8890000D03*
X11684000Y-8890000D03*
X12700000Y-8890000D03*
X13716000Y-8890000D03*
X14732000Y-8890000D03*
X15748000Y-8890000D03*
X16764000Y-8890000D03*
X17780000Y-8890000D03*
X18796000Y-8890000D03*
X19812000Y-8890000D03*
X20828000Y-8890000D03*
X21844000Y-8890000D03*
X22860000Y-8890000D03*
%TD*%
D24*
%TO.N,Net-(C2-Pad1)*%
X41554400Y-19913600D02*
X41910000Y-19558000D01*
X32029400Y-19913600D02*
X41554400Y-19913600D01*
X31242000Y-23114000D02*
X31242000Y-20701000D01*
X31242000Y-20701000D02*
X32029400Y-19913600D01*
%TD*%
%TO.N,GND*%
X89619401Y-29619400D02*
X380600Y-29619400D01*
X380600Y-26541410D01*
X1742400Y-26541410D01*
X1742400Y-26798590D01*
X1792574Y-27050829D01*
X1890993Y-27288433D01*
X2033874Y-27502271D01*
X2215729Y-27684126D01*
X2429567Y-27827007D01*
X2667171Y-27925426D01*
X2919410Y-27975600D01*
X3176590Y-27975600D01*
X3428829Y-27925426D01*
X3666433Y-27827007D01*
X3855091Y-27700950D01*
X4132400Y-27700950D01*
X4132400Y-28139051D01*
X4152738Y-28345546D01*
X4233112Y-28610502D01*
X4363631Y-28854688D01*
X4539283Y-29068718D01*
X4753313Y-29244369D01*
X4997499Y-29374888D01*
X5262455Y-29455262D01*
X5538000Y-29482401D01*
X5813546Y-29455262D01*
X6078502Y-29374888D01*
X6322688Y-29244369D01*
X6536718Y-29068718D01*
X6712369Y-28854688D01*
X6842888Y-28610501D01*
X6906743Y-28400000D01*
X80961450Y-28400000D01*
X80973220Y-28519503D01*
X81008078Y-28634413D01*
X81064683Y-28740315D01*
X81140862Y-28833138D01*
X81233685Y-28909317D01*
X81339587Y-28965922D01*
X81454497Y-29000780D01*
X81574000Y-29012550D01*
X83261200Y-29009600D01*
X83413600Y-28857200D01*
X83413600Y-26060400D01*
X84734400Y-26060400D01*
X84734400Y-28857200D01*
X84886800Y-29009600D01*
X86574000Y-29012550D01*
X86693503Y-29000780D01*
X86808413Y-28965922D01*
X86914315Y-28909317D01*
X87007138Y-28833138D01*
X87083317Y-28740315D01*
X87139922Y-28634413D01*
X87174780Y-28519503D01*
X87186550Y-28400000D01*
X87183600Y-26212800D01*
X87031200Y-26060400D01*
X84734400Y-26060400D01*
X83413600Y-26060400D01*
X81116800Y-26060400D01*
X80964400Y-26212800D01*
X80961450Y-28400000D01*
X6906743Y-28400000D01*
X6923262Y-28345545D01*
X6943600Y-28139050D01*
X6943600Y-27700949D01*
X6923262Y-27494454D01*
X6842888Y-27229498D01*
X6712369Y-26985312D01*
X6536717Y-26771282D01*
X6322687Y-26595631D01*
X6221246Y-26541410D01*
X17816400Y-26541410D01*
X17816400Y-26798590D01*
X17866574Y-27050829D01*
X17964993Y-27288433D01*
X18107874Y-27502271D01*
X18289729Y-27684126D01*
X18503567Y-27827007D01*
X18741171Y-27925426D01*
X18993410Y-27975600D01*
X19250590Y-27975600D01*
X19502829Y-27925426D01*
X19740433Y-27827007D01*
X19822279Y-27772319D01*
X22735207Y-27772319D01*
X22828514Y-28021417D01*
X23107409Y-28150251D01*
X23406079Y-28222200D01*
X23713047Y-28234499D01*
X24016517Y-28186675D01*
X24304825Y-28080566D01*
X24415486Y-28021417D01*
X24508793Y-27772319D01*
X23622000Y-26885526D01*
X22735207Y-27772319D01*
X19822279Y-27772319D01*
X19954271Y-27684126D01*
X20136126Y-27502271D01*
X20279007Y-27288433D01*
X20377426Y-27050829D01*
X20427600Y-26798590D01*
X20427600Y-26761047D01*
X22057501Y-26761047D01*
X22105325Y-27064517D01*
X22211434Y-27352825D01*
X22270583Y-27463486D01*
X22519681Y-27556793D01*
X23406474Y-26670000D01*
X22519681Y-25783207D01*
X22270583Y-25876514D01*
X22141749Y-26155409D01*
X22069800Y-26454079D01*
X22057501Y-26761047D01*
X20427600Y-26761047D01*
X20427600Y-26541410D01*
X20377426Y-26289171D01*
X20279007Y-26051567D01*
X20136126Y-25837729D01*
X19954271Y-25655874D01*
X19822280Y-25567681D01*
X22735207Y-25567681D01*
X23622000Y-26454474D01*
X23636143Y-26440332D01*
X23851669Y-26655858D01*
X23837526Y-26670000D01*
X24724319Y-27556793D01*
X24973417Y-27463486D01*
X25102251Y-27184591D01*
X25174200Y-26885921D01*
X25186499Y-26578953D01*
X25138675Y-26275483D01*
X25032566Y-25987175D01*
X24973417Y-25876514D01*
X24724321Y-25783208D01*
X24837557Y-25669972D01*
X24753185Y-25585600D01*
X25091051Y-25585600D01*
X25297546Y-25565262D01*
X25562502Y-25484888D01*
X25806688Y-25354369D01*
X26020718Y-25178718D01*
X26196369Y-24964688D01*
X26326888Y-24720502D01*
X26407262Y-24455546D01*
X26434401Y-24180000D01*
X26407262Y-23904454D01*
X26326888Y-23639498D01*
X26196369Y-23395312D01*
X26020718Y-23181282D01*
X25806688Y-23005631D01*
X25562502Y-22875112D01*
X25297546Y-22794738D01*
X25091051Y-22774400D01*
X24652949Y-22774400D01*
X24446454Y-22794738D01*
X24181498Y-22875112D01*
X23937312Y-23005631D01*
X23723282Y-23181282D01*
X23547631Y-23395312D01*
X23417112Y-23639498D01*
X23336738Y-23904454D01*
X23309599Y-24180000D01*
X23336738Y-24455546D01*
X23417112Y-24720502D01*
X23547631Y-24964688D01*
X23667690Y-25110980D01*
X23530953Y-25105501D01*
X23227483Y-25153325D01*
X22939175Y-25259434D01*
X22828514Y-25318583D01*
X22735207Y-25567681D01*
X19822280Y-25567681D01*
X19740433Y-25512993D01*
X19502829Y-25414574D01*
X19250590Y-25364400D01*
X18993410Y-25364400D01*
X18741171Y-25414574D01*
X18503567Y-25512993D01*
X18289729Y-25655874D01*
X18107874Y-25837729D01*
X17964993Y-26051567D01*
X17866574Y-26289171D01*
X17816400Y-26541410D01*
X6221246Y-26541410D01*
X6078501Y-26465112D01*
X5813545Y-26384738D01*
X5538000Y-26357599D01*
X5262454Y-26384738D01*
X4997498Y-26465112D01*
X4753312Y-26595631D01*
X4539282Y-26771283D01*
X4363631Y-26985313D01*
X4233112Y-27229499D01*
X4152738Y-27494455D01*
X4132400Y-27700950D01*
X3855091Y-27700950D01*
X3880271Y-27684126D01*
X4062126Y-27502271D01*
X4205007Y-27288433D01*
X4303426Y-27050829D01*
X4353600Y-26798590D01*
X4353600Y-26541410D01*
X4303426Y-26289171D01*
X4205007Y-26051567D01*
X4062126Y-25837729D01*
X3880271Y-25655874D01*
X3666433Y-25512993D01*
X3428829Y-25414574D01*
X3176590Y-25364400D01*
X2919410Y-25364400D01*
X2667171Y-25414574D01*
X2429567Y-25512993D01*
X2215729Y-25655874D01*
X2033874Y-25837729D01*
X1890993Y-26051567D01*
X1792574Y-26289171D01*
X1742400Y-26541410D01*
X380600Y-26541410D01*
X380600Y-24180000D01*
X16299599Y-24180000D01*
X16326738Y-24455546D01*
X16407112Y-24720502D01*
X16537631Y-24964688D01*
X16713282Y-25178718D01*
X16927312Y-25354369D01*
X17171498Y-25484888D01*
X17436454Y-25565262D01*
X17642949Y-25585600D01*
X18081051Y-25585600D01*
X18287546Y-25565262D01*
X18552502Y-25484888D01*
X18796688Y-25354369D01*
X19010718Y-25178718D01*
X19186369Y-24964688D01*
X19316888Y-24720502D01*
X19397262Y-24455546D01*
X19424401Y-24180000D01*
X19397262Y-23904454D01*
X19316888Y-23639498D01*
X19186369Y-23395312D01*
X19010718Y-23181282D01*
X18796688Y-23005631D01*
X18552502Y-22875112D01*
X18287546Y-22794738D01*
X18081051Y-22774400D01*
X17642949Y-22774400D01*
X17436454Y-22794738D01*
X17171498Y-22875112D01*
X16927312Y-23005631D01*
X16713282Y-23181282D01*
X16537631Y-23395312D01*
X16407112Y-23639498D01*
X16326738Y-23904454D01*
X16299599Y-24180000D01*
X380600Y-24180000D01*
X380600Y-23272319D01*
X2161207Y-23272319D01*
X2254514Y-23521417D01*
X2533409Y-23650251D01*
X2832079Y-23722200D01*
X3139047Y-23734499D01*
X3442517Y-23686675D01*
X3730825Y-23580566D01*
X3841486Y-23521417D01*
X3934793Y-23272319D01*
X3048000Y-22385526D01*
X2161207Y-23272319D01*
X380600Y-23272319D01*
X380600Y-22261047D01*
X1483501Y-22261047D01*
X1531325Y-22564517D01*
X1637434Y-22852825D01*
X1696583Y-22963486D01*
X1945681Y-23056793D01*
X2832474Y-22170000D01*
X1945681Y-21283207D01*
X1696583Y-21376514D01*
X1567749Y-21655409D01*
X1495800Y-21954079D01*
X1483501Y-22261047D01*
X380600Y-22261047D01*
X380600Y-21067681D01*
X2161207Y-21067681D01*
X3048000Y-21954474D01*
X3062143Y-21940332D01*
X3277669Y-22155858D01*
X3263526Y-22170000D01*
X4150319Y-23056793D01*
X4399417Y-22963486D01*
X4528251Y-22684591D01*
X4600200Y-22385921D01*
X4610953Y-22117537D01*
X4753313Y-22234369D01*
X4997499Y-22364888D01*
X5262455Y-22445262D01*
X5538000Y-22472401D01*
X5813546Y-22445262D01*
X6078502Y-22364888D01*
X6322688Y-22234369D01*
X6536718Y-22058718D01*
X6712369Y-21844688D01*
X6786498Y-21706000D01*
X11188680Y-21706000D01*
X11188680Y-23506000D01*
X11195546Y-23575710D01*
X11215879Y-23642740D01*
X11248899Y-23704516D01*
X11293337Y-23758663D01*
X11347484Y-23803101D01*
X11409260Y-23836121D01*
X11476290Y-23856454D01*
X11546000Y-23863320D01*
X13346000Y-23863320D01*
X13415710Y-23856454D01*
X13482740Y-23836121D01*
X13544516Y-23803101D01*
X13598663Y-23758663D01*
X13643101Y-23704516D01*
X13676121Y-23642740D01*
X13696454Y-23575710D01*
X13703320Y-23506000D01*
X13703320Y-22482334D01*
X13730400Y-22482334D01*
X13730400Y-22729666D01*
X13778652Y-22972245D01*
X13873302Y-23200749D01*
X14010712Y-23406398D01*
X14185602Y-23581288D01*
X14391251Y-23718698D01*
X14619755Y-23813348D01*
X14862334Y-23861600D01*
X15109666Y-23861600D01*
X15352245Y-23813348D01*
X15580749Y-23718698D01*
X15786398Y-23581288D01*
X15961288Y-23406398D01*
X16098698Y-23200749D01*
X16193348Y-22972245D01*
X16241600Y-22729666D01*
X16241600Y-22482334D01*
X16193348Y-22239755D01*
X16098698Y-22011251D01*
X15961288Y-21805602D01*
X15786398Y-21630712D01*
X15580749Y-21493302D01*
X15352245Y-21398652D01*
X15109666Y-21350400D01*
X14862334Y-21350400D01*
X14619755Y-21398652D01*
X14391251Y-21493302D01*
X14185602Y-21630712D01*
X14010712Y-21805602D01*
X13873302Y-22011251D01*
X13778652Y-22239755D01*
X13730400Y-22482334D01*
X13703320Y-22482334D01*
X13703320Y-21706000D01*
X13696454Y-21636290D01*
X13676121Y-21569260D01*
X13643101Y-21507484D01*
X13598663Y-21453337D01*
X13544516Y-21408899D01*
X13482740Y-21375879D01*
X13415710Y-21355546D01*
X13346000Y-21348680D01*
X11546000Y-21348680D01*
X11476290Y-21355546D01*
X11409260Y-21375879D01*
X11347484Y-21408899D01*
X11293337Y-21453337D01*
X11248899Y-21507484D01*
X11215879Y-21569260D01*
X11195546Y-21636290D01*
X11188680Y-21706000D01*
X6786498Y-21706000D01*
X6842888Y-21600501D01*
X6923262Y-21335545D01*
X6943600Y-21129050D01*
X6943600Y-20690949D01*
X6923262Y-20484454D01*
X6842888Y-20219498D01*
X6712369Y-19975312D01*
X6536717Y-19761282D01*
X6322687Y-19585631D01*
X6078501Y-19455112D01*
X5813545Y-19374738D01*
X5538000Y-19347599D01*
X5262454Y-19374738D01*
X4997498Y-19455112D01*
X4753312Y-19585631D01*
X4539282Y-19761283D01*
X4363631Y-19975313D01*
X4233112Y-20219499D01*
X4152738Y-20484455D01*
X4132400Y-20690950D01*
X4132400Y-21038815D01*
X4048028Y-20954443D01*
X3934792Y-21067679D01*
X3841486Y-20818583D01*
X3562591Y-20689749D01*
X3263921Y-20617800D01*
X2956953Y-20605501D01*
X2653483Y-20653325D01*
X2365175Y-20759434D01*
X2254514Y-20818583D01*
X2161207Y-21067681D01*
X380600Y-21067681D01*
X380600Y-13716000D01*
X5465401Y-13716000D01*
X5465401Y-18796000D01*
X5472234Y-18865374D01*
X5492469Y-18932082D01*
X5525330Y-18993561D01*
X5569554Y-19047447D01*
X5623440Y-19091671D01*
X5684919Y-19124532D01*
X5751627Y-19144767D01*
X5821001Y-19151600D01*
X25908000Y-19151600D01*
X25977374Y-19144767D01*
X26044082Y-19124532D01*
X26105561Y-19091671D01*
X26159447Y-19047447D01*
X26203671Y-18993561D01*
X26236532Y-18932082D01*
X26256767Y-18865374D01*
X26263600Y-18796000D01*
X26263600Y-13716000D01*
X30124400Y-13716000D01*
X30124400Y-19558000D01*
X30131233Y-19627374D01*
X30151468Y-19694082D01*
X30184329Y-19755561D01*
X30228553Y-19809447D01*
X30282439Y-19853671D01*
X30343918Y-19886532D01*
X30410626Y-19906767D01*
X30480000Y-19913600D01*
X31382822Y-19913600D01*
X30934592Y-20361831D01*
X30917148Y-20376147D01*
X30902831Y-20393592D01*
X30902830Y-20393593D01*
X30860013Y-20445765D01*
X30817560Y-20525191D01*
X30793198Y-20605501D01*
X30791416Y-20611374D01*
X30782589Y-20701000D01*
X30784801Y-20723460D01*
X30784800Y-22637254D01*
X30729034Y-22693020D01*
X30656761Y-22801183D01*
X30606979Y-22921369D01*
X30581600Y-23048956D01*
X30581600Y-23179044D01*
X30606979Y-23306631D01*
X30656761Y-23426817D01*
X30729034Y-23534980D01*
X30821020Y-23626966D01*
X30929183Y-23699239D01*
X31049369Y-23749021D01*
X31176956Y-23774400D01*
X31307044Y-23774400D01*
X31434631Y-23749021D01*
X31554817Y-23699239D01*
X31662980Y-23626966D01*
X31754966Y-23534980D01*
X31827239Y-23426817D01*
X31877021Y-23306631D01*
X31902400Y-23179044D01*
X31902400Y-23048956D01*
X31877021Y-22921369D01*
X31827239Y-22801183D01*
X31754966Y-22693020D01*
X31699200Y-22637254D01*
X31699200Y-20890377D01*
X32218779Y-20370800D01*
X40792400Y-20370800D01*
X40792400Y-24638000D01*
X40799233Y-24707374D01*
X40819468Y-24774082D01*
X40852329Y-24835561D01*
X40896553Y-24889447D01*
X40950439Y-24933671D01*
X41011918Y-24966532D01*
X41078626Y-24986767D01*
X41148000Y-24993600D01*
X56896000Y-24993600D01*
X56965374Y-24986767D01*
X57032082Y-24966532D01*
X57093561Y-24933671D01*
X57147447Y-24889447D01*
X57191671Y-24835561D01*
X57224532Y-24774082D01*
X57244767Y-24707374D01*
X57251600Y-24638000D01*
X57251600Y-22400000D01*
X80961450Y-22400000D01*
X80964400Y-24587200D01*
X81116800Y-24739600D01*
X83413600Y-24739600D01*
X83413600Y-21942800D01*
X84734400Y-21942800D01*
X84734400Y-24739600D01*
X87031200Y-24739600D01*
X87183600Y-24587200D01*
X87186550Y-22400000D01*
X87174780Y-22280497D01*
X87139922Y-22165587D01*
X87083317Y-22059685D01*
X87007138Y-21966862D01*
X86914315Y-21890683D01*
X86808413Y-21834078D01*
X86693503Y-21799220D01*
X86574000Y-21787450D01*
X84886800Y-21790400D01*
X84734400Y-21942800D01*
X83413600Y-21942800D01*
X83261200Y-21790400D01*
X81574000Y-21787450D01*
X81454497Y-21799220D01*
X81339587Y-21834078D01*
X81233685Y-21890683D01*
X81140862Y-21966862D01*
X81064683Y-22059685D01*
X81008078Y-22165587D01*
X80973220Y-22280497D01*
X80961450Y-22400000D01*
X57251600Y-22400000D01*
X57251600Y-18434614D01*
X61900122Y-18434614D01*
X62016608Y-18657390D01*
X62321658Y-18743839D01*
X62637713Y-18769115D01*
X62952625Y-18732246D01*
X63199392Y-18657390D01*
X63315878Y-18434614D01*
X62608000Y-17726736D01*
X61900122Y-18434614D01*
X57251600Y-18434614D01*
X57251600Y-17181713D01*
X60990885Y-17181713D01*
X61027754Y-17496625D01*
X61102610Y-17743392D01*
X61325386Y-17859878D01*
X62033264Y-17152000D01*
X63182736Y-17152000D01*
X63890614Y-17859878D01*
X64113390Y-17743392D01*
X64199839Y-17438342D01*
X64206761Y-17351788D01*
X72042948Y-17351788D01*
X72185019Y-17594745D01*
X72525055Y-17701699D01*
X72879423Y-17740260D01*
X73234505Y-17708947D01*
X73576655Y-17608962D01*
X73610981Y-17594745D01*
X73753052Y-17351788D01*
X72898000Y-16496736D01*
X72042948Y-17351788D01*
X64206761Y-17351788D01*
X64225115Y-17122287D01*
X64188246Y-16807375D01*
X64113390Y-16560608D01*
X63890614Y-16444122D01*
X63182736Y-17152000D01*
X62033264Y-17152000D01*
X61325386Y-16444122D01*
X61102610Y-16560608D01*
X61016161Y-16865658D01*
X60990885Y-17181713D01*
X57251600Y-17181713D01*
X57251600Y-15869386D01*
X61900122Y-15869386D01*
X62608000Y-16577264D01*
X63281841Y-15903423D01*
X71079740Y-15903423D01*
X71111053Y-16258505D01*
X71211038Y-16600655D01*
X71225255Y-16634981D01*
X71468212Y-16777052D01*
X72323264Y-15922000D01*
X73472736Y-15922000D01*
X74327788Y-16777052D01*
X74570745Y-16634981D01*
X74677699Y-16294945D01*
X74716260Y-15940577D01*
X74684947Y-15585495D01*
X74584962Y-15243345D01*
X74570745Y-15209019D01*
X74327788Y-15066948D01*
X73472736Y-15922000D01*
X72323264Y-15922000D01*
X71468212Y-15066948D01*
X71225255Y-15209019D01*
X71118301Y-15549055D01*
X71079740Y-15903423D01*
X63281841Y-15903423D01*
X63315878Y-15869386D01*
X63199392Y-15646610D01*
X62894342Y-15560161D01*
X62578287Y-15534885D01*
X62263375Y-15571754D01*
X62016608Y-15646610D01*
X61900122Y-15869386D01*
X57251600Y-15869386D01*
X57251600Y-14492212D01*
X72042948Y-14492212D01*
X72898000Y-15347264D01*
X73753052Y-14492212D01*
X73610981Y-14249255D01*
X73270945Y-14142301D01*
X72916577Y-14103740D01*
X72561495Y-14135053D01*
X72219345Y-14235038D01*
X72185019Y-14249255D01*
X72042948Y-14492212D01*
X57251600Y-14492212D01*
X57251600Y-13563600D01*
X80924400Y-13563600D01*
X80924400Y-18542000D01*
X80931233Y-18611374D01*
X80951468Y-18678082D01*
X80984329Y-18739561D01*
X81028553Y-18793447D01*
X81082439Y-18837671D01*
X81143918Y-18870532D01*
X81210626Y-18890767D01*
X81280000Y-18897600D01*
X86868000Y-18897600D01*
X86937374Y-18890767D01*
X87004082Y-18870532D01*
X87065561Y-18837671D01*
X87119447Y-18793447D01*
X87163671Y-18739561D01*
X87196532Y-18678082D01*
X87216767Y-18611374D01*
X87223600Y-18542000D01*
X87223600Y-7874000D01*
X87216767Y-7804626D01*
X87196532Y-7737918D01*
X87163671Y-7676439D01*
X87119447Y-7622553D01*
X87065561Y-7578329D01*
X87004082Y-7545468D01*
X86937374Y-7525233D01*
X86868000Y-7518400D01*
X52451000Y-7518400D01*
X52381626Y-7525233D01*
X52314918Y-7545468D01*
X52253439Y-7578329D01*
X52199553Y-7622553D01*
X52155329Y-7676439D01*
X52122468Y-7737918D01*
X52102233Y-7804626D01*
X52095400Y-7874000D01*
X52095400Y-13360400D01*
X30480000Y-13360400D01*
X30410626Y-13367233D01*
X30343918Y-13387468D01*
X30282439Y-13420329D01*
X30228553Y-13464553D01*
X30184329Y-13518439D01*
X30151468Y-13579918D01*
X30131233Y-13646626D01*
X30124400Y-13716000D01*
X26263600Y-13716000D01*
X26256767Y-13646626D01*
X26236532Y-13579918D01*
X26203671Y-13518439D01*
X26159447Y-13464553D01*
X26156336Y-13462000D01*
X26159447Y-13459447D01*
X26203671Y-13405561D01*
X26236532Y-13344082D01*
X26256767Y-13277374D01*
X26263600Y-13208000D01*
X26263600Y-8128000D01*
X26256767Y-8058626D01*
X26236532Y-7991918D01*
X26203671Y-7930439D01*
X26159447Y-7876553D01*
X26105561Y-7832329D01*
X26044082Y-7799468D01*
X25977374Y-7779233D01*
X25908000Y-7772400D01*
X5842000Y-7772400D01*
X5772626Y-7779233D01*
X5705918Y-7799468D01*
X5644439Y-7832329D01*
X5590553Y-7876553D01*
X5546329Y-7930439D01*
X5513468Y-7991918D01*
X5493233Y-8058626D01*
X5486400Y-8128000D01*
X5486400Y-13208000D01*
X5493233Y-13277374D01*
X5513468Y-13344082D01*
X5546329Y-13405561D01*
X5584606Y-13452200D01*
X5569554Y-13464553D01*
X5525330Y-13518439D01*
X5492469Y-13579918D01*
X5472234Y-13646626D01*
X5465401Y-13716000D01*
X380600Y-13716000D01*
X380600Y-3674821D01*
X698400Y-3674821D01*
X698400Y-4325179D01*
X825279Y-4963041D01*
X1074160Y-5563894D01*
X1435480Y-6104647D01*
X1895353Y-6564520D01*
X2436106Y-6925840D01*
X3036959Y-7174721D01*
X3674821Y-7301600D01*
X4325179Y-7301600D01*
X4963041Y-7174721D01*
X5563894Y-6925840D01*
X6104647Y-6564520D01*
X6564520Y-6104647D01*
X6925840Y-5563894D01*
X7174721Y-4963041D01*
X7301600Y-4325179D01*
X7301600Y-3674821D01*
X82698400Y-3674821D01*
X82698400Y-4325179D01*
X82825279Y-4963041D01*
X83074160Y-5563894D01*
X83435480Y-6104647D01*
X83895353Y-6564520D01*
X84436106Y-6925840D01*
X85036959Y-7174721D01*
X85674821Y-7301600D01*
X86325179Y-7301600D01*
X86963041Y-7174721D01*
X87563894Y-6925840D01*
X88104647Y-6564520D01*
X88564520Y-6104647D01*
X88925840Y-5563894D01*
X89174721Y-4963041D01*
X89301600Y-4325179D01*
X89301600Y-3674821D01*
X89174721Y-3036959D01*
X88925840Y-2436106D01*
X88564520Y-1895353D01*
X88104647Y-1435480D01*
X87563894Y-1074160D01*
X86963041Y-825279D01*
X86325179Y-698400D01*
X85674821Y-698400D01*
X85036959Y-825279D01*
X84436106Y-1074160D01*
X83895353Y-1435480D01*
X83435480Y-1895353D01*
X83074160Y-2436106D01*
X82825279Y-3036959D01*
X82698400Y-3674821D01*
X7301600Y-3674821D01*
X7174721Y-3036959D01*
X6925840Y-2436106D01*
X6564520Y-1895353D01*
X6104647Y-1435480D01*
X5563894Y-1074160D01*
X4963041Y-825279D01*
X4325179Y-698400D01*
X3674821Y-698400D01*
X3036959Y-825279D01*
X2436106Y-1074160D01*
X1895353Y-1435480D01*
X1435480Y-1895353D01*
X1074160Y-2436106D01*
X825279Y-3036959D01*
X698400Y-3674821D01*
X380600Y-3674821D01*
X380600Y-380600D01*
X89619400Y-380600D01*
X89619401Y-29619400D01*
%TA.AperFunction,Conductor*%
D25*
G36*
X89619401Y-29619400D02*
G01*
X380600Y-29619400D01*
X380600Y-26541410D01*
X1742400Y-26541410D01*
X1742400Y-26798590D01*
X1792574Y-27050829D01*
X1890993Y-27288433D01*
X2033874Y-27502271D01*
X2215729Y-27684126D01*
X2429567Y-27827007D01*
X2667171Y-27925426D01*
X2919410Y-27975600D01*
X3176590Y-27975600D01*
X3428829Y-27925426D01*
X3666433Y-27827007D01*
X3855091Y-27700950D01*
X4132400Y-27700950D01*
X4132400Y-28139051D01*
X4152738Y-28345546D01*
X4233112Y-28610502D01*
X4363631Y-28854688D01*
X4539283Y-29068718D01*
X4753313Y-29244369D01*
X4997499Y-29374888D01*
X5262455Y-29455262D01*
X5538000Y-29482401D01*
X5813546Y-29455262D01*
X6078502Y-29374888D01*
X6322688Y-29244369D01*
X6536718Y-29068718D01*
X6712369Y-28854688D01*
X6842888Y-28610501D01*
X6906743Y-28400000D01*
X80961450Y-28400000D01*
X80973220Y-28519503D01*
X81008078Y-28634413D01*
X81064683Y-28740315D01*
X81140862Y-28833138D01*
X81233685Y-28909317D01*
X81339587Y-28965922D01*
X81454497Y-29000780D01*
X81574000Y-29012550D01*
X83261200Y-29009600D01*
X83413600Y-28857200D01*
X83413600Y-26060400D01*
X84734400Y-26060400D01*
X84734400Y-28857200D01*
X84886800Y-29009600D01*
X86574000Y-29012550D01*
X86693503Y-29000780D01*
X86808413Y-28965922D01*
X86914315Y-28909317D01*
X87007138Y-28833138D01*
X87083317Y-28740315D01*
X87139922Y-28634413D01*
X87174780Y-28519503D01*
X87186550Y-28400000D01*
X87183600Y-26212800D01*
X87031200Y-26060400D01*
X84734400Y-26060400D01*
X83413600Y-26060400D01*
X81116800Y-26060400D01*
X80964400Y-26212800D01*
X80961450Y-28400000D01*
X6906743Y-28400000D01*
X6923262Y-28345545D01*
X6943600Y-28139050D01*
X6943600Y-27700949D01*
X6923262Y-27494454D01*
X6842888Y-27229498D01*
X6712369Y-26985312D01*
X6536717Y-26771282D01*
X6322687Y-26595631D01*
X6221246Y-26541410D01*
X17816400Y-26541410D01*
X17816400Y-26798590D01*
X17866574Y-27050829D01*
X17964993Y-27288433D01*
X18107874Y-27502271D01*
X18289729Y-27684126D01*
X18503567Y-27827007D01*
X18741171Y-27925426D01*
X18993410Y-27975600D01*
X19250590Y-27975600D01*
X19502829Y-27925426D01*
X19740433Y-27827007D01*
X19822279Y-27772319D01*
X22735207Y-27772319D01*
X22828514Y-28021417D01*
X23107409Y-28150251D01*
X23406079Y-28222200D01*
X23713047Y-28234499D01*
X24016517Y-28186675D01*
X24304825Y-28080566D01*
X24415486Y-28021417D01*
X24508793Y-27772319D01*
X23622000Y-26885526D01*
X22735207Y-27772319D01*
X19822279Y-27772319D01*
X19954271Y-27684126D01*
X20136126Y-27502271D01*
X20279007Y-27288433D01*
X20377426Y-27050829D01*
X20427600Y-26798590D01*
X20427600Y-26761047D01*
X22057501Y-26761047D01*
X22105325Y-27064517D01*
X22211434Y-27352825D01*
X22270583Y-27463486D01*
X22519681Y-27556793D01*
X23406474Y-26670000D01*
X22519681Y-25783207D01*
X22270583Y-25876514D01*
X22141749Y-26155409D01*
X22069800Y-26454079D01*
X22057501Y-26761047D01*
X20427600Y-26761047D01*
X20427600Y-26541410D01*
X20377426Y-26289171D01*
X20279007Y-26051567D01*
X20136126Y-25837729D01*
X19954271Y-25655874D01*
X19822280Y-25567681D01*
X22735207Y-25567681D01*
X23622000Y-26454474D01*
X23636143Y-26440332D01*
X23851669Y-26655858D01*
X23837526Y-26670000D01*
X24724319Y-27556793D01*
X24973417Y-27463486D01*
X25102251Y-27184591D01*
X25174200Y-26885921D01*
X25186499Y-26578953D01*
X25138675Y-26275483D01*
X25032566Y-25987175D01*
X24973417Y-25876514D01*
X24724321Y-25783208D01*
X24837557Y-25669972D01*
X24753185Y-25585600D01*
X25091051Y-25585600D01*
X25297546Y-25565262D01*
X25562502Y-25484888D01*
X25806688Y-25354369D01*
X26020718Y-25178718D01*
X26196369Y-24964688D01*
X26326888Y-24720502D01*
X26407262Y-24455546D01*
X26434401Y-24180000D01*
X26407262Y-23904454D01*
X26326888Y-23639498D01*
X26196369Y-23395312D01*
X26020718Y-23181282D01*
X25806688Y-23005631D01*
X25562502Y-22875112D01*
X25297546Y-22794738D01*
X25091051Y-22774400D01*
X24652949Y-22774400D01*
X24446454Y-22794738D01*
X24181498Y-22875112D01*
X23937312Y-23005631D01*
X23723282Y-23181282D01*
X23547631Y-23395312D01*
X23417112Y-23639498D01*
X23336738Y-23904454D01*
X23309599Y-24180000D01*
X23336738Y-24455546D01*
X23417112Y-24720502D01*
X23547631Y-24964688D01*
X23667690Y-25110980D01*
X23530953Y-25105501D01*
X23227483Y-25153325D01*
X22939175Y-25259434D01*
X22828514Y-25318583D01*
X22735207Y-25567681D01*
X19822280Y-25567681D01*
X19740433Y-25512993D01*
X19502829Y-25414574D01*
X19250590Y-25364400D01*
X18993410Y-25364400D01*
X18741171Y-25414574D01*
X18503567Y-25512993D01*
X18289729Y-25655874D01*
X18107874Y-25837729D01*
X17964993Y-26051567D01*
X17866574Y-26289171D01*
X17816400Y-26541410D01*
X6221246Y-26541410D01*
X6078501Y-26465112D01*
X5813545Y-26384738D01*
X5538000Y-26357599D01*
X5262454Y-26384738D01*
X4997498Y-26465112D01*
X4753312Y-26595631D01*
X4539282Y-26771283D01*
X4363631Y-26985313D01*
X4233112Y-27229499D01*
X4152738Y-27494455D01*
X4132400Y-27700950D01*
X3855091Y-27700950D01*
X3880271Y-27684126D01*
X4062126Y-27502271D01*
X4205007Y-27288433D01*
X4303426Y-27050829D01*
X4353600Y-26798590D01*
X4353600Y-26541410D01*
X4303426Y-26289171D01*
X4205007Y-26051567D01*
X4062126Y-25837729D01*
X3880271Y-25655874D01*
X3666433Y-25512993D01*
X3428829Y-25414574D01*
X3176590Y-25364400D01*
X2919410Y-25364400D01*
X2667171Y-25414574D01*
X2429567Y-25512993D01*
X2215729Y-25655874D01*
X2033874Y-25837729D01*
X1890993Y-26051567D01*
X1792574Y-26289171D01*
X1742400Y-26541410D01*
X380600Y-26541410D01*
X380600Y-24180000D01*
X16299599Y-24180000D01*
X16326738Y-24455546D01*
X16407112Y-24720502D01*
X16537631Y-24964688D01*
X16713282Y-25178718D01*
X16927312Y-25354369D01*
X17171498Y-25484888D01*
X17436454Y-25565262D01*
X17642949Y-25585600D01*
X18081051Y-25585600D01*
X18287546Y-25565262D01*
X18552502Y-25484888D01*
X18796688Y-25354369D01*
X19010718Y-25178718D01*
X19186369Y-24964688D01*
X19316888Y-24720502D01*
X19397262Y-24455546D01*
X19424401Y-24180000D01*
X19397262Y-23904454D01*
X19316888Y-23639498D01*
X19186369Y-23395312D01*
X19010718Y-23181282D01*
X18796688Y-23005631D01*
X18552502Y-22875112D01*
X18287546Y-22794738D01*
X18081051Y-22774400D01*
X17642949Y-22774400D01*
X17436454Y-22794738D01*
X17171498Y-22875112D01*
X16927312Y-23005631D01*
X16713282Y-23181282D01*
X16537631Y-23395312D01*
X16407112Y-23639498D01*
X16326738Y-23904454D01*
X16299599Y-24180000D01*
X380600Y-24180000D01*
X380600Y-23272319D01*
X2161207Y-23272319D01*
X2254514Y-23521417D01*
X2533409Y-23650251D01*
X2832079Y-23722200D01*
X3139047Y-23734499D01*
X3442517Y-23686675D01*
X3730825Y-23580566D01*
X3841486Y-23521417D01*
X3934793Y-23272319D01*
X3048000Y-22385526D01*
X2161207Y-23272319D01*
X380600Y-23272319D01*
X380600Y-22261047D01*
X1483501Y-22261047D01*
X1531325Y-22564517D01*
X1637434Y-22852825D01*
X1696583Y-22963486D01*
X1945681Y-23056793D01*
X2832474Y-22170000D01*
X1945681Y-21283207D01*
X1696583Y-21376514D01*
X1567749Y-21655409D01*
X1495800Y-21954079D01*
X1483501Y-22261047D01*
X380600Y-22261047D01*
X380600Y-21067681D01*
X2161207Y-21067681D01*
X3048000Y-21954474D01*
X3062143Y-21940332D01*
X3277669Y-22155858D01*
X3263526Y-22170000D01*
X4150319Y-23056793D01*
X4399417Y-22963486D01*
X4528251Y-22684591D01*
X4600200Y-22385921D01*
X4610953Y-22117537D01*
X4753313Y-22234369D01*
X4997499Y-22364888D01*
X5262455Y-22445262D01*
X5538000Y-22472401D01*
X5813546Y-22445262D01*
X6078502Y-22364888D01*
X6322688Y-22234369D01*
X6536718Y-22058718D01*
X6712369Y-21844688D01*
X6786498Y-21706000D01*
X11188680Y-21706000D01*
X11188680Y-23506000D01*
X11195546Y-23575710D01*
X11215879Y-23642740D01*
X11248899Y-23704516D01*
X11293337Y-23758663D01*
X11347484Y-23803101D01*
X11409260Y-23836121D01*
X11476290Y-23856454D01*
X11546000Y-23863320D01*
X13346000Y-23863320D01*
X13415710Y-23856454D01*
X13482740Y-23836121D01*
X13544516Y-23803101D01*
X13598663Y-23758663D01*
X13643101Y-23704516D01*
X13676121Y-23642740D01*
X13696454Y-23575710D01*
X13703320Y-23506000D01*
X13703320Y-22482334D01*
X13730400Y-22482334D01*
X13730400Y-22729666D01*
X13778652Y-22972245D01*
X13873302Y-23200749D01*
X14010712Y-23406398D01*
X14185602Y-23581288D01*
X14391251Y-23718698D01*
X14619755Y-23813348D01*
X14862334Y-23861600D01*
X15109666Y-23861600D01*
X15352245Y-23813348D01*
X15580749Y-23718698D01*
X15786398Y-23581288D01*
X15961288Y-23406398D01*
X16098698Y-23200749D01*
X16193348Y-22972245D01*
X16241600Y-22729666D01*
X16241600Y-22482334D01*
X16193348Y-22239755D01*
X16098698Y-22011251D01*
X15961288Y-21805602D01*
X15786398Y-21630712D01*
X15580749Y-21493302D01*
X15352245Y-21398652D01*
X15109666Y-21350400D01*
X14862334Y-21350400D01*
X14619755Y-21398652D01*
X14391251Y-21493302D01*
X14185602Y-21630712D01*
X14010712Y-21805602D01*
X13873302Y-22011251D01*
X13778652Y-22239755D01*
X13730400Y-22482334D01*
X13703320Y-22482334D01*
X13703320Y-21706000D01*
X13696454Y-21636290D01*
X13676121Y-21569260D01*
X13643101Y-21507484D01*
X13598663Y-21453337D01*
X13544516Y-21408899D01*
X13482740Y-21375879D01*
X13415710Y-21355546D01*
X13346000Y-21348680D01*
X11546000Y-21348680D01*
X11476290Y-21355546D01*
X11409260Y-21375879D01*
X11347484Y-21408899D01*
X11293337Y-21453337D01*
X11248899Y-21507484D01*
X11215879Y-21569260D01*
X11195546Y-21636290D01*
X11188680Y-21706000D01*
X6786498Y-21706000D01*
X6842888Y-21600501D01*
X6923262Y-21335545D01*
X6943600Y-21129050D01*
X6943600Y-20690949D01*
X6923262Y-20484454D01*
X6842888Y-20219498D01*
X6712369Y-19975312D01*
X6536717Y-19761282D01*
X6322687Y-19585631D01*
X6078501Y-19455112D01*
X5813545Y-19374738D01*
X5538000Y-19347599D01*
X5262454Y-19374738D01*
X4997498Y-19455112D01*
X4753312Y-19585631D01*
X4539282Y-19761283D01*
X4363631Y-19975313D01*
X4233112Y-20219499D01*
X4152738Y-20484455D01*
X4132400Y-20690950D01*
X4132400Y-21038815D01*
X4048028Y-20954443D01*
X3934792Y-21067679D01*
X3841486Y-20818583D01*
X3562591Y-20689749D01*
X3263921Y-20617800D01*
X2956953Y-20605501D01*
X2653483Y-20653325D01*
X2365175Y-20759434D01*
X2254514Y-20818583D01*
X2161207Y-21067681D01*
X380600Y-21067681D01*
X380600Y-13716000D01*
X5465401Y-13716000D01*
X5465401Y-18796000D01*
X5472234Y-18865374D01*
X5492469Y-18932082D01*
X5525330Y-18993561D01*
X5569554Y-19047447D01*
X5623440Y-19091671D01*
X5684919Y-19124532D01*
X5751627Y-19144767D01*
X5821001Y-19151600D01*
X25908000Y-19151600D01*
X25977374Y-19144767D01*
X26044082Y-19124532D01*
X26105561Y-19091671D01*
X26159447Y-19047447D01*
X26203671Y-18993561D01*
X26236532Y-18932082D01*
X26256767Y-18865374D01*
X26263600Y-18796000D01*
X26263600Y-13716000D01*
X30124400Y-13716000D01*
X30124400Y-19558000D01*
X30131233Y-19627374D01*
X30151468Y-19694082D01*
X30184329Y-19755561D01*
X30228553Y-19809447D01*
X30282439Y-19853671D01*
X30343918Y-19886532D01*
X30410626Y-19906767D01*
X30480000Y-19913600D01*
X31382822Y-19913600D01*
X30934592Y-20361831D01*
X30917148Y-20376147D01*
X30902831Y-20393592D01*
X30902830Y-20393593D01*
X30860013Y-20445765D01*
X30817560Y-20525191D01*
X30793198Y-20605501D01*
X30791416Y-20611374D01*
X30782589Y-20701000D01*
X30784801Y-20723460D01*
X30784800Y-22637254D01*
X30729034Y-22693020D01*
X30656761Y-22801183D01*
X30606979Y-22921369D01*
X30581600Y-23048956D01*
X30581600Y-23179044D01*
X30606979Y-23306631D01*
X30656761Y-23426817D01*
X30729034Y-23534980D01*
X30821020Y-23626966D01*
X30929183Y-23699239D01*
X31049369Y-23749021D01*
X31176956Y-23774400D01*
X31307044Y-23774400D01*
X31434631Y-23749021D01*
X31554817Y-23699239D01*
X31662980Y-23626966D01*
X31754966Y-23534980D01*
X31827239Y-23426817D01*
X31877021Y-23306631D01*
X31902400Y-23179044D01*
X31902400Y-23048956D01*
X31877021Y-22921369D01*
X31827239Y-22801183D01*
X31754966Y-22693020D01*
X31699200Y-22637254D01*
X31699200Y-20890377D01*
X32218779Y-20370800D01*
X40792400Y-20370800D01*
X40792400Y-24638000D01*
X40799233Y-24707374D01*
X40819468Y-24774082D01*
X40852329Y-24835561D01*
X40896553Y-24889447D01*
X40950439Y-24933671D01*
X41011918Y-24966532D01*
X41078626Y-24986767D01*
X41148000Y-24993600D01*
X56896000Y-24993600D01*
X56965374Y-24986767D01*
X57032082Y-24966532D01*
X57093561Y-24933671D01*
X57147447Y-24889447D01*
X57191671Y-24835561D01*
X57224532Y-24774082D01*
X57244767Y-24707374D01*
X57251600Y-24638000D01*
X57251600Y-22400000D01*
X80961450Y-22400000D01*
X80964400Y-24587200D01*
X81116800Y-24739600D01*
X83413600Y-24739600D01*
X83413600Y-21942800D01*
X84734400Y-21942800D01*
X84734400Y-24739600D01*
X87031200Y-24739600D01*
X87183600Y-24587200D01*
X87186550Y-22400000D01*
X87174780Y-22280497D01*
X87139922Y-22165587D01*
X87083317Y-22059685D01*
X87007138Y-21966862D01*
X86914315Y-21890683D01*
X86808413Y-21834078D01*
X86693503Y-21799220D01*
X86574000Y-21787450D01*
X84886800Y-21790400D01*
X84734400Y-21942800D01*
X83413600Y-21942800D01*
X83261200Y-21790400D01*
X81574000Y-21787450D01*
X81454497Y-21799220D01*
X81339587Y-21834078D01*
X81233685Y-21890683D01*
X81140862Y-21966862D01*
X81064683Y-22059685D01*
X81008078Y-22165587D01*
X80973220Y-22280497D01*
X80961450Y-22400000D01*
X57251600Y-22400000D01*
X57251600Y-18434614D01*
X61900122Y-18434614D01*
X62016608Y-18657390D01*
X62321658Y-18743839D01*
X62637713Y-18769115D01*
X62952625Y-18732246D01*
X63199392Y-18657390D01*
X63315878Y-18434614D01*
X62608000Y-17726736D01*
X61900122Y-18434614D01*
X57251600Y-18434614D01*
X57251600Y-17181713D01*
X60990885Y-17181713D01*
X61027754Y-17496625D01*
X61102610Y-17743392D01*
X61325386Y-17859878D01*
X62033264Y-17152000D01*
X63182736Y-17152000D01*
X63890614Y-17859878D01*
X64113390Y-17743392D01*
X64199839Y-17438342D01*
X64206761Y-17351788D01*
X72042948Y-17351788D01*
X72185019Y-17594745D01*
X72525055Y-17701699D01*
X72879423Y-17740260D01*
X73234505Y-17708947D01*
X73576655Y-17608962D01*
X73610981Y-17594745D01*
X73753052Y-17351788D01*
X72898000Y-16496736D01*
X72042948Y-17351788D01*
X64206761Y-17351788D01*
X64225115Y-17122287D01*
X64188246Y-16807375D01*
X64113390Y-16560608D01*
X63890614Y-16444122D01*
X63182736Y-17152000D01*
X62033264Y-17152000D01*
X61325386Y-16444122D01*
X61102610Y-16560608D01*
X61016161Y-16865658D01*
X60990885Y-17181713D01*
X57251600Y-17181713D01*
X57251600Y-15869386D01*
X61900122Y-15869386D01*
X62608000Y-16577264D01*
X63281841Y-15903423D01*
X71079740Y-15903423D01*
X71111053Y-16258505D01*
X71211038Y-16600655D01*
X71225255Y-16634981D01*
X71468212Y-16777052D01*
X72323264Y-15922000D01*
X73472736Y-15922000D01*
X74327788Y-16777052D01*
X74570745Y-16634981D01*
X74677699Y-16294945D01*
X74716260Y-15940577D01*
X74684947Y-15585495D01*
X74584962Y-15243345D01*
X74570745Y-15209019D01*
X74327788Y-15066948D01*
X73472736Y-15922000D01*
X72323264Y-15922000D01*
X71468212Y-15066948D01*
X71225255Y-15209019D01*
X71118301Y-15549055D01*
X71079740Y-15903423D01*
X63281841Y-15903423D01*
X63315878Y-15869386D01*
X63199392Y-15646610D01*
X62894342Y-15560161D01*
X62578287Y-15534885D01*
X62263375Y-15571754D01*
X62016608Y-15646610D01*
X61900122Y-15869386D01*
X57251600Y-15869386D01*
X57251600Y-14492212D01*
X72042948Y-14492212D01*
X72898000Y-15347264D01*
X73753052Y-14492212D01*
X73610981Y-14249255D01*
X73270945Y-14142301D01*
X72916577Y-14103740D01*
X72561495Y-14135053D01*
X72219345Y-14235038D01*
X72185019Y-14249255D01*
X72042948Y-14492212D01*
X57251600Y-14492212D01*
X57251600Y-13563600D01*
X80924400Y-13563600D01*
X80924400Y-18542000D01*
X80931233Y-18611374D01*
X80951468Y-18678082D01*
X80984329Y-18739561D01*
X81028553Y-18793447D01*
X81082439Y-18837671D01*
X81143918Y-18870532D01*
X81210626Y-18890767D01*
X81280000Y-18897600D01*
X86868000Y-18897600D01*
X86937374Y-18890767D01*
X87004082Y-18870532D01*
X87065561Y-18837671D01*
X87119447Y-18793447D01*
X87163671Y-18739561D01*
X87196532Y-18678082D01*
X87216767Y-18611374D01*
X87223600Y-18542000D01*
X87223600Y-7874000D01*
X87216767Y-7804626D01*
X87196532Y-7737918D01*
X87163671Y-7676439D01*
X87119447Y-7622553D01*
X87065561Y-7578329D01*
X87004082Y-7545468D01*
X86937374Y-7525233D01*
X86868000Y-7518400D01*
X52451000Y-7518400D01*
X52381626Y-7525233D01*
X52314918Y-7545468D01*
X52253439Y-7578329D01*
X52199553Y-7622553D01*
X52155329Y-7676439D01*
X52122468Y-7737918D01*
X52102233Y-7804626D01*
X52095400Y-7874000D01*
X52095400Y-13360400D01*
X30480000Y-13360400D01*
X30410626Y-13367233D01*
X30343918Y-13387468D01*
X30282439Y-13420329D01*
X30228553Y-13464553D01*
X30184329Y-13518439D01*
X30151468Y-13579918D01*
X30131233Y-13646626D01*
X30124400Y-13716000D01*
X26263600Y-13716000D01*
X26256767Y-13646626D01*
X26236532Y-13579918D01*
X26203671Y-13518439D01*
X26159447Y-13464553D01*
X26156336Y-13462000D01*
X26159447Y-13459447D01*
X26203671Y-13405561D01*
X26236532Y-13344082D01*
X26256767Y-13277374D01*
X26263600Y-13208000D01*
X26263600Y-8128000D01*
X26256767Y-8058626D01*
X26236532Y-7991918D01*
X26203671Y-7930439D01*
X26159447Y-7876553D01*
X26105561Y-7832329D01*
X26044082Y-7799468D01*
X25977374Y-7779233D01*
X25908000Y-7772400D01*
X5842000Y-7772400D01*
X5772626Y-7779233D01*
X5705918Y-7799468D01*
X5644439Y-7832329D01*
X5590553Y-7876553D01*
X5546329Y-7930439D01*
X5513468Y-7991918D01*
X5493233Y-8058626D01*
X5486400Y-8128000D01*
X5486400Y-13208000D01*
X5493233Y-13277374D01*
X5513468Y-13344082D01*
X5546329Y-13405561D01*
X5584606Y-13452200D01*
X5569554Y-13464553D01*
X5525330Y-13518439D01*
X5492469Y-13579918D01*
X5472234Y-13646626D01*
X5465401Y-13716000D01*
X380600Y-13716000D01*
X380600Y-3674821D01*
X698400Y-3674821D01*
X698400Y-4325179D01*
X825279Y-4963041D01*
X1074160Y-5563894D01*
X1435480Y-6104647D01*
X1895353Y-6564520D01*
X2436106Y-6925840D01*
X3036959Y-7174721D01*
X3674821Y-7301600D01*
X4325179Y-7301600D01*
X4963041Y-7174721D01*
X5563894Y-6925840D01*
X6104647Y-6564520D01*
X6564520Y-6104647D01*
X6925840Y-5563894D01*
X7174721Y-4963041D01*
X7301600Y-4325179D01*
X7301600Y-3674821D01*
X82698400Y-3674821D01*
X82698400Y-4325179D01*
X82825279Y-4963041D01*
X83074160Y-5563894D01*
X83435480Y-6104647D01*
X83895353Y-6564520D01*
X84436106Y-6925840D01*
X85036959Y-7174721D01*
X85674821Y-7301600D01*
X86325179Y-7301600D01*
X86963041Y-7174721D01*
X87563894Y-6925840D01*
X88104647Y-6564520D01*
X88564520Y-6104647D01*
X88925840Y-5563894D01*
X89174721Y-4963041D01*
X89301600Y-4325179D01*
X89301600Y-3674821D01*
X89174721Y-3036959D01*
X88925840Y-2436106D01*
X88564520Y-1895353D01*
X88104647Y-1435480D01*
X87563894Y-1074160D01*
X86963041Y-825279D01*
X86325179Y-698400D01*
X85674821Y-698400D01*
X85036959Y-825279D01*
X84436106Y-1074160D01*
X83895353Y-1435480D01*
X83435480Y-1895353D01*
X83074160Y-2436106D01*
X82825279Y-3036959D01*
X82698400Y-3674821D01*
X7301600Y-3674821D01*
X7174721Y-3036959D01*
X6925840Y-2436106D01*
X6564520Y-1895353D01*
X6104647Y-1435480D01*
X5563894Y-1074160D01*
X4963041Y-825279D01*
X4325179Y-698400D01*
X3674821Y-698400D01*
X3036959Y-825279D01*
X2436106Y-1074160D01*
X1895353Y-1435480D01*
X1435480Y-1895353D01*
X1074160Y-2436106D01*
X825279Y-3036959D01*
X698400Y-3674821D01*
X380600Y-3674821D01*
X380600Y-380600D01*
X89619400Y-380600D01*
X89619401Y-29619400D01*
G37*
%TD.AperFunction*%
%TD*%
D24*
%TO.N,Net-(D1-Pad2)*%
X25806400Y-13106400D02*
X5943600Y-13106400D01*
X5943600Y-8229600D01*
X25806400Y-8229600D01*
X25806400Y-13106400D01*
%TA.AperFunction,Conductor*%
D25*
G36*
X25806400Y-13106400D02*
G01*
X5943600Y-13106400D01*
X5943600Y-8229600D01*
X25806400Y-8229600D01*
X25806400Y-13106400D01*
G37*
%TD.AperFunction*%
%TD*%
D24*
%TO.N,Net-(D1-Pad1)*%
X25806400Y-18694400D02*
X5922601Y-18694400D01*
X5922601Y-13817600D01*
X25806400Y-13817600D01*
X25806400Y-18694400D01*
%TA.AperFunction,Conductor*%
D25*
G36*
X25806400Y-18694400D02*
G01*
X5922601Y-18694400D01*
X5922601Y-13817600D01*
X25806400Y-13817600D01*
X25806400Y-18694400D01*
G37*
%TD.AperFunction*%
%TD*%
D24*
%TO.N,VCC*%
X52095400Y-19456400D02*
X45567600Y-19456400D01*
X45567600Y-17526000D01*
X45565648Y-17506179D01*
X45559866Y-17487119D01*
X45550477Y-17469554D01*
X45537842Y-17454158D01*
X45522446Y-17441523D01*
X45504881Y-17432134D01*
X45485821Y-17426352D01*
X45466000Y-17424400D01*
X40894000Y-17424400D01*
X40874179Y-17426352D01*
X40855119Y-17432134D01*
X40837554Y-17441523D01*
X40822158Y-17454158D01*
X40809523Y-17469554D01*
X40800134Y-17487119D01*
X40794352Y-17506179D01*
X40792400Y-17526000D01*
X40792400Y-19456400D01*
X32051850Y-19456400D01*
X32029400Y-19454189D01*
X32006950Y-19456400D01*
X30581600Y-19456400D01*
X30581600Y-13817600D01*
X52095400Y-13817600D01*
X52095400Y-19456400D01*
%TA.AperFunction,Conductor*%
D25*
G36*
X52095400Y-19456400D02*
G01*
X45567600Y-19456400D01*
X45567600Y-17526000D01*
X45565648Y-17506179D01*
X45559866Y-17487119D01*
X45550477Y-17469554D01*
X45537842Y-17454158D01*
X45522446Y-17441523D01*
X45504881Y-17432134D01*
X45485821Y-17426352D01*
X45466000Y-17424400D01*
X40894000Y-17424400D01*
X40874179Y-17426352D01*
X40855119Y-17432134D01*
X40837554Y-17441523D01*
X40822158Y-17454158D01*
X40809523Y-17469554D01*
X40800134Y-17487119D01*
X40794352Y-17506179D01*
X40792400Y-17526000D01*
X40792400Y-19456400D01*
X32051850Y-19456400D01*
X32029400Y-19454189D01*
X32006950Y-19456400D01*
X30581600Y-19456400D01*
X30581600Y-13817600D01*
X52095400Y-13817600D01*
X52095400Y-19456400D01*
G37*
%TD.AperFunction*%
%TD*%
D24*
%TO.N,Net-(C2-Pad1)*%
X86766400Y-18440400D02*
X81381600Y-18440400D01*
X81381600Y-13208000D01*
X81379648Y-13188179D01*
X81373866Y-13169119D01*
X81364477Y-13151554D01*
X81351842Y-13136158D01*
X81336446Y-13123523D01*
X81318881Y-13114134D01*
X81299821Y-13108352D01*
X81280000Y-13106400D01*
X56896000Y-13106400D01*
X56876179Y-13108352D01*
X56857119Y-13114134D01*
X56839554Y-13123523D01*
X56824158Y-13136158D01*
X56811523Y-13151554D01*
X56802134Y-13169119D01*
X56796352Y-13188179D01*
X56794400Y-13208000D01*
X56794400Y-24536400D01*
X41249600Y-24536400D01*
X41249600Y-17881600D01*
X45110400Y-17881600D01*
X45110400Y-19812000D01*
X45112352Y-19831821D01*
X45118134Y-19850881D01*
X45127523Y-19868446D01*
X45140158Y-19883842D01*
X45155554Y-19896477D01*
X45173119Y-19905866D01*
X45192179Y-19911648D01*
X45212000Y-19913600D01*
X52451000Y-19913600D01*
X52470821Y-19911648D01*
X52489881Y-19905866D01*
X52507446Y-19896477D01*
X52522842Y-19883842D01*
X52535477Y-19868446D01*
X52544866Y-19850881D01*
X52550648Y-19831821D01*
X52552600Y-19812000D01*
X52552600Y-7975600D01*
X86766400Y-7975600D01*
X86766400Y-18440400D01*
%TA.AperFunction,Conductor*%
D25*
G36*
X86766400Y-18440400D02*
G01*
X81381600Y-18440400D01*
X81381600Y-13208000D01*
X81379648Y-13188179D01*
X81373866Y-13169119D01*
X81364477Y-13151554D01*
X81351842Y-13136158D01*
X81336446Y-13123523D01*
X81318881Y-13114134D01*
X81299821Y-13108352D01*
X81280000Y-13106400D01*
X56896000Y-13106400D01*
X56876179Y-13108352D01*
X56857119Y-13114134D01*
X56839554Y-13123523D01*
X56824158Y-13136158D01*
X56811523Y-13151554D01*
X56802134Y-13169119D01*
X56796352Y-13188179D01*
X56794400Y-13208000D01*
X56794400Y-24536400D01*
X41249600Y-24536400D01*
X41249600Y-17881600D01*
X45110400Y-17881600D01*
X45110400Y-19812000D01*
X45112352Y-19831821D01*
X45118134Y-19850881D01*
X45127523Y-19868446D01*
X45140158Y-19883842D01*
X45155554Y-19896477D01*
X45173119Y-19905866D01*
X45192179Y-19911648D01*
X45212000Y-19913600D01*
X52451000Y-19913600D01*
X52470821Y-19911648D01*
X52489881Y-19905866D01*
X52507446Y-19896477D01*
X52522842Y-19883842D01*
X52535477Y-19868446D01*
X52544866Y-19850881D01*
X52550648Y-19831821D01*
X52552600Y-19812000D01*
X52552600Y-7975600D01*
X86766400Y-7975600D01*
X86766400Y-18440400D01*
G37*
%TD.AperFunction*%
%TD*%
M02*
