%TF.GenerationSoftware,KiCad,Pcbnew,5.1.12-84ad8e8a86~92~ubuntu18.04.1*%
%TF.CreationDate,2023-04-20T21:37:03+02:00*%
%TF.ProjectId,transient-dc-protection,7472616e-7369-4656-9e74-2d64632d7072,rev?*%
%TF.SameCoordinates,Original*%
%TF.FileFunction,Soldermask,Top*%
%TF.FilePolarity,Negative*%
%FSLAX46Y46*%
G04 Gerber Fmt 4.6, Leading zero omitted, Abs format (unit mm)*
G04 Created by KiCad (PCBNEW 5.1.12-84ad8e8a86~92~ubuntu18.04.1) date 2023-04-20 21:37:03*
%MOMM*%
%LPD*%
G01*
G04 APERTURE LIST*
%ADD10C,2.000000*%
%ADD11C,6.400000*%
%ADD12O,5.000000X6.000000*%
%ADD13R,2.400000X2.400000*%
%ADD14C,2.400000*%
%ADD15R,2.300000X2.500000*%
%ADD16R,1.800000X1.800000*%
%ADD17C,1.800000*%
%ADD18R,3.800000X2.800000*%
%ADD19O,3.800000X2.800000*%
%ADD20O,2.400000X2.100000*%
%ADD21C,1.900000*%
%ADD22O,2.100000X2.400000*%
%ADD23R,0.400000X1.060000*%
%ADD24C,0.812800*%
%ADD25C,1.016000*%
%ADD26C,0.609600*%
G04 APERTURE END LIST*
%TO.C,L1*%
G36*
G01*
X22432000Y-12274500D02*
X22432000Y-11399500D01*
G75*
G02*
X22869500Y-10962000I437500J0D01*
G01*
X25494500Y-10962000D01*
G75*
G02*
X25932000Y-11399500I0J-437500D01*
G01*
X25932000Y-12274500D01*
G75*
G02*
X25494500Y-12712000I-437500J0D01*
G01*
X22869500Y-12712000D01*
G75*
G02*
X22432000Y-12274500I0J437500D01*
G01*
G37*
G36*
G01*
X22432000Y-15524500D02*
X22432000Y-14649500D01*
G75*
G02*
X22869500Y-14212000I437500J0D01*
G01*
X25494500Y-14212000D01*
G75*
G02*
X25932000Y-14649500I0J-437500D01*
G01*
X25932000Y-15524500D01*
G75*
G02*
X25494500Y-15962000I-437500J0D01*
G01*
X22869500Y-15962000D01*
G75*
G02*
X22432000Y-15524500I0J437500D01*
G01*
G37*
G36*
G01*
X28932000Y-15524500D02*
X28932000Y-14649500D01*
G75*
G02*
X29369500Y-14212000I437500J0D01*
G01*
X31994500Y-14212000D01*
G75*
G02*
X32432000Y-14649500I0J-437500D01*
G01*
X32432000Y-15524500D01*
G75*
G02*
X31994500Y-15962000I-437500J0D01*
G01*
X29369500Y-15962000D01*
G75*
G02*
X28932000Y-15524500I0J437500D01*
G01*
G37*
G36*
G01*
X28932000Y-12274500D02*
X28932000Y-11399500D01*
G75*
G02*
X29369500Y-10962000I437500J0D01*
G01*
X31994500Y-10962000D01*
G75*
G02*
X32432000Y-11399500I0J-437500D01*
G01*
X32432000Y-12274500D01*
G75*
G02*
X31994500Y-12712000I-437500J0D01*
G01*
X29369500Y-12712000D01*
G75*
G02*
X28932000Y-12274500I0J437500D01*
G01*
G37*
%TD*%
D10*
%TO.C,REF\u002A\u002A*%
X43434000Y-23876000D03*
%TD*%
%TO.C,REF\u002A\u002A*%
X9000000Y-25000000D03*
%TD*%
%TO.C,REF\u002A\u002A*%
X81000000Y-4064000D03*
%TD*%
D11*
%TO.C,REF\u002A\u002A*%
X86000000Y-4000000D03*
%TD*%
%TO.C,REF\u002A\u002A*%
X4000000Y-4000000D03*
%TD*%
D10*
%TO.C,REF\u002A\u002A*%
X9000000Y-4064000D03*
%TD*%
%TO.C,J2*%
G36*
G01*
X86264000Y-28400000D02*
X81884000Y-28400000D01*
G75*
G02*
X81574000Y-28090000I0J310000D01*
G01*
X81574000Y-22710000D01*
G75*
G02*
X81884000Y-22400000I310000J0D01*
G01*
X86264000Y-22400000D01*
G75*
G02*
X86574000Y-22710000I0J-310000D01*
G01*
X86574000Y-28090000D01*
G75*
G02*
X86264000Y-28400000I-310000J0D01*
G01*
G37*
D12*
X84074000Y-15240000D03*
%TD*%
%TO.C,C1*%
G36*
G01*
X31783000Y-20262000D02*
X32733000Y-20262000D01*
G75*
G02*
X32983000Y-20512000I0J-250000D01*
G01*
X32983000Y-21012000D01*
G75*
G02*
X32733000Y-21262000I-250000J0D01*
G01*
X31783000Y-21262000D01*
G75*
G02*
X31533000Y-21012000I0J250000D01*
G01*
X31533000Y-20512000D01*
G75*
G02*
X31783000Y-20262000I250000J0D01*
G01*
G37*
G36*
G01*
X31783000Y-18362000D02*
X32733000Y-18362000D01*
G75*
G02*
X32983000Y-18612000I0J-250000D01*
G01*
X32983000Y-19112000D01*
G75*
G02*
X32733000Y-19362000I-250000J0D01*
G01*
X31783000Y-19362000D01*
G75*
G02*
X31533000Y-19112000I0J250000D01*
G01*
X31533000Y-18612000D01*
G75*
G02*
X31783000Y-18362000I250000J0D01*
G01*
G37*
%TD*%
%TO.C,C2*%
G36*
G01*
X38387000Y-18362000D02*
X39337000Y-18362000D01*
G75*
G02*
X39587000Y-18612000I0J-250000D01*
G01*
X39587000Y-19112000D01*
G75*
G02*
X39337000Y-19362000I-250000J0D01*
G01*
X38387000Y-19362000D01*
G75*
G02*
X38137000Y-19112000I0J250000D01*
G01*
X38137000Y-18612000D01*
G75*
G02*
X38387000Y-18362000I250000J0D01*
G01*
G37*
G36*
G01*
X38387000Y-20262000D02*
X39337000Y-20262000D01*
G75*
G02*
X39587000Y-20512000I0J-250000D01*
G01*
X39587000Y-21012000D01*
G75*
G02*
X39337000Y-21262000I-250000J0D01*
G01*
X38387000Y-21262000D01*
G75*
G02*
X38137000Y-21012000I0J250000D01*
G01*
X38137000Y-20512000D01*
G75*
G02*
X38387000Y-20262000I250000J0D01*
G01*
G37*
%TD*%
D13*
%TO.C,C3*%
X72898000Y-10922000D03*
D14*
X72898000Y-15922000D03*
%TD*%
%TO.C,C4*%
G36*
G01*
X35888000Y-23589000D02*
X35888000Y-22639000D01*
G75*
G02*
X36138000Y-22389000I250000J0D01*
G01*
X36638000Y-22389000D01*
G75*
G02*
X36888000Y-22639000I0J-250000D01*
G01*
X36888000Y-23589000D01*
G75*
G02*
X36638000Y-23839000I-250000J0D01*
G01*
X36138000Y-23839000D01*
G75*
G02*
X35888000Y-23589000I0J250000D01*
G01*
G37*
G36*
G01*
X37788000Y-23589000D02*
X37788000Y-22639000D01*
G75*
G02*
X38038000Y-22389000I250000J0D01*
G01*
X38538000Y-22389000D01*
G75*
G02*
X38788000Y-22639000I0J-250000D01*
G01*
X38788000Y-23589000D01*
G75*
G02*
X38538000Y-23839000I-250000J0D01*
G01*
X38038000Y-23839000D01*
G75*
G02*
X37788000Y-23589000I0J250000D01*
G01*
G37*
%TD*%
%TO.C,C5*%
G36*
G01*
X48547000Y-20262000D02*
X49497000Y-20262000D01*
G75*
G02*
X49747000Y-20512000I0J-250000D01*
G01*
X49747000Y-21012000D01*
G75*
G02*
X49497000Y-21262000I-250000J0D01*
G01*
X48547000Y-21262000D01*
G75*
G02*
X48297000Y-21012000I0J250000D01*
G01*
X48297000Y-20512000D01*
G75*
G02*
X48547000Y-20262000I250000J0D01*
G01*
G37*
G36*
G01*
X48547000Y-18362000D02*
X49497000Y-18362000D01*
G75*
G02*
X49747000Y-18612000I0J-250000D01*
G01*
X49747000Y-19112000D01*
G75*
G02*
X49497000Y-19362000I-250000J0D01*
G01*
X48547000Y-19362000D01*
G75*
G02*
X48297000Y-19112000I0J250000D01*
G01*
X48297000Y-18612000D01*
G75*
G02*
X48547000Y-18362000I250000J0D01*
G01*
G37*
%TD*%
%TO.C,C6*%
G36*
G01*
X55151000Y-18362000D02*
X56101000Y-18362000D01*
G75*
G02*
X56351000Y-18612000I0J-250000D01*
G01*
X56351000Y-19112000D01*
G75*
G02*
X56101000Y-19362000I-250000J0D01*
G01*
X55151000Y-19362000D01*
G75*
G02*
X54901000Y-19112000I0J250000D01*
G01*
X54901000Y-18612000D01*
G75*
G02*
X55151000Y-18362000I250000J0D01*
G01*
G37*
G36*
G01*
X55151000Y-20262000D02*
X56101000Y-20262000D01*
G75*
G02*
X56351000Y-20512000I0J-250000D01*
G01*
X56351000Y-21012000D01*
G75*
G02*
X56101000Y-21262000I-250000J0D01*
G01*
X55151000Y-21262000D01*
G75*
G02*
X54901000Y-21012000I0J250000D01*
G01*
X54901000Y-20512000D01*
G75*
G02*
X55151000Y-20262000I250000J0D01*
G01*
G37*
%TD*%
%TO.C,C7*%
G36*
G01*
X54552000Y-23589000D02*
X54552000Y-22639000D01*
G75*
G02*
X54802000Y-22389000I250000J0D01*
G01*
X55302000Y-22389000D01*
G75*
G02*
X55552000Y-22639000I0J-250000D01*
G01*
X55552000Y-23589000D01*
G75*
G02*
X55302000Y-23839000I-250000J0D01*
G01*
X54802000Y-23839000D01*
G75*
G02*
X54552000Y-23589000I0J250000D01*
G01*
G37*
G36*
G01*
X52652000Y-23589000D02*
X52652000Y-22639000D01*
G75*
G02*
X52902000Y-22389000I250000J0D01*
G01*
X53402000Y-22389000D01*
G75*
G02*
X53652000Y-22639000I0J-250000D01*
G01*
X53652000Y-23589000D01*
G75*
G02*
X53402000Y-23839000I-250000J0D01*
G01*
X52902000Y-23839000D01*
G75*
G02*
X52652000Y-23589000I0J250000D01*
G01*
G37*
%TD*%
D15*
%TO.C,D1*%
X17526000Y-15612000D03*
X17526000Y-11312000D03*
%TD*%
D16*
%TO.C,D2*%
X12446000Y-22606000D03*
D17*
X14986000Y-22606000D03*
%TD*%
D18*
%TO.C,J1*%
X8382000Y-10922000D03*
D19*
X8382000Y-16002000D03*
%TD*%
%TO.C,R1*%
G36*
G01*
X29521999Y-20212000D02*
X30422001Y-20212000D01*
G75*
G02*
X30672000Y-20461999I0J-249999D01*
G01*
X30672000Y-20987001D01*
G75*
G02*
X30422001Y-21237000I-249999J0D01*
G01*
X29521999Y-21237000D01*
G75*
G02*
X29272000Y-20987001I0J249999D01*
G01*
X29272000Y-20461999D01*
G75*
G02*
X29521999Y-20212000I249999J0D01*
G01*
G37*
G36*
G01*
X29521999Y-18387000D02*
X30422001Y-18387000D01*
G75*
G02*
X30672000Y-18636999I0J-249999D01*
G01*
X30672000Y-19162001D01*
G75*
G02*
X30422001Y-19412000I-249999J0D01*
G01*
X29521999Y-19412000D01*
G75*
G02*
X29272000Y-19162001I0J249999D01*
G01*
X29272000Y-18636999D01*
G75*
G02*
X29521999Y-18387000I249999J0D01*
G01*
G37*
%TD*%
%TO.C,R2*%
G36*
G01*
X38763000Y-25203999D02*
X38763000Y-26104001D01*
G75*
G02*
X38513001Y-26354000I-249999J0D01*
G01*
X37987999Y-26354000D01*
G75*
G02*
X37738000Y-26104001I0J249999D01*
G01*
X37738000Y-25203999D01*
G75*
G02*
X37987999Y-24954000I249999J0D01*
G01*
X38513001Y-24954000D01*
G75*
G02*
X38763000Y-25203999I0J-249999D01*
G01*
G37*
G36*
G01*
X36938000Y-25203999D02*
X36938000Y-26104001D01*
G75*
G02*
X36688001Y-26354000I-249999J0D01*
G01*
X36162999Y-26354000D01*
G75*
G02*
X35913000Y-26104001I0J249999D01*
G01*
X35913000Y-25203999D01*
G75*
G02*
X36162999Y-24954000I249999J0D01*
G01*
X36688001Y-24954000D01*
G75*
G02*
X36938000Y-25203999I0J-249999D01*
G01*
G37*
%TD*%
%TO.C,R3*%
G36*
G01*
X31595000Y-23564001D02*
X31595000Y-22663999D01*
G75*
G02*
X31844999Y-22414000I249999J0D01*
G01*
X32370001Y-22414000D01*
G75*
G02*
X32620000Y-22663999I0J-249999D01*
G01*
X32620000Y-23564001D01*
G75*
G02*
X32370001Y-23814000I-249999J0D01*
G01*
X31844999Y-23814000D01*
G75*
G02*
X31595000Y-23564001I0J249999D01*
G01*
G37*
G36*
G01*
X33420000Y-23564001D02*
X33420000Y-22663999D01*
G75*
G02*
X33669999Y-22414000I249999J0D01*
G01*
X34195001Y-22414000D01*
G75*
G02*
X34445000Y-22663999I0J-249999D01*
G01*
X34445000Y-23564001D01*
G75*
G02*
X34195001Y-23814000I-249999J0D01*
G01*
X33669999Y-23814000D01*
G75*
G02*
X33420000Y-23564001I0J249999D01*
G01*
G37*
%TD*%
%TO.C,R4*%
G36*
G01*
X30635000Y-22663999D02*
X30635000Y-23564001D01*
G75*
G02*
X30385001Y-23814000I-249999J0D01*
G01*
X29859999Y-23814000D01*
G75*
G02*
X29610000Y-23564001I0J249999D01*
G01*
X29610000Y-22663999D01*
G75*
G02*
X29859999Y-22414000I249999J0D01*
G01*
X30385001Y-22414000D01*
G75*
G02*
X30635000Y-22663999I0J-249999D01*
G01*
G37*
G36*
G01*
X28810000Y-22663999D02*
X28810000Y-23564001D01*
G75*
G02*
X28560001Y-23814000I-249999J0D01*
G01*
X28034999Y-23814000D01*
G75*
G02*
X27785000Y-23564001I0J249999D01*
G01*
X27785000Y-22663999D01*
G75*
G02*
X28034999Y-22414000I249999J0D01*
G01*
X28560001Y-22414000D01*
G75*
G02*
X28810000Y-22663999I0J-249999D01*
G01*
G37*
%TD*%
%TO.C,R5*%
G36*
G01*
X46285999Y-18387000D02*
X47186001Y-18387000D01*
G75*
G02*
X47436000Y-18636999I0J-249999D01*
G01*
X47436000Y-19162001D01*
G75*
G02*
X47186001Y-19412000I-249999J0D01*
G01*
X46285999Y-19412000D01*
G75*
G02*
X46036000Y-19162001I0J249999D01*
G01*
X46036000Y-18636999D01*
G75*
G02*
X46285999Y-18387000I249999J0D01*
G01*
G37*
G36*
G01*
X46285999Y-20212000D02*
X47186001Y-20212000D01*
G75*
G02*
X47436000Y-20461999I0J-249999D01*
G01*
X47436000Y-20987001D01*
G75*
G02*
X47186001Y-21237000I-249999J0D01*
G01*
X46285999Y-21237000D01*
G75*
G02*
X46036000Y-20987001I0J249999D01*
G01*
X46036000Y-20461999D01*
G75*
G02*
X46285999Y-20212000I249999J0D01*
G01*
G37*
%TD*%
%TO.C,R6*%
G36*
G01*
X53702000Y-25203999D02*
X53702000Y-26104001D01*
G75*
G02*
X53452001Y-26354000I-249999J0D01*
G01*
X52926999Y-26354000D01*
G75*
G02*
X52677000Y-26104001I0J249999D01*
G01*
X52677000Y-25203999D01*
G75*
G02*
X52926999Y-24954000I249999J0D01*
G01*
X53452001Y-24954000D01*
G75*
G02*
X53702000Y-25203999I0J-249999D01*
G01*
G37*
G36*
G01*
X55527000Y-25203999D02*
X55527000Y-26104001D01*
G75*
G02*
X55277001Y-26354000I-249999J0D01*
G01*
X54751999Y-26354000D01*
G75*
G02*
X54502000Y-26104001I0J249999D01*
G01*
X54502000Y-25203999D01*
G75*
G02*
X54751999Y-24954000I249999J0D01*
G01*
X55277001Y-24954000D01*
G75*
G02*
X55527000Y-25203999I0J-249999D01*
G01*
G37*
%TD*%
%TO.C,R7*%
G36*
G01*
X50184000Y-23564001D02*
X50184000Y-22663999D01*
G75*
G02*
X50433999Y-22414000I249999J0D01*
G01*
X50959001Y-22414000D01*
G75*
G02*
X51209000Y-22663999I0J-249999D01*
G01*
X51209000Y-23564001D01*
G75*
G02*
X50959001Y-23814000I-249999J0D01*
G01*
X50433999Y-23814000D01*
G75*
G02*
X50184000Y-23564001I0J249999D01*
G01*
G37*
G36*
G01*
X48359000Y-23564001D02*
X48359000Y-22663999D01*
G75*
G02*
X48608999Y-22414000I249999J0D01*
G01*
X49134001Y-22414000D01*
G75*
G02*
X49384000Y-22663999I0J-249999D01*
G01*
X49384000Y-23564001D01*
G75*
G02*
X49134001Y-23814000I-249999J0D01*
G01*
X48608999Y-23814000D01*
G75*
G02*
X48359000Y-23564001I0J249999D01*
G01*
G37*
%TD*%
D10*
%TO.C,RV1*%
X64008000Y-9652000D03*
X62608000Y-17152000D03*
%TD*%
D20*
%TO.C,SW1*%
X17862000Y-24180000D03*
D21*
X19122000Y-26670000D03*
X23622000Y-26670000D03*
D20*
X24872000Y-24180000D03*
%TD*%
D22*
%TO.C,SW2*%
X5538000Y-27920000D03*
D21*
X3048000Y-26670000D03*
X3048000Y-22170000D03*
D22*
X5538000Y-20910000D03*
%TD*%
D23*
%TO.C,U1*%
X34580000Y-20912000D03*
X35230000Y-20912000D03*
X35890000Y-20912000D03*
X36540000Y-20912000D03*
X36540000Y-18712000D03*
X35890000Y-18712000D03*
X35230000Y-18712000D03*
X34580000Y-18712000D03*
%TD*%
%TO.C,U2*%
X51344000Y-18712000D03*
X51994000Y-18712000D03*
X52654000Y-18712000D03*
X53304000Y-18712000D03*
X53304000Y-20912000D03*
X52654000Y-20912000D03*
X51994000Y-20912000D03*
X51344000Y-20912000D03*
%TD*%
D24*
X33655000Y-20828000D03*
D25*
X29210000Y-8636000D03*
X30226000Y-9652000D03*
X31242000Y-8636000D03*
X32258000Y-9652000D03*
X33274000Y-8636000D03*
X33782000Y-10668000D03*
X34798000Y-11684000D03*
X33782000Y-12700000D03*
D24*
X40386000Y-22860000D03*
X40386000Y-24892000D03*
X57658000Y-23876000D03*
X57658000Y-22860000D03*
X49022000Y-25400000D03*
X40386000Y-23876000D03*
X57658000Y-24892000D03*
X40386000Y-21844000D03*
X48006000Y-25400000D03*
X50038000Y-25400000D03*
X32258000Y-25400000D03*
X31242000Y-25400000D03*
X33274000Y-25400000D03*
X57658000Y-21844000D03*
D25*
X28194000Y-9652000D03*
X34798000Y-9652000D03*
D24*
X33020000Y-14478000D03*
X34036000Y-14478000D03*
X35052000Y-14478000D03*
X48260000Y-14478000D03*
X51308000Y-14478000D03*
X50292000Y-14478000D03*
X49276000Y-14478000D03*
X47244000Y-14478000D03*
X46228000Y-14478000D03*
X45212000Y-14478000D03*
X44196000Y-14478000D03*
X43180000Y-14478000D03*
X42164000Y-14478000D03*
X41148000Y-14478000D03*
X40132000Y-14478000D03*
X39116000Y-14478000D03*
X38100000Y-14478000D03*
X37084000Y-14478000D03*
X36068000Y-14478000D03*
D26*
X47752000Y-23114000D03*
X31242000Y-23114000D03*
D25*
X41656000Y-18415000D03*
X43688000Y-18415000D03*
X41656000Y-20447000D03*
X42672000Y-19431000D03*
X42672000Y-21463000D03*
X43688000Y-20447000D03*
X44704000Y-19431000D03*
X44704000Y-21463000D03*
D24*
X86106000Y-8636000D03*
X85090000Y-8636000D03*
X84074000Y-8636000D03*
X83058000Y-8636000D03*
X82042000Y-8636000D03*
X81026000Y-8636000D03*
X80010000Y-8636000D03*
X78994000Y-8636000D03*
X77978000Y-8636000D03*
X76962000Y-8636000D03*
X75946000Y-8636000D03*
X74930000Y-8636000D03*
X73914000Y-8636000D03*
X72898000Y-8636000D03*
X71882000Y-8636000D03*
X70866000Y-8636000D03*
X69850000Y-8636000D03*
X68834000Y-8636000D03*
X67818000Y-8636000D03*
X66802000Y-8636000D03*
X65786000Y-8636000D03*
X62230000Y-8636000D03*
X61214000Y-8636000D03*
X60198000Y-8636000D03*
X59182000Y-8636000D03*
X58166000Y-8636000D03*
X57150000Y-8636000D03*
X56134000Y-8636000D03*
X55118000Y-8636000D03*
X54102000Y-8636000D03*
X53086000Y-8636000D03*
X53086000Y-9652000D03*
X53086000Y-10668000D03*
X53086000Y-11684000D03*
X53086000Y-12700000D03*
X53086000Y-13716000D03*
X53086000Y-14732000D03*
X53086000Y-15748000D03*
X53086000Y-16764000D03*
X24892000Y-18034000D03*
X23876000Y-18034000D03*
X22860000Y-18034000D03*
X21844000Y-18034000D03*
X20828000Y-18034000D03*
X19812000Y-18034000D03*
X18796000Y-18034000D03*
X17780000Y-18034000D03*
X16764000Y-18034000D03*
X15748000Y-18034000D03*
X14732000Y-18034000D03*
X13716000Y-18034000D03*
X12700000Y-18034000D03*
X11684000Y-18034000D03*
X10668000Y-18034000D03*
X24892000Y-8890000D03*
X23876000Y-8890000D03*
X10668000Y-8890000D03*
X11684000Y-8890000D03*
X12700000Y-8890000D03*
X13716000Y-8890000D03*
X14732000Y-8890000D03*
X15748000Y-8890000D03*
X16764000Y-8890000D03*
X17780000Y-8890000D03*
X18796000Y-8890000D03*
X19812000Y-8890000D03*
X20828000Y-8890000D03*
X21844000Y-8890000D03*
X22860000Y-8890000D03*
M02*
