%TF.GenerationSoftware,KiCad,Pcbnew,5.1.12-84ad8e8a86~92~ubuntu18.04.1*%
%TF.CreationDate,2023-04-20T21:37:03+02:00*%
%TF.ProjectId,transient-dc-protection,7472616e-7369-4656-9e74-2d64632d7072,rev?*%
%TF.SameCoordinates,Original*%
%TF.FileFunction,Legend,Bot*%
%TF.FilePolarity,Positive*%
%FSLAX46Y46*%
G04 Gerber Fmt 4.6, Leading zero omitted, Abs format (unit mm)*
G04 Created by KiCad (PCBNEW 5.1.12-84ad8e8a86~92~ubuntu18.04.1) date 2023-04-20 21:37:03*
%MOMM*%
%LPD*%
G01*
G04 APERTURE LIST*
%ADD10C,0.254000*%
%ADD11C,0.203200*%
G04 APERTURE END LIST*
D10*
X77016428Y-4517571D02*
X77076904Y-4578047D01*
X77258333Y-4638523D01*
X77379285Y-4638523D01*
X77560714Y-4578047D01*
X77681666Y-4457095D01*
X77742142Y-4336142D01*
X77802619Y-4094238D01*
X77802619Y-3912809D01*
X77742142Y-3670904D01*
X77681666Y-3549952D01*
X77560714Y-3429000D01*
X77379285Y-3368523D01*
X77258333Y-3368523D01*
X77076904Y-3429000D01*
X77016428Y-3489476D01*
X76290714Y-4638523D02*
X76411666Y-4578047D01*
X76472142Y-4517571D01*
X76532619Y-4396619D01*
X76532619Y-4033761D01*
X76472142Y-3912809D01*
X76411666Y-3852333D01*
X76290714Y-3791857D01*
X76109285Y-3791857D01*
X75988333Y-3852333D01*
X75927857Y-3912809D01*
X75867380Y-4033761D01*
X75867380Y-4396619D01*
X75927857Y-4517571D01*
X75988333Y-4578047D01*
X76109285Y-4638523D01*
X76290714Y-4638523D01*
X75323095Y-3791857D02*
X75323095Y-5061857D01*
X75323095Y-3852333D02*
X75202142Y-3791857D01*
X74960238Y-3791857D01*
X74839285Y-3852333D01*
X74778809Y-3912809D01*
X74718333Y-4033761D01*
X74718333Y-4396619D01*
X74778809Y-4517571D01*
X74839285Y-4578047D01*
X74960238Y-4638523D01*
X75202142Y-4638523D01*
X75323095Y-4578047D01*
X74295000Y-3791857D02*
X73992619Y-4638523D01*
X73690238Y-3791857D02*
X73992619Y-4638523D01*
X74113571Y-4940904D01*
X74174047Y-5001380D01*
X74295000Y-5061857D01*
X73206428Y-4638523D02*
X73206428Y-3791857D01*
X73206428Y-4033761D02*
X73145952Y-3912809D01*
X73085476Y-3852333D01*
X72964523Y-3791857D01*
X72843571Y-3791857D01*
X72420238Y-4638523D02*
X72420238Y-3791857D01*
X72420238Y-3368523D02*
X72480714Y-3429000D01*
X72420238Y-3489476D01*
X72359761Y-3429000D01*
X72420238Y-3368523D01*
X72420238Y-3489476D01*
X71271190Y-3791857D02*
X71271190Y-4819952D01*
X71331666Y-4940904D01*
X71392142Y-5001380D01*
X71513095Y-5061857D01*
X71694523Y-5061857D01*
X71815476Y-5001380D01*
X71271190Y-4578047D02*
X71392142Y-4638523D01*
X71634047Y-4638523D01*
X71755000Y-4578047D01*
X71815476Y-4517571D01*
X71875952Y-4396619D01*
X71875952Y-4033761D01*
X71815476Y-3912809D01*
X71755000Y-3852333D01*
X71634047Y-3791857D01*
X71392142Y-3791857D01*
X71271190Y-3852333D01*
X70666428Y-4638523D02*
X70666428Y-3368523D01*
X70122142Y-4638523D02*
X70122142Y-3973285D01*
X70182619Y-3852333D01*
X70303571Y-3791857D01*
X70485000Y-3791857D01*
X70605952Y-3852333D01*
X70666428Y-3912809D01*
X69698809Y-3791857D02*
X69215000Y-3791857D01*
X69517380Y-3368523D02*
X69517380Y-4457095D01*
X69456904Y-4578047D01*
X69335952Y-4638523D01*
X69215000Y-4638523D01*
X66795952Y-3670904D02*
X66916904Y-3610428D01*
X67158809Y-3610428D01*
X67279761Y-3670904D01*
X67400714Y-3791857D01*
X67461190Y-3912809D01*
X67461190Y-4154714D01*
X67400714Y-4275666D01*
X67279761Y-4396619D01*
X67158809Y-4457095D01*
X66916904Y-4457095D01*
X66795952Y-4396619D01*
X67037857Y-3187095D02*
X67340238Y-3247571D01*
X67642619Y-3429000D01*
X67824047Y-3731380D01*
X67884523Y-4033761D01*
X67824047Y-4336142D01*
X67642619Y-4638523D01*
X67340238Y-4819952D01*
X67037857Y-4880428D01*
X66735476Y-4819952D01*
X66433095Y-4638523D01*
X66251666Y-4336142D01*
X66191190Y-4033761D01*
X66251666Y-3731380D01*
X66433095Y-3429000D01*
X66735476Y-3247571D01*
X67037857Y-3187095D01*
X64739761Y-3489476D02*
X64679285Y-3429000D01*
X64558333Y-3368523D01*
X64255952Y-3368523D01*
X64134999Y-3429000D01*
X64074523Y-3489476D01*
X64014047Y-3610428D01*
X64014047Y-3731380D01*
X64074523Y-3912809D01*
X64800238Y-4638523D01*
X64014047Y-4638523D01*
X63227857Y-3368523D02*
X63106904Y-3368523D01*
X62985952Y-3429000D01*
X62925476Y-3489476D01*
X62864999Y-3610428D01*
X62804523Y-3852333D01*
X62804523Y-4154714D01*
X62864999Y-4396619D01*
X62925476Y-4517571D01*
X62985952Y-4578047D01*
X63106904Y-4638523D01*
X63227857Y-4638523D01*
X63348809Y-4578047D01*
X63409285Y-4517571D01*
X63469761Y-4396619D01*
X63530238Y-4154714D01*
X63530238Y-3852333D01*
X63469761Y-3610428D01*
X63409285Y-3489476D01*
X63348809Y-3429000D01*
X63227857Y-3368523D01*
X62320714Y-3489476D02*
X62260238Y-3429000D01*
X62139285Y-3368523D01*
X61836904Y-3368523D01*
X61715952Y-3429000D01*
X61655476Y-3489476D01*
X61594999Y-3610428D01*
X61594999Y-3731380D01*
X61655476Y-3912809D01*
X62381190Y-4638523D01*
X61594999Y-4638523D01*
X61171666Y-3368523D02*
X60385476Y-3368523D01*
X60808809Y-3852333D01*
X60627380Y-3852333D01*
X60506428Y-3912809D01*
X60445952Y-3973285D01*
X60385476Y-4094238D01*
X60385476Y-4396619D01*
X60445952Y-4517571D01*
X60506428Y-4578047D01*
X60627380Y-4638523D01*
X60990238Y-4638523D01*
X61111190Y-4578047D01*
X61171666Y-4517571D01*
X58147857Y-4638523D02*
X58571190Y-4033761D01*
X58873571Y-4638523D02*
X58873571Y-3368523D01*
X58389761Y-3368523D01*
X58268809Y-3429000D01*
X58208333Y-3489476D01*
X58147857Y-3610428D01*
X58147857Y-3791857D01*
X58208333Y-3912809D01*
X58268809Y-3973285D01*
X58389761Y-4033761D01*
X58873571Y-4033761D01*
X57603571Y-4638523D02*
X57603571Y-3791857D01*
X57603571Y-3368523D02*
X57664047Y-3429000D01*
X57603571Y-3489476D01*
X57543095Y-3429000D01*
X57603571Y-3368523D01*
X57603571Y-3489476D01*
X56817380Y-4638523D02*
X56938333Y-4578047D01*
X56998809Y-4457095D01*
X56998809Y-3368523D01*
X55849761Y-4578047D02*
X55970714Y-4638523D01*
X56212619Y-4638523D01*
X56333571Y-4578047D01*
X56394047Y-4457095D01*
X56394047Y-3973285D01*
X56333571Y-3852333D01*
X56212619Y-3791857D01*
X55970714Y-3791857D01*
X55849761Y-3852333D01*
X55789285Y-3973285D01*
X55789285Y-4094238D01*
X56394047Y-4215190D01*
X55365952Y-3791857D02*
X55063571Y-4638523D01*
X54761190Y-3791857D02*
X55063571Y-4638523D01*
X55184523Y-4940904D01*
X55244999Y-5001380D01*
X55365952Y-5061857D01*
X54337857Y-4578047D02*
X54156428Y-4638523D01*
X53854047Y-4638523D01*
X53733095Y-4578047D01*
X53672619Y-4517571D01*
X53612142Y-4396619D01*
X53612142Y-4275666D01*
X53672619Y-4154714D01*
X53733095Y-4094238D01*
X53854047Y-4033761D01*
X54095952Y-3973285D01*
X54216904Y-3912809D01*
X54277380Y-3852333D01*
X54337857Y-3731380D01*
X54337857Y-3610428D01*
X54277380Y-3489476D01*
X54216904Y-3429000D01*
X54095952Y-3368523D01*
X53793571Y-3368523D01*
X53612142Y-3429000D01*
X53249285Y-3791857D02*
X52765476Y-3791857D01*
X53067857Y-3368523D02*
X53067857Y-4457095D01*
X53007380Y-4578047D01*
X52886428Y-4638523D01*
X52765476Y-4638523D01*
X51797857Y-4638523D02*
X51797857Y-3973285D01*
X51858333Y-3852333D01*
X51979285Y-3791857D01*
X52221190Y-3791857D01*
X52342142Y-3852333D01*
X51797857Y-4578047D02*
X51918809Y-4638523D01*
X52221190Y-4638523D01*
X52342142Y-4578047D01*
X52402619Y-4457095D01*
X52402619Y-4336142D01*
X52342142Y-4215190D01*
X52221190Y-4154714D01*
X51918809Y-4154714D01*
X51797857Y-4094238D01*
X51193095Y-4638523D02*
X51193095Y-3791857D01*
X51193095Y-4033761D02*
X51132619Y-3912809D01*
X51072142Y-3852333D01*
X50951190Y-3791857D01*
X50830238Y-3791857D01*
X50225476Y-4638523D02*
X50346428Y-4578047D01*
X50406904Y-4457095D01*
X50406904Y-3368523D01*
X49741666Y-4638523D02*
X49741666Y-3791857D01*
X49741666Y-3368523D02*
X49802142Y-3429000D01*
X49741666Y-3489476D01*
X49681190Y-3429000D01*
X49741666Y-3368523D01*
X49741666Y-3489476D01*
X48592619Y-3791857D02*
X48592619Y-4819952D01*
X48653095Y-4940904D01*
X48713571Y-5001380D01*
X48834523Y-5061857D01*
X49015952Y-5061857D01*
X49136904Y-5001380D01*
X48592619Y-4578047D02*
X48713571Y-4638523D01*
X48955476Y-4638523D01*
X49076428Y-4578047D01*
X49136904Y-4517571D01*
X49197380Y-4396619D01*
X49197380Y-4033761D01*
X49136904Y-3912809D01*
X49076428Y-3852333D01*
X48955476Y-3791857D01*
X48713571Y-3791857D01*
X48592619Y-3852333D01*
X47987857Y-4638523D02*
X47987857Y-3368523D01*
X47443571Y-4638523D02*
X47443571Y-3973285D01*
X47504047Y-3852333D01*
X47624999Y-3791857D01*
X47806428Y-3791857D01*
X47927380Y-3852333D01*
X47987857Y-3912809D01*
X47020238Y-3791857D02*
X46536428Y-3791857D01*
X46838809Y-3368523D02*
X46838809Y-4457095D01*
X46778333Y-4578047D01*
X46657380Y-4638523D01*
X46536428Y-4638523D01*
D11*
X41740666Y-3406019D02*
X42079333Y-2922209D01*
X42321238Y-3406019D02*
X42321238Y-2390019D01*
X41934190Y-2390019D01*
X41837428Y-2438400D01*
X41789047Y-2486780D01*
X41740666Y-2583542D01*
X41740666Y-2728685D01*
X41789047Y-2825447D01*
X41837428Y-2873828D01*
X41934190Y-2922209D01*
X42321238Y-2922209D01*
X40918190Y-3357638D02*
X41014952Y-3406019D01*
X41208476Y-3406019D01*
X41305238Y-3357638D01*
X41353619Y-3260876D01*
X41353619Y-2873828D01*
X41305238Y-2777066D01*
X41208476Y-2728685D01*
X41014952Y-2728685D01*
X40918190Y-2777066D01*
X40869809Y-2873828D01*
X40869809Y-2970590D01*
X41353619Y-3067352D01*
X40289238Y-3406019D02*
X40386000Y-3357638D01*
X40434380Y-3260876D01*
X40434380Y-2390019D01*
X39515142Y-3357638D02*
X39611904Y-3406019D01*
X39805428Y-3406019D01*
X39902190Y-3357638D01*
X39950571Y-3260876D01*
X39950571Y-2873828D01*
X39902190Y-2777066D01*
X39805428Y-2728685D01*
X39611904Y-2728685D01*
X39515142Y-2777066D01*
X39466761Y-2873828D01*
X39466761Y-2970590D01*
X39950571Y-3067352D01*
X38595904Y-3406019D02*
X38595904Y-2873828D01*
X38644285Y-2777066D01*
X38741047Y-2728685D01*
X38934571Y-2728685D01*
X39031333Y-2777066D01*
X38595904Y-3357638D02*
X38692666Y-3406019D01*
X38934571Y-3406019D01*
X39031333Y-3357638D01*
X39079714Y-3260876D01*
X39079714Y-3164114D01*
X39031333Y-3067352D01*
X38934571Y-3018971D01*
X38692666Y-3018971D01*
X38595904Y-2970590D01*
X38160476Y-3357638D02*
X38063714Y-3406019D01*
X37870190Y-3406019D01*
X37773428Y-3357638D01*
X37725047Y-3260876D01*
X37725047Y-3212495D01*
X37773428Y-3115733D01*
X37870190Y-3067352D01*
X38015333Y-3067352D01*
X38112095Y-3018971D01*
X38160476Y-2922209D01*
X38160476Y-2873828D01*
X38112095Y-2777066D01*
X38015333Y-2728685D01*
X37870190Y-2728685D01*
X37773428Y-2777066D01*
X36902571Y-3357638D02*
X36999333Y-3406019D01*
X37192857Y-3406019D01*
X37289619Y-3357638D01*
X37338000Y-3260876D01*
X37338000Y-2873828D01*
X37289619Y-2777066D01*
X37192857Y-2728685D01*
X36999333Y-2728685D01*
X36902571Y-2777066D01*
X36854190Y-2873828D01*
X36854190Y-2970590D01*
X37338000Y-3067352D01*
X35983333Y-3406019D02*
X35983333Y-2390019D01*
X35983333Y-3357638D02*
X36080095Y-3406019D01*
X36273619Y-3406019D01*
X36370380Y-3357638D01*
X36418761Y-3309257D01*
X36467142Y-3212495D01*
X36467142Y-2922209D01*
X36418761Y-2825447D01*
X36370380Y-2777066D01*
X36273619Y-2728685D01*
X36080095Y-2728685D01*
X35983333Y-2777066D01*
X34290000Y-2728685D02*
X34290000Y-3406019D01*
X34725428Y-2728685D02*
X34725428Y-3260876D01*
X34677047Y-3357638D01*
X34580285Y-3406019D01*
X34435142Y-3406019D01*
X34338380Y-3357638D01*
X34290000Y-3309257D01*
X33806190Y-2728685D02*
X33806190Y-3406019D01*
X33806190Y-2825447D02*
X33757809Y-2777066D01*
X33661047Y-2728685D01*
X33515904Y-2728685D01*
X33419142Y-2777066D01*
X33370761Y-2873828D01*
X33370761Y-3406019D01*
X32451523Y-3406019D02*
X32451523Y-2390019D01*
X32451523Y-3357638D02*
X32548285Y-3406019D01*
X32741809Y-3406019D01*
X32838571Y-3357638D01*
X32886952Y-3309257D01*
X32935333Y-3212495D01*
X32935333Y-2922209D01*
X32886952Y-2825447D01*
X32838571Y-2777066D01*
X32741809Y-2728685D01*
X32548285Y-2728685D01*
X32451523Y-2777066D01*
X31580666Y-3357638D02*
X31677428Y-3406019D01*
X31870952Y-3406019D01*
X31967714Y-3357638D01*
X32016095Y-3260876D01*
X32016095Y-2873828D01*
X31967714Y-2777066D01*
X31870952Y-2728685D01*
X31677428Y-2728685D01*
X31580666Y-2777066D01*
X31532285Y-2873828D01*
X31532285Y-2970590D01*
X32016095Y-3067352D01*
X31096857Y-3406019D02*
X31096857Y-2728685D01*
X31096857Y-2922209D02*
X31048476Y-2825447D01*
X31000095Y-2777066D01*
X30903333Y-2728685D01*
X30806571Y-2728685D01*
X29113238Y-3309257D02*
X29161619Y-3357638D01*
X29306761Y-3406019D01*
X29403523Y-3406019D01*
X29548666Y-3357638D01*
X29645428Y-3260876D01*
X29693809Y-3164114D01*
X29742190Y-2970590D01*
X29742190Y-2825447D01*
X29693809Y-2631923D01*
X29645428Y-2535161D01*
X29548666Y-2438400D01*
X29403523Y-2390019D01*
X29306761Y-2390019D01*
X29161619Y-2438400D01*
X29113238Y-2486780D01*
X28677809Y-2873828D02*
X28339142Y-2873828D01*
X28194000Y-3406019D02*
X28677809Y-3406019D01*
X28677809Y-2390019D01*
X28194000Y-2390019D01*
X27178000Y-3406019D02*
X27516666Y-2922209D01*
X27758571Y-3406019D02*
X27758571Y-2390019D01*
X27371523Y-2390019D01*
X27274761Y-2438400D01*
X27226380Y-2486780D01*
X27178000Y-2583542D01*
X27178000Y-2728685D01*
X27226380Y-2825447D01*
X27274761Y-2873828D01*
X27371523Y-2922209D01*
X27758571Y-2922209D01*
X26742571Y-3406019D02*
X26742571Y-2390019D01*
X26162000Y-3406019D01*
X26162000Y-2390019D01*
X24710571Y-2390019D02*
X24517047Y-2390019D01*
X24420285Y-2438400D01*
X24323523Y-2535161D01*
X24275142Y-2728685D01*
X24275142Y-3067352D01*
X24323523Y-3260876D01*
X24420285Y-3357638D01*
X24517047Y-3406019D01*
X24710571Y-3406019D01*
X24807333Y-3357638D01*
X24904095Y-3260876D01*
X24952476Y-3067352D01*
X24952476Y-2728685D01*
X24904095Y-2535161D01*
X24807333Y-2438400D01*
X24710571Y-2390019D01*
X23839714Y-3406019D02*
X23839714Y-2390019D01*
X23839714Y-2873828D02*
X23259142Y-2873828D01*
X23259142Y-3406019D02*
X23259142Y-2390019D01*
X22291523Y-3406019D02*
X22775333Y-3406019D01*
X22775333Y-2390019D01*
X21952857Y-3018971D02*
X21178761Y-3018971D01*
X20743333Y-3357638D02*
X20598190Y-3406019D01*
X20356285Y-3406019D01*
X20259523Y-3357638D01*
X20211142Y-3309257D01*
X20162761Y-3212495D01*
X20162761Y-3115733D01*
X20211142Y-3018971D01*
X20259523Y-2970590D01*
X20356285Y-2922209D01*
X20549809Y-2873828D01*
X20646571Y-2825447D01*
X20694952Y-2777066D01*
X20743333Y-2680304D01*
X20743333Y-2583542D01*
X20694952Y-2486780D01*
X20646571Y-2438400D01*
X20549809Y-2390019D01*
X20307904Y-2390019D01*
X20162761Y-2438400D01*
X19001619Y-2486780D02*
X18953238Y-2438400D01*
X18856476Y-2390019D01*
X18614571Y-2390019D01*
X18517809Y-2438400D01*
X18469428Y-2486780D01*
X18421047Y-2583542D01*
X18421047Y-2680304D01*
X18469428Y-2825447D01*
X19050000Y-3406019D01*
X18421047Y-3406019D01*
X16727714Y-3406019D02*
X17211523Y-3406019D01*
X17211523Y-2390019D01*
X16389047Y-3406019D02*
X16389047Y-2728685D01*
X16389047Y-2390019D02*
X16437428Y-2438400D01*
X16389047Y-2486780D01*
X16340666Y-2438400D01*
X16389047Y-2390019D01*
X16389047Y-2486780D01*
X15469809Y-3357638D02*
X15566571Y-3406019D01*
X15760095Y-3406019D01*
X15856857Y-3357638D01*
X15905238Y-3309257D01*
X15953619Y-3212495D01*
X15953619Y-2922209D01*
X15905238Y-2825447D01*
X15856857Y-2777066D01*
X15760095Y-2728685D01*
X15566571Y-2728685D01*
X15469809Y-2777066D01*
X14647333Y-3357638D02*
X14744095Y-3406019D01*
X14937619Y-3406019D01*
X15034380Y-3357638D01*
X15082761Y-3260876D01*
X15082761Y-2873828D01*
X15034380Y-2777066D01*
X14937619Y-2728685D01*
X14744095Y-2728685D01*
X14647333Y-2777066D01*
X14598952Y-2873828D01*
X14598952Y-2970590D01*
X15082761Y-3067352D01*
X14163523Y-2728685D02*
X14163523Y-3406019D01*
X14163523Y-2825447D02*
X14115142Y-2777066D01*
X14018380Y-2728685D01*
X13873238Y-2728685D01*
X13776476Y-2777066D01*
X13728095Y-2873828D01*
X13728095Y-3406019D01*
X13292666Y-3357638D02*
X13195904Y-3406019D01*
X13002380Y-3406019D01*
X12905619Y-3357638D01*
X12857238Y-3260876D01*
X12857238Y-3212495D01*
X12905619Y-3115733D01*
X13002380Y-3067352D01*
X13147523Y-3067352D01*
X13244285Y-3018971D01*
X13292666Y-2922209D01*
X13292666Y-2873828D01*
X13244285Y-2777066D01*
X13147523Y-2728685D01*
X13002380Y-2728685D01*
X12905619Y-2777066D01*
X12034761Y-3357638D02*
X12131523Y-3406019D01*
X12325047Y-3406019D01*
X12421809Y-3357638D01*
X12470190Y-3260876D01*
X12470190Y-2873828D01*
X12421809Y-2777066D01*
X12325047Y-2728685D01*
X12131523Y-2728685D01*
X12034761Y-2777066D01*
X11986380Y-2873828D01*
X11986380Y-2970590D01*
X12470190Y-3067352D01*
X38837809Y-5133219D02*
X38837809Y-4117219D01*
X38402380Y-5133219D02*
X38402380Y-4601028D01*
X38450761Y-4504266D01*
X38547523Y-4455885D01*
X38692666Y-4455885D01*
X38789428Y-4504266D01*
X38837809Y-4552647D01*
X38063714Y-4455885D02*
X37676666Y-4455885D01*
X37918571Y-4117219D02*
X37918571Y-4988076D01*
X37870190Y-5084838D01*
X37773428Y-5133219D01*
X37676666Y-5133219D01*
X37483142Y-4455885D02*
X37096095Y-4455885D01*
X37338000Y-4117219D02*
X37338000Y-4988076D01*
X37289619Y-5084838D01*
X37192857Y-5133219D01*
X37096095Y-5133219D01*
X36757428Y-4455885D02*
X36757428Y-5471885D01*
X36757428Y-4504266D02*
X36660666Y-4455885D01*
X36467142Y-4455885D01*
X36370380Y-4504266D01*
X36322000Y-4552647D01*
X36273619Y-4649409D01*
X36273619Y-4939695D01*
X36322000Y-5036457D01*
X36370380Y-5084838D01*
X36467142Y-5133219D01*
X36660666Y-5133219D01*
X36757428Y-5084838D01*
X35886571Y-5084838D02*
X35789809Y-5133219D01*
X35596285Y-5133219D01*
X35499523Y-5084838D01*
X35451142Y-4988076D01*
X35451142Y-4939695D01*
X35499523Y-4842933D01*
X35596285Y-4794552D01*
X35741428Y-4794552D01*
X35838190Y-4746171D01*
X35886571Y-4649409D01*
X35886571Y-4601028D01*
X35838190Y-4504266D01*
X35741428Y-4455885D01*
X35596285Y-4455885D01*
X35499523Y-4504266D01*
X35015714Y-5036457D02*
X34967333Y-5084838D01*
X35015714Y-5133219D01*
X35064095Y-5084838D01*
X35015714Y-5036457D01*
X35015714Y-5133219D01*
X35015714Y-4504266D02*
X34967333Y-4552647D01*
X35015714Y-4601028D01*
X35064095Y-4552647D01*
X35015714Y-4504266D01*
X35015714Y-4601028D01*
X33806190Y-4068838D02*
X34677047Y-5375123D01*
X32741809Y-4068838D02*
X33612666Y-5375123D01*
X31967714Y-5084838D02*
X32064476Y-5133219D01*
X32258000Y-5133219D01*
X32354761Y-5084838D01*
X32403142Y-5036457D01*
X32451523Y-4939695D01*
X32451523Y-4649409D01*
X32403142Y-4552647D01*
X32354761Y-4504266D01*
X32258000Y-4455885D01*
X32064476Y-4455885D01*
X31967714Y-4504266D01*
X31145238Y-5084838D02*
X31242000Y-5133219D01*
X31435523Y-5133219D01*
X31532285Y-5084838D01*
X31580666Y-4988076D01*
X31580666Y-4601028D01*
X31532285Y-4504266D01*
X31435523Y-4455885D01*
X31242000Y-4455885D01*
X31145238Y-4504266D01*
X31096857Y-4601028D01*
X31096857Y-4697790D01*
X31580666Y-4794552D01*
X30661428Y-5133219D02*
X30661428Y-4455885D01*
X30661428Y-4649409D02*
X30613047Y-4552647D01*
X30564666Y-4504266D01*
X30467904Y-4455885D01*
X30371142Y-4455885D01*
X30032476Y-4455885D02*
X30032476Y-5133219D01*
X30032476Y-4552647D02*
X29984095Y-4504266D01*
X29887333Y-4455885D01*
X29742190Y-4455885D01*
X29645428Y-4504266D01*
X29597047Y-4601028D01*
X29597047Y-5133219D01*
X29113238Y-4746171D02*
X28339142Y-4746171D01*
X27710190Y-5133219D02*
X27806952Y-5084838D01*
X27855333Y-5036457D01*
X27903714Y-4939695D01*
X27903714Y-4649409D01*
X27855333Y-4552647D01*
X27806952Y-4504266D01*
X27710190Y-4455885D01*
X27565047Y-4455885D01*
X27468285Y-4504266D01*
X27419904Y-4552647D01*
X27371523Y-4649409D01*
X27371523Y-4939695D01*
X27419904Y-5036457D01*
X27468285Y-5084838D01*
X27565047Y-5133219D01*
X27710190Y-5133219D01*
X26936095Y-5133219D02*
X26936095Y-4117219D01*
X26500666Y-5133219D02*
X26500666Y-4601028D01*
X26549047Y-4504266D01*
X26645809Y-4455885D01*
X26790952Y-4455885D01*
X26887714Y-4504266D01*
X26936095Y-4552647D01*
X25871714Y-5133219D02*
X25968476Y-5084838D01*
X26016857Y-4988076D01*
X26016857Y-4117219D01*
X25484666Y-5036457D02*
X25436285Y-5084838D01*
X25484666Y-5133219D01*
X25533047Y-5084838D01*
X25484666Y-5036457D01*
X25484666Y-5133219D01*
X25097619Y-4455885D02*
X24904095Y-5133219D01*
X24710571Y-4649409D01*
X24517047Y-5133219D01*
X24323523Y-4455885D01*
X23549428Y-5084838D02*
X23646190Y-5133219D01*
X23839714Y-5133219D01*
X23936476Y-5084838D01*
X23984857Y-4988076D01*
X23984857Y-4601028D01*
X23936476Y-4504266D01*
X23839714Y-4455885D01*
X23646190Y-4455885D01*
X23549428Y-4504266D01*
X23501047Y-4601028D01*
X23501047Y-4697790D01*
X23984857Y-4794552D01*
X23065619Y-5133219D02*
X23065619Y-4117219D01*
X23065619Y-4504266D02*
X22968857Y-4455885D01*
X22775333Y-4455885D01*
X22678571Y-4504266D01*
X22630190Y-4552647D01*
X22581809Y-4649409D01*
X22581809Y-4939695D01*
X22630190Y-5036457D01*
X22678571Y-5084838D01*
X22775333Y-5133219D01*
X22968857Y-5133219D01*
X23065619Y-5084838D01*
X22146380Y-5036457D02*
X22098000Y-5084838D01*
X22146380Y-5133219D01*
X22194761Y-5084838D01*
X22146380Y-5036457D01*
X22146380Y-5133219D01*
X21227142Y-5084838D02*
X21323904Y-5133219D01*
X21517428Y-5133219D01*
X21614190Y-5084838D01*
X21662571Y-5036457D01*
X21710952Y-4939695D01*
X21710952Y-4649409D01*
X21662571Y-4552647D01*
X21614190Y-4504266D01*
X21517428Y-4455885D01*
X21323904Y-4455885D01*
X21227142Y-4504266D01*
X20404666Y-5084838D02*
X20501428Y-5133219D01*
X20694952Y-5133219D01*
X20791714Y-5084838D01*
X20840095Y-4988076D01*
X20840095Y-4601028D01*
X20791714Y-4504266D01*
X20694952Y-4455885D01*
X20501428Y-4455885D01*
X20404666Y-4504266D01*
X20356285Y-4601028D01*
X20356285Y-4697790D01*
X20840095Y-4794552D01*
X19920857Y-5133219D02*
X19920857Y-4455885D01*
X19920857Y-4649409D02*
X19872476Y-4552647D01*
X19824095Y-4504266D01*
X19727333Y-4455885D01*
X19630571Y-4455885D01*
X19291904Y-4455885D02*
X19291904Y-5133219D01*
X19291904Y-4552647D02*
X19243523Y-4504266D01*
X19146761Y-4455885D01*
X19001619Y-4455885D01*
X18904857Y-4504266D01*
X18856476Y-4601028D01*
X18856476Y-5133219D01*
X18372666Y-5036457D02*
X18324285Y-5084838D01*
X18372666Y-5133219D01*
X18421047Y-5084838D01*
X18372666Y-5036457D01*
X18372666Y-5133219D01*
X17453428Y-5084838D02*
X17550190Y-5133219D01*
X17743714Y-5133219D01*
X17840476Y-5084838D01*
X17888857Y-5036457D01*
X17937238Y-4939695D01*
X17937238Y-4649409D01*
X17888857Y-4552647D01*
X17840476Y-4504266D01*
X17743714Y-4455885D01*
X17550190Y-4455885D01*
X17453428Y-4504266D01*
X17018000Y-5133219D02*
X17018000Y-4117219D01*
X16582571Y-5133219D02*
X16582571Y-4601028D01*
X16630952Y-4504266D01*
X16727714Y-4455885D01*
X16872857Y-4455885D01*
X16969619Y-4504266D01*
X17018000Y-4552647D01*
X15373047Y-4068838D02*
X16243904Y-5375123D01*
M02*
