M48
; DRILL file {KiCad 5.1.12-84ad8e8a86~92~ubuntu18.04.1} date jue 20 abr 2023 21:37:00 CEST
; FORMAT={-:-/ absolute / inch / decimal}
; #@! TF.CreationDate,2023-04-20T21:37:00+02:00
; #@! TF.GenerationSoftware,Kicad,Pcbnew,5.1.12-84ad8e8a86~92~ubuntu18.04.1
FMAT,2
INCH
T1C0.0120
T2C0.0180
T3C0.0240
T4C0.0354
T5C0.0394
T6C0.0472
T7C0.0512
T8C0.1181
T9C0.1181
T10C0.1260
%
G90
G05
T1
X1.23Y-0.91
X1.88Y-0.91
T2
X0.42Y-0.35
X0.42Y-0.71
X0.46Y-0.35
X0.46Y-0.71
X0.5Y-0.35
X0.5Y-0.71
X0.54Y-0.35
X0.54Y-0.71
X0.58Y-0.35
X0.58Y-0.71
X0.62Y-0.35
X0.62Y-0.71
X0.66Y-0.35
X0.66Y-0.71
X0.7Y-0.35
X0.7Y-0.71
X0.74Y-0.35
X0.74Y-0.71
X0.78Y-0.35
X0.78Y-0.71
X0.82Y-0.35
X0.82Y-0.71
X0.86Y-0.35
X0.86Y-0.71
X0.9Y-0.35
X0.9Y-0.71
X0.94Y-0.35
X0.94Y-0.71
X0.98Y-0.35
X0.98Y-0.71
X1.23Y-1.0
X1.27Y-1.0
X1.3Y-0.57
X1.31Y-1.0
X1.325Y-0.82
X1.34Y-0.57
X1.38Y-0.57
X1.42Y-0.57
X1.46Y-0.57
X1.5Y-0.57
X1.54Y-0.57
X1.58Y-0.57
X1.59Y-0.86
X1.59Y-0.9
X1.59Y-0.94
X1.59Y-0.98
X1.62Y-0.57
X1.66Y-0.57
X1.7Y-0.57
X1.74Y-0.57
X1.78Y-0.57
X1.82Y-0.57
X1.86Y-0.57
X1.89Y-1.0
X1.9Y-0.57
X1.93Y-1.0
X1.94Y-0.57
X1.97Y-1.0
X1.98Y-0.57
X2.02Y-0.57
X2.09Y-0.34
X2.09Y-0.38
X2.09Y-0.42
X2.09Y-0.46
X2.09Y-0.5
X2.09Y-0.54
X2.09Y-0.58
X2.09Y-0.62
X2.09Y-0.66
X2.13Y-0.34
X2.17Y-0.34
X2.21Y-0.34
X2.25Y-0.34
X2.27Y-0.86
X2.27Y-0.9
X2.27Y-0.94
X2.27Y-0.98
X2.29Y-0.34
X2.33Y-0.34
X2.37Y-0.34
X2.41Y-0.34
X2.45Y-0.34
X2.59Y-0.34
X2.63Y-0.34
X2.67Y-0.34
X2.71Y-0.34
X2.75Y-0.34
X2.79Y-0.34
X2.83Y-0.34
X2.87Y-0.34
X2.91Y-0.34
X2.95Y-0.34
X2.99Y-0.34
X3.03Y-0.34
X3.07Y-0.34
X3.11Y-0.34
X3.15Y-0.34
X3.19Y-0.34
X3.23Y-0.34
X3.27Y-0.34
X3.31Y-0.34
X3.35Y-0.34
X3.39Y-0.34
T3
X1.11Y-0.38
X1.15Y-0.34
X1.19Y-0.38
X1.23Y-0.34
X1.27Y-0.38
X1.31Y-0.34
X1.33Y-0.42
X1.33Y-0.5
X1.37Y-0.38
X1.37Y-0.46
X1.64Y-0.725
X1.64Y-0.805
X1.68Y-0.765
X1.68Y-0.845
X1.72Y-0.725
X1.72Y-0.805
X1.76Y-0.765
X1.76Y-0.845
T4
X0.49Y-0.89
X0.59Y-0.89
X2.4649Y-0.6753
X2.52Y-0.38
T5
X0.12Y-0.8728
X0.12Y-1.05
X0.7528Y-1.05
X0.93Y-1.05
T6
X2.87Y-0.43
X2.87Y-0.6269
T7
X0.218Y-0.8232
X0.218Y-1.0992
X0.33Y-0.43
X0.33Y-0.63
X0.7032Y-0.952
X0.9792Y-0.952
T8
X3.31Y-1.0
T9
X3.31Y-0.6
T10
X0.1575Y-0.1575
X3.3858Y-0.1575
T0
M30
